M48
METRIC,LZ,000.000
;FILE_FORMAT=3:3
;TYPE=PLATED
;Layer: PTH_Through
;EasyEDA v6.5.47, 2024-10-14 09:34:27
;ce67ab0569d04c388b7640da7ad94f30,699dadb93aee4be8b9b8ad6142c81684,10
;Gerber Generator version 0.2
;Holesize 1 = 0.305 mm
T01C0.305
;Holesize 2 = 0.310 mm
T02C0.310
;Holesize 3 = 0.351 mm
T03C0.351
;Holesize 4 = 0.400 mm
T04C0.400
;Holesize 5 = 0.501 mm
T05C0.501
;Holesize 6 = 0.701 mm
T06C0.701
;Holesize 7 = 0.800 mm
T07C0.800
;Holesize 8 = 0.915 mm
T08C0.915
;Holesize 9 = 1.000 mm
T09C1.000
;Holesize 10 = 1.200 mm
T10C1.200
;Holesize 11 = 1.301 mm
T11C1.301
;Holesize 12 = 1.800 mm
T12C1.800
;Holesize 13 = 2.000 mm
T13C2.000
;Holesize 14 = 4.000 mm
T14C4.000
%
G05
G90
T01
X007918Y079375
X008127Y078323
X008724Y077430
X009616Y076834
X010668Y076625
X011721Y076834
X012613Y077430
X013209Y078323
X013418Y079375
X013209Y080427
X012613Y081320
X011721Y081916
X010668Y082125
X009616Y081916
X008724Y081320
X008127Y080427
X097580Y079502
X097789Y078450
X098386Y077557
X099278Y076961
X100330Y076752
X101383Y076961
X102275Y077557
X102871Y078450
X103080Y079502
X102871Y080554
X102275Y081447
X101383Y082043
X100330Y082252
X099278Y082043
X098386Y081447
X097789Y080554
X097580Y018415
X097789Y017363
X098386Y016470
X099278Y015874
X100330Y015665
X101383Y015874
X102275Y016470
X102871Y017363
X103080Y018415
X102871Y019467
X102275Y020360
X101383Y020956
X100330Y021165
X099278Y020956
X098386Y020360
X097789Y019467
X007918Y018288
X008127Y017236
X008724Y016343
X009616Y015747
X010668Y015538
X011721Y015747
X012613Y016343
X013209Y017236
X013418Y018288
X013209Y019340
X012613Y020233
X011721Y020829
X010668Y021038
X009616Y020829
X008724Y020233
X008127Y019340
T02
X027305Y058928
X028321Y057277
X035179Y050292
X020574Y052451
X087329Y044379
X085090Y043942
X034925Y047244
X044196Y024638
X038209Y024584
X028321Y031623
T03
X061341Y028829
X037465Y016510
X078740Y049911
X085725Y057785
X044323Y044196
X042418Y027559
X037592Y029083
T04
X055118Y033909
X037846Y033909
X042418Y026035
X048006Y027178
T05
X031242Y027813
X038227Y027940
X054737Y050800
X094361Y052705
X069741Y038225
X016256Y057277
X025654Y057150
X052197Y036957
X018161Y035560
X091948Y052705
X093218Y052705
X085725Y056388
X083566Y054991
X023305Y028169
X024164Y028169
X025023Y028169
X025883Y028169
X023310Y027265
X024169Y027265
X025028Y027265
X025888Y027265
X025895Y025545
X023317Y025545
X024176Y025545
X025036Y025545
X025890Y026449
X025030Y026449
X024171Y026449
X023312Y026449
X032296Y045789
X015253Y021847
X015882Y040925
X020490Y039311
X020214Y046373
X082553Y050910
X075177Y052077
X039537Y051466
X034974Y045468
X032478Y029929
X027876Y034901
X066349Y037949
X071564Y046213
T06
X008751Y044575G85X009551Y044575
X008751Y053215G85X009551Y053215
X012551Y044575G85X013351Y044575
X012551Y053215G85X013351Y053215
T07
X010356Y026008G85X009456Y026008
X010356Y038508G85X009456Y038508
X041021Y031369
X034798Y040259
X014351Y064770
X036673Y040894
X038301Y040894
X039928Y040894
T08
X082550Y043688
T09
X078359Y038187
X078359Y033187
X055118Y055965
X057658Y055965
X060198Y055965
X062738Y055965
T10
X091826Y035687
X091816Y033147
X091826Y038227
T11
X009906Y032258
X009906Y029258
X009906Y035258
T12
X097409Y026687
X097409Y044687
T13
X047278Y055465
X070578Y055465
X047278Y031665
X070578Y031665
T14
X010668Y079375
X100330Y079502
X100330Y018415
X010668Y018288
M30
