G04 Layer: BottomSilkscreenLayer*
G04 EasyEDA v6.5.47, 2024-10-14 09:34:27*
G04 ce67ab0569d04c388b7640da7ad94f30,699dadb93aee4be8b9b8ad6142c81684,10*
G04 Gerber Generator version 0.2*
G04 Scale: 100 percent, Rotated: No, Reflected: No *
G04 Dimensions in millimeters *
G04 leading zeros omitted , absolute positions ,4 integer and 5 decimal *
%FSLAX45Y45*%
%MOMM*%

%ADD10C,0.1900*%
%ADD11C,0.2032*%

%LPD*%
G36*
X5575198Y7773263D02*
G01*
X5574487Y7769809D01*
X5535777Y7515047D01*
X5536133Y7514640D01*
X5560263Y7516571D01*
X5608777Y7515656D01*
X5611825Y7514437D01*
X5611825Y7518653D01*
G37*
G36*
X5855309Y7719466D02*
G01*
X5853785Y7717790D01*
X5711494Y7495641D01*
X5711037Y7493558D01*
X5730798Y7486040D01*
X5754370Y7475626D01*
X5777738Y7462926D01*
X5781598Y7460488D01*
X5782360Y7461300D01*
X5855309Y7718196D01*
G37*
G36*
X5301742Y7718247D02*
G01*
X5372049Y7462164D01*
X5372506Y7461605D01*
X5384342Y7468463D01*
X5407050Y7479842D01*
X5429402Y7489190D01*
X5442915Y7494066D01*
X5442407Y7495438D01*
X5302097Y7718247D01*
G37*
G36*
X5697677Y7681417D02*
G01*
X5696051Y7678826D01*
X5635193Y7513828D01*
X5635193Y7512303D01*
X5657291Y7508494D01*
X5683046Y7502245D01*
X5684215Y7504074D01*
X5696864Y7675372D01*
G37*
G36*
X5455412Y7680858D02*
G01*
X5454904Y7679436D01*
X5466334Y7502042D01*
X5466689Y7501737D01*
X5490921Y7507731D01*
X5515051Y7511999D01*
X5515762Y7512710D01*
G37*
G36*
X5918708Y7583068D02*
G01*
X5881624Y7545374D01*
X5793333Y7454798D01*
X5792978Y7453528D01*
X5814161Y7439304D01*
X5833110Y7424470D01*
X5834329Y7425791D01*
G37*
G36*
X5233314Y7583068D02*
G01*
X5316474Y7424928D01*
X5317693Y7423607D01*
X5334101Y7436713D01*
X5354675Y7450886D01*
X5357876Y7453528D01*
X5233771Y7583068D01*
G37*
G36*
X5074361Y7557058D02*
G01*
X5244541Y7349540D01*
X5246725Y7347254D01*
X5260695Y7366000D01*
X5277358Y7385405D01*
X5298948Y7407046D01*
X5074970Y7556957D01*
G37*
G36*
X6080201Y7554874D02*
G01*
X5854344Y7406131D01*
X5878271Y7381595D01*
X5891479Y7365949D01*
X5906312Y7346492D01*
G37*
G36*
X5578449Y7476998D02*
G01*
X5556808Y7476388D01*
X5534253Y7474661D01*
X5511393Y7471308D01*
X5493512Y7467650D01*
X5473598Y7462520D01*
X5445556Y7453122D01*
X5421071Y7442657D01*
X5403392Y7433818D01*
X5385206Y7423353D01*
X5365292Y7410246D01*
X5347106Y7396480D01*
X5331764Y7383475D01*
X5311749Y7364272D01*
X5293106Y7343038D01*
X5277561Y7322667D01*
X5262778Y7300112D01*
X5250180Y7277608D01*
X5241645Y7259421D01*
X5232400Y7236612D01*
X5224424Y7211822D01*
X5220004Y7194499D01*
X5215890Y7174230D01*
X5212384Y7149338D01*
X5211216Y7130135D01*
X5256072Y7128967D01*
X5300268Y7126376D01*
X5334101Y7123734D01*
X5385155Y7118553D01*
X5419852Y7114184D01*
X5451043Y7109866D01*
X5486603Y7103770D01*
X5521248Y7096099D01*
X5552440Y7087565D01*
X5574995Y7080351D01*
X5594908Y7073341D01*
X5616143Y7064857D01*
X5638241Y7055103D01*
X5672023Y7038086D01*
X5693714Y7025690D01*
X5717184Y7010603D01*
X5740501Y6993585D01*
X5763006Y6975195D01*
X5796127Y6942226D01*
X5812637Y6922312D01*
X5827369Y6902094D01*
X5840323Y6881571D01*
X5847689Y6868159D01*
X5848146Y6868159D01*
X5863691Y6886803D01*
X5874105Y6900672D01*
X5886246Y6918858D01*
X5894578Y6932726D01*
X5907176Y6956958D01*
X5917895Y6982104D01*
X5927140Y7009841D01*
X5933186Y7034123D01*
X5936843Y7053122D01*
X5940348Y7079183D01*
X5941314Y7126935D01*
X5939231Y7152843D01*
X5936742Y7171029D01*
X5933186Y7190079D01*
X5926480Y7216089D01*
X5917946Y7241184D01*
X5909767Y7261148D01*
X5897829Y7285380D01*
X5882894Y7310526D01*
X5868873Y7330440D01*
X5852871Y7350404D01*
X5834634Y7370013D01*
X5815025Y7388250D01*
X5795111Y7404252D01*
X5775147Y7418273D01*
X5750001Y7433157D01*
X5725769Y7445146D01*
X5702350Y7454646D01*
X5680710Y7461910D01*
X5654243Y7468666D01*
X5631332Y7472883D01*
X5607050Y7475829D01*
G37*
G36*
X6081064Y7403134D02*
G01*
X5913780Y7336688D01*
X5913221Y7336231D01*
X5927547Y7313117D01*
X5938367Y7292594D01*
X6075832Y7398816D01*
G37*
G36*
X5071618Y7402830D02*
G01*
X5073243Y7401306D01*
X5209286Y7294270D01*
X5212537Y7291476D01*
X5214162Y7294067D01*
X5228844Y7320788D01*
X5238191Y7335062D01*
X5073243Y7402728D01*
G37*
G36*
X4932426Y7317892D02*
G01*
X4932426Y7317028D01*
X5178552Y7193991D01*
X5179263Y7193991D01*
X5183073Y7210856D01*
X5192268Y7242048D01*
X5202986Y7270343D01*
X5202377Y7270902D01*
G37*
G36*
X6215938Y7311593D02*
G01*
X5951575Y7268006D01*
X5950508Y7266889D01*
X5958230Y7246416D01*
X5965444Y7224166D01*
X5972302Y7197090D01*
X5972302Y7194397D01*
X5973775Y7192162D01*
X6214516Y7310374D01*
G37*
G36*
X5975502Y7180122D02*
G01*
X5979210Y7151928D01*
X5980379Y7129780D01*
X5985713Y7130948D01*
X6154470Y7172248D01*
X6155436Y7173163D01*
X6142583Y7173315D01*
G37*
G36*
X5174691Y7178395D02*
G01*
X4996281Y7173163D01*
X4996992Y7172452D01*
X5168595Y7128916D01*
X5171592Y7128002D01*
X5171592Y7136942D01*
X5173522Y7158024D01*
X5176418Y7178395D01*
G37*
G36*
X5981192Y7102144D02*
G01*
X5980023Y7081774D01*
X5978347Y7063536D01*
X5975604Y7044486D01*
X5971438Y7023811D01*
X5971844Y7023557D01*
X6232702Y7033564D01*
X6242202Y7034123D01*
X5983122Y7101992D01*
G37*
G36*
X5185918Y7088225D02*
G01*
X5128717Y7086549D01*
X5092293Y7083907D01*
X5065471Y7081215D01*
X5034280Y7076948D01*
X5020513Y7074357D01*
X5020157Y7073950D01*
X5033518Y7038441D01*
X5046624Y7007250D01*
X5059934Y6977786D01*
X5083149Y6930999D01*
X5100320Y6899605D01*
X5117338Y6870344D01*
X5135981Y6840524D01*
X5153660Y6814058D01*
X5169306Y6792315D01*
X5184952Y6771538D01*
X5202377Y6749846D01*
X5224221Y6724650D01*
X5251907Y6695287D01*
X5281218Y6668160D01*
X5305247Y6647992D01*
X5332628Y6627418D01*
X5357469Y6611010D01*
X5374792Y6600647D01*
X5396484Y6588810D01*
X5416397Y6579412D01*
X5438698Y6570014D01*
X5459882Y6562344D01*
X5485739Y6554673D01*
X5512612Y6548475D01*
X5533390Y6544868D01*
X5562854Y6541312D01*
X5614009Y6540398D01*
X5643422Y6542430D01*
X5670296Y6545834D01*
X5698896Y6551066D01*
X5730087Y6558686D01*
X5753506Y6565595D01*
X5945022Y6557213D01*
X5938062Y6560312D01*
X5527802Y6713372D01*
X5528360Y6713931D01*
X5577586Y6725310D01*
X5578094Y6725869D01*
X5572404Y6729272D01*
X5337556Y6859727D01*
X5335320Y6861759D01*
X5377383Y6869125D01*
X5381040Y6870344D01*
X5202580Y6992518D01*
X5198922Y6995566D01*
X5523839Y6872376D01*
X5526227Y6871004D01*
X5490514Y6858406D01*
X5490514Y6857339D01*
X5729681Y6736232D01*
X5730392Y6735064D01*
X5690209Y6730187D01*
X5683707Y6729069D01*
X5840730Y6636359D01*
X5842660Y6636359D01*
X5844794Y6646773D01*
X5847943Y6670141D01*
X5847943Y6722160D01*
X5845708Y6740347D01*
X5842203Y6761124D01*
X5836412Y6785406D01*
X5829960Y6805320D01*
X5821680Y6826148D01*
X5813145Y6844334D01*
X5801360Y6865112D01*
X5785002Y6889292D01*
X5768695Y6909562D01*
X5746546Y6932574D01*
X5728716Y6948678D01*
X5711037Y6962851D01*
X5688482Y6978853D01*
X5667705Y6991858D01*
X5645912Y7003999D01*
X5626100Y7013956D01*
X5603849Y7024166D01*
X5575858Y7035292D01*
X5549900Y7044131D01*
X5516930Y7053529D01*
X5497880Y7058050D01*
X5464759Y7064756D01*
X5424220Y7070902D01*
X5376519Y7076897D01*
X5333238Y7081266D01*
X5288178Y7084720D01*
X5253482Y7086701D01*
X5207558Y7087971D01*
G37*
G36*
X5968238Y7011162D02*
G01*
X5964275Y6995972D01*
X5953353Y6963918D01*
X5953709Y6963562D01*
X6126988Y6932269D01*
X6130188Y6931507D01*
X6129121Y6932574D01*
X5970117Y7011009D01*
G37*
G36*
X5941974Y6938365D02*
G01*
X5931763Y6917994D01*
X5923229Y6903262D01*
X5912256Y6885990D01*
X5902096Y6871766D01*
X5902147Y6870344D01*
X6152997Y6770014D01*
X5942431Y6938365D01*
G37*
G36*
X5894273Y6860336D02*
G01*
X5893003Y6860235D01*
X5881725Y6846265D01*
X5860237Y6823862D01*
X5862675Y6821474D01*
X6008065Y6722516D01*
X6008522Y6723024D01*
G37*
G36*
X6743090Y6459067D02*
G01*
X6717944Y6458458D01*
X6705193Y6455664D01*
X6691985Y6451142D01*
X6681571Y6445961D01*
X6667601Y6436715D01*
X6655104Y6425184D01*
X6643827Y6410198D01*
X6635902Y6394856D01*
X6630974Y6380276D01*
X6628028Y6362700D01*
X6628677Y6345885D01*
X6648856Y6345885D01*
X6649720Y6370320D01*
X6653326Y6383832D01*
X6660134Y6398260D01*
X6667601Y6409283D01*
X6679031Y6420662D01*
X6690004Y6428181D01*
X6704482Y6434937D01*
X6717944Y6438544D01*
X6743090Y6439204D01*
X6757822Y6436004D01*
X6771030Y6430467D01*
X6780987Y6424472D01*
X6792264Y6415379D01*
X6802374Y6402832D01*
X6808571Y6391706D01*
X6813753Y6377584D01*
X6816496Y6361633D01*
X6815581Y6340856D01*
X6811924Y6326225D01*
X6804355Y6310223D01*
X6798818Y6302197D01*
X6788403Y6291021D01*
X6777736Y6282994D01*
X6760413Y6274714D01*
X6745681Y6271158D01*
X6730949Y6270040D01*
X6714490Y6272174D01*
X6700621Y6276492D01*
X6688480Y6282588D01*
X6678117Y6289954D01*
X6665772Y6302908D01*
X6656933Y6317234D01*
X6651752Y6331661D01*
X6648856Y6345885D01*
X6628677Y6345885D01*
X6628993Y6338265D01*
X6633413Y6321298D01*
X6640271Y6305702D01*
X6651498Y6288887D01*
X6664147Y6276035D01*
X6678015Y6265773D01*
X6697167Y6256375D01*
X6713829Y6252159D01*
X6731812Y6250178D01*
X6744817Y6251244D01*
X6758787Y6253734D01*
X6773722Y6258814D01*
X6788099Y6266281D01*
X6801256Y6276035D01*
X6813905Y6288887D01*
X6824878Y6305346D01*
X6830110Y6317030D01*
X6834530Y6331051D01*
X6837273Y6347815D01*
X6836359Y6370320D01*
X6831228Y6390538D01*
X6824116Y6405676D01*
X6814667Y6419799D01*
X6803136Y6432296D01*
X6788150Y6443573D01*
X6773265Y6451295D01*
X6757568Y6456527D01*
G37*
G36*
X5970981Y6459067D02*
G01*
X5949340Y6458356D01*
X5934964Y6454800D01*
X5919876Y6448602D01*
X5906312Y6440525D01*
X5892850Y6429908D01*
X5888939Y6423558D01*
X5888939Y6417310D01*
X5892241Y6412890D01*
X5897118Y6411264D01*
X5903722Y6413246D01*
X5912916Y6420713D01*
X5923330Y6427724D01*
X5932881Y6432550D01*
X5944616Y6436512D01*
X5958586Y6438595D01*
X5980531Y6437630D01*
X5991809Y6434683D01*
X6004153Y6429044D01*
X6015177Y6421577D01*
X6027369Y6409334D01*
X6037224Y6394500D01*
X6042609Y6381851D01*
X6046063Y6368592D01*
X6047079Y6350254D01*
X6044946Y6335725D01*
X6040526Y6321806D01*
X6034481Y6309664D01*
X6027115Y6299250D01*
X6013450Y6286246D01*
X6000445Y6278118D01*
X5987440Y6272987D01*
X5971844Y6270040D01*
X5949340Y6270955D01*
X5934811Y6274612D01*
X5920333Y6281369D01*
X5910275Y6288430D01*
X5907430Y6293256D01*
X5906973Y6299250D01*
X5907278Y6330035D01*
X5951575Y6330035D01*
X5957468Y6332474D01*
X5960160Y6337757D01*
X5960160Y6341364D01*
X5957722Y6346139D01*
X5952947Y6348679D01*
X5894679Y6348679D01*
X5889802Y6345478D01*
X5887364Y6339636D01*
X5887364Y6286652D01*
X5889802Y6280861D01*
X5897067Y6274155D01*
X5910732Y6264351D01*
X5926785Y6256477D01*
X5941517Y6252210D01*
X5955030Y6250076D01*
X5981395Y6251041D01*
X5998718Y6255359D01*
X6012789Y6261303D01*
X6028029Y6271260D01*
X6043015Y6286246D01*
X6054598Y6303721D01*
X6060490Y6316573D01*
X6065113Y6331305D01*
X6067806Y6348679D01*
X6066891Y6368592D01*
X6064097Y6381597D01*
X6060389Y6392875D01*
X6055360Y6404102D01*
X6044336Y6420662D01*
X6032500Y6432753D01*
X6022136Y6440678D01*
X6009894Y6447891D01*
X5994958Y6453886D01*
X5981344Y6457442D01*
G37*
G36*
X5106009Y6455664D02*
G01*
X5100116Y6451701D01*
X5098440Y6445097D01*
X5101844Y6438798D01*
X5107889Y6436715D01*
X5218379Y6436614D01*
X5218379Y6364681D01*
X5131104Y6364681D01*
X5126685Y6361176D01*
X5124704Y6355283D01*
X5127244Y6349238D01*
X5132120Y6346037D01*
X5218379Y6345580D01*
X5218379Y6271971D01*
X5111394Y6271920D01*
X5103622Y6270396D01*
X5098643Y6264808D01*
X5099558Y6257645D01*
X5104790Y6253022D01*
X5112258Y6251956D01*
X5231841Y6252464D01*
X5237226Y6255410D01*
X5239613Y6261150D01*
X5239613Y6447434D01*
X5237226Y6453174D01*
X5232704Y6455613D01*
G37*
G36*
X4582769Y6405321D02*
G01*
X4566564Y6404457D01*
X4554067Y6401206D01*
X4542942Y6396532D01*
X4530801Y6388760D01*
X4516932Y6374485D01*
X4511141Y6364833D01*
X4505350Y6351270D01*
X4502607Y6337909D01*
X4502607Y6320028D01*
X4519117Y6320028D01*
X4519117Y6337401D01*
X4521758Y6348679D01*
X4528972Y6363411D01*
X4543806Y6378244D01*
X4558538Y6385458D01*
X4568901Y6388100D01*
X4582769Y6388912D01*
X4594910Y6386525D01*
X4602429Y6383782D01*
X4613097Y6378143D01*
X4626965Y6364274D01*
X4632756Y6354419D01*
X4637227Y6341719D01*
X4638040Y6322415D01*
X4635093Y6309156D01*
X4628388Y6295796D01*
X4620920Y6287008D01*
X4611928Y6279540D01*
X4603597Y6274562D01*
X4589729Y6269888D01*
X4567174Y6269888D01*
X4553305Y6274714D01*
X4544669Y6279692D01*
X4535982Y6286855D01*
X4528616Y6295796D01*
X4522673Y6307074D01*
X4519117Y6320028D01*
X4502607Y6320028D01*
X4502607Y6254800D01*
X4505045Y6242050D01*
X4509566Y6230162D01*
X4517440Y6218326D01*
X4526280Y6210350D01*
X4536084Y6204661D01*
X4547260Y6200190D01*
X4561992Y6197041D01*
X4591456Y6197041D01*
X4606188Y6200190D01*
X4619498Y6204559D01*
X4633925Y6211722D01*
X4637176Y6217513D01*
X4635195Y6224117D01*
X4630928Y6226911D01*
X4624730Y6226911D01*
X4616602Y6222796D01*
X4601464Y6217462D01*
X4586224Y6214567D01*
X4561128Y6215430D01*
X4550714Y6218275D01*
X4539437Y6223762D01*
X4528921Y6234277D01*
X4524349Y6243828D01*
X4521606Y6254191D01*
X4520590Y6279337D01*
X4531664Y6268821D01*
X4539437Y6263538D01*
X4550206Y6258102D01*
X4565446Y6253480D01*
X4590592Y6253480D01*
X4604461Y6257290D01*
X4617313Y6263335D01*
X4627829Y6270904D01*
X4638497Y6282029D01*
X4646472Y6294374D01*
X4651552Y6307074D01*
X4654499Y6321653D01*
X4653534Y6343446D01*
X4650638Y6353860D01*
X4643882Y6368338D01*
X4635093Y6380226D01*
X4625492Y6389014D01*
X4618075Y6394094D01*
X4606188Y6400038D01*
X4593945Y6403746D01*
G37*
G36*
X6518148Y6402832D02*
G01*
X6504787Y6400088D01*
X6490563Y6394348D01*
X6478270Y6386169D01*
X6467094Y6374993D01*
X6459931Y6364478D01*
X6454343Y6352133D01*
X6451447Y6341364D01*
X6449771Y6327038D01*
X6450416Y6321552D01*
X6471208Y6321552D01*
X6472072Y6338265D01*
X6476746Y6352133D01*
X6482740Y6361988D01*
X6492951Y6372098D01*
X6503924Y6378600D01*
X6517081Y6382766D01*
X6531660Y6383680D01*
X6544614Y6381242D01*
X6560464Y6373368D01*
X6572402Y6361480D01*
X6578142Y6351828D01*
X6582613Y6339128D01*
X6583425Y6321348D01*
X6581343Y6310528D01*
X6577685Y6301841D01*
X6570929Y6291072D01*
X6559448Y6280556D01*
X6545529Y6273647D01*
X6533388Y6271107D01*
X6522466Y6271107D01*
X6509105Y6273800D01*
X6494373Y6281013D01*
X6481267Y6294069D01*
X6474155Y6308293D01*
X6471208Y6321552D01*
X6450416Y6321552D01*
X6451549Y6311493D01*
X6456781Y6295796D01*
X6464046Y6282944D01*
X6477863Y6268313D01*
X6487972Y6261455D01*
X6500469Y6255512D01*
X6514338Y6251854D01*
X6538569Y6251651D01*
X6553301Y6255613D01*
X6567728Y6262776D01*
X6582359Y6274511D01*
X6582359Y6208674D01*
X6584746Y6202934D01*
X6589522Y6199174D01*
X6594652Y6199174D01*
X6600342Y6201867D01*
X6603238Y6207404D01*
X6602679Y6339992D01*
X6597954Y6355232D01*
X6592519Y6366002D01*
X6586016Y6375501D01*
X6574129Y6386880D01*
X6566306Y6392214D01*
X6555892Y6397396D01*
X6547053Y6400292D01*
X6535978Y6402679D01*
G37*
G36*
X6188405Y6402832D02*
G01*
X6178092Y6400952D01*
X6164834Y6395821D01*
X6154064Y6388862D01*
X6144514Y6379870D01*
X6136894Y6369202D01*
X6131052Y6356451D01*
X6128258Y6345783D01*
X6126581Y6325260D01*
X6126581Y6263741D01*
X6128207Y6256782D01*
X6132626Y6252972D01*
X6138519Y6251854D01*
X6144818Y6254851D01*
X6147358Y6259728D01*
X6147409Y6332169D01*
X6149086Y6345174D01*
X6152642Y6355943D01*
X6159144Y6366002D01*
X6168339Y6374942D01*
X6178245Y6380226D01*
X6188456Y6382867D01*
X6202984Y6382867D01*
X6213652Y6380175D01*
X6224879Y6374688D01*
X6237274Y6362395D01*
X6243574Y6349187D01*
X6246114Y6337401D01*
X6246114Y6260541D01*
X6248857Y6254750D01*
X6254597Y6252057D01*
X6258864Y6252057D01*
X6264706Y6255969D01*
X6266942Y6260287D01*
X6266383Y6343446D01*
X6262573Y6357315D01*
X6257544Y6368034D01*
X6250635Y6378194D01*
X6240373Y6387744D01*
X6230112Y6394551D01*
X6216700Y6400342D01*
X6205829Y6402679D01*
G37*
G36*
X5001006Y6402832D02*
G01*
X4987950Y6401003D01*
X4975504Y6396736D01*
X4965801Y6391351D01*
X4954117Y6381953D01*
X4945278Y6370320D01*
X4938623Y6356451D01*
X4935931Y6345834D01*
X4934204Y6329578D01*
X4934153Y6260642D01*
X4936642Y6254750D01*
X4941874Y6252057D01*
X4948885Y6252057D01*
X4954524Y6257086D01*
X4955540Y6340856D01*
X4958588Y6351117D01*
X4964684Y6363309D01*
X4975606Y6374231D01*
X4990185Y6381242D01*
X5005679Y6383172D01*
X5019548Y6380327D01*
X5032451Y6373977D01*
X5044643Y6361633D01*
X5050332Y6350355D01*
X5053177Y6340856D01*
X5054193Y6257086D01*
X5059832Y6252057D01*
X5066842Y6252057D01*
X5071719Y6254546D01*
X5074564Y6260541D01*
X5074513Y6331305D01*
X5072837Y6346037D01*
X5070195Y6356451D01*
X5062169Y6372910D01*
X5045506Y6389370D01*
X5029911Y6397498D01*
X5018684Y6401104D01*
X5008270Y6402628D01*
G37*
G36*
X6365290Y6402781D02*
G01*
X6343599Y6402120D01*
X6331458Y6398310D01*
X6320028Y6392316D01*
X6309868Y6384137D01*
X6299708Y6372047D01*
X6292189Y6356451D01*
X6289344Y6345174D01*
X6288974Y6337808D01*
X6306616Y6337808D01*
X6307836Y6345174D01*
X6311138Y6355842D01*
X6318199Y6366408D01*
X6327140Y6374282D01*
X6339281Y6380276D01*
X6349593Y6382867D01*
X6365290Y6382766D01*
X6374790Y6380276D01*
X6387642Y6373977D01*
X6400088Y6361633D01*
X6406286Y6350406D01*
X6408826Y6342583D01*
X6409944Y6337808D01*
X6288974Y6337808D01*
X6288481Y6326987D01*
X6291630Y6320942D01*
X6295948Y6318808D01*
X6409893Y6318758D01*
X6409893Y6315405D01*
X6405575Y6301740D01*
X6398768Y6291173D01*
X6392468Y6284214D01*
X6380835Y6276289D01*
X6367932Y6271768D01*
X6351422Y6270955D01*
X6338570Y6273647D01*
X6327292Y6278930D01*
X6314694Y6288582D01*
X6307683Y6289548D01*
X6301587Y6283401D01*
X6301587Y6278575D01*
X6305296Y6270955D01*
X6316726Y6261455D01*
X6330594Y6254800D01*
X6341872Y6251905D01*
X6365341Y6250940D01*
X6379819Y6253886D01*
X6391249Y6258458D01*
X6406286Y6268516D01*
X6417259Y6280454D01*
X6423202Y6290310D01*
X6428943Y6305550D01*
X6431584Y6320739D01*
X6431584Y6335928D01*
X6429095Y6348679D01*
X6425488Y6358940D01*
X6419291Y6370218D01*
X6411874Y6379870D01*
X6403390Y6387744D01*
X6395618Y6393078D01*
X6386931Y6397396D01*
X6377686Y6400393D01*
G37*
G36*
X4836668Y6402425D02*
G01*
X4826304Y6401816D01*
X4812842Y6398564D01*
X4801971Y6393383D01*
X4790592Y6384747D01*
X4782413Y6375501D01*
X4774438Y6362801D01*
X4769662Y6348526D01*
X4768424Y6337808D01*
X4786630Y6337808D01*
X4787595Y6346088D01*
X4791354Y6356197D01*
X4798669Y6366865D01*
X4808931Y6375196D01*
X4819345Y6380073D01*
X4827168Y6381902D01*
X4840122Y6382816D01*
X4853076Y6380378D01*
X4867808Y6373063D01*
X4880051Y6360718D01*
X4886350Y6348679D01*
X4889093Y6339230D01*
X4889093Y6337808D01*
X4768424Y6337808D01*
X4767630Y6330899D01*
X4769713Y6322212D01*
X4774082Y6318758D01*
X4888992Y6318758D01*
X4889804Y6317488D01*
X4886655Y6305092D01*
X4881473Y6294932D01*
X4872990Y6284518D01*
X4860544Y6275578D01*
X4849672Y6271971D01*
X4836414Y6270294D01*
X4821783Y6271971D01*
X4814874Y6274358D01*
X4805984Y6278880D01*
X4796688Y6286500D01*
X4793030Y6288430D01*
X4786985Y6288430D01*
X4781854Y6284112D01*
X4780940Y6279337D01*
X4784344Y6271514D01*
X4789017Y6266586D01*
X4799634Y6258966D01*
X4809642Y6254546D01*
X4824577Y6250838D01*
X4849672Y6250787D01*
X4863185Y6254648D01*
X4875682Y6260896D01*
X4886248Y6268415D01*
X4897323Y6280404D01*
X4905451Y6295796D01*
X4909820Y6310934D01*
X4911598Y6327851D01*
X4909972Y6343548D01*
X4906264Y6355588D01*
X4901031Y6366002D01*
X4894884Y6375247D01*
X4886248Y6384747D01*
X4875377Y6392468D01*
X4862677Y6398310D01*
X4851400Y6401257D01*
G37*
G36*
X5683148Y6401968D02*
G01*
X5669432Y6398463D01*
X5657291Y6392722D01*
X5646928Y6384442D01*
X5640324Y6377228D01*
X5633262Y6367068D01*
X5628233Y6355994D01*
X5624830Y6341719D01*
X5624830Y6336944D01*
X5643016Y6336944D01*
X5643016Y6341973D01*
X5646623Y6353860D01*
X5651144Y6361633D01*
X5659882Y6371031D01*
X5670143Y6377686D01*
X5683300Y6381800D01*
X5694578Y6382664D01*
X5704941Y6381292D01*
X5713628Y6378397D01*
X5723534Y6373164D01*
X5733796Y6363817D01*
X5740247Y6354165D01*
X5744362Y6344056D01*
X5745480Y6336944D01*
X5624830Y6336944D01*
X5624830Y6325616D01*
X5627420Y6320536D01*
X5631332Y6318351D01*
X5746140Y6317742D01*
X5745124Y6313119D01*
X5742533Y6303619D01*
X5736285Y6292342D01*
X5723178Y6279134D01*
X5710174Y6272987D01*
X5696813Y6270244D01*
X5688482Y6270294D01*
X5674918Y6272733D01*
X5662523Y6278626D01*
X5652973Y6286398D01*
X5649163Y6288430D01*
X5642864Y6288430D01*
X5637784Y6283350D01*
X5637784Y6276644D01*
X5642914Y6268618D01*
X5652973Y6260642D01*
X5665114Y6254648D01*
X5678982Y6250940D01*
X5706719Y6250787D01*
X5717946Y6253937D01*
X5730697Y6259779D01*
X5741822Y6267754D01*
X5750712Y6276644D01*
X5759043Y6289395D01*
X5764123Y6302756D01*
X5767324Y6316573D01*
X5767273Y6339128D01*
X5764276Y6350406D01*
X5760567Y6359906D01*
X5752795Y6373215D01*
X5742482Y6384645D01*
X5731814Y6392214D01*
X5723178Y6396532D01*
X5711901Y6400139D01*
X5703214Y6401765D01*
G37*
G36*
X5522976Y6401917D02*
G01*
X5508701Y6398514D01*
X5497017Y6392621D01*
X5486044Y6384391D01*
X5475630Y6372047D01*
X5467197Y6354724D01*
X5464606Y6341719D01*
X5464065Y6336944D01*
X5482691Y6336944D01*
X5482691Y6342837D01*
X5486146Y6353962D01*
X5492800Y6364274D01*
X5502046Y6373266D01*
X5513476Y6379260D01*
X5522874Y6382004D01*
X5541213Y6381902D01*
X5550712Y6379362D01*
X5559399Y6375349D01*
X5570118Y6367221D01*
X5578195Y6356502D01*
X5582158Y6348679D01*
X5584952Y6339230D01*
X5584952Y6336944D01*
X5464065Y6336944D01*
X5463540Y6331813D01*
X5464708Y6323736D01*
X5469534Y6318351D01*
X5585612Y6317691D01*
X5583224Y6307074D01*
X5576417Y6293205D01*
X5566714Y6282486D01*
X5555945Y6275374D01*
X5542076Y6270802D01*
X5521248Y6270802D01*
X5507380Y6275527D01*
X5496102Y6283198D01*
X5490565Y6287719D01*
X5483606Y6288633D01*
X5479084Y6285687D01*
X5476849Y6280404D01*
X5478627Y6273292D01*
X5490311Y6261760D01*
X5504789Y6254648D01*
X5518658Y6251092D01*
X5538063Y6250076D01*
X5551576Y6252210D01*
X5565597Y6257290D01*
X5581040Y6267348D01*
X5592572Y6279642D01*
X5599480Y6291478D01*
X5603900Y6303822D01*
X5606796Y6317488D01*
X5606796Y6337401D01*
X5604154Y6349746D01*
X5598617Y6363004D01*
X5589930Y6376365D01*
X5578246Y6387896D01*
X5565800Y6395262D01*
X5554167Y6399530D01*
X5542940Y6401765D01*
G37*
G36*
X5362702Y6401917D02*
G01*
X5351068Y6399479D01*
X5340553Y6395212D01*
X5330698Y6389370D01*
X5316575Y6375501D01*
X5309260Y6363055D01*
X5304840Y6350457D01*
X5302453Y6335674D01*
X5302453Y6258356D01*
X5306212Y6253581D01*
X5312003Y6251143D01*
X5316728Y6252311D01*
X5320893Y6255004D01*
X5323230Y6260642D01*
X5323230Y6335928D01*
X5325821Y6349492D01*
X5331917Y6362293D01*
X5344464Y6374841D01*
X5353151Y6379210D01*
X5362549Y6382004D01*
X5379212Y6382004D01*
X5389118Y6379464D01*
X5399176Y6374384D01*
X5407964Y6367424D01*
X5416651Y6354419D01*
X5420410Y6343192D01*
X5421985Y6327851D01*
X5422036Y6258864D01*
X5424678Y6253835D01*
X5427675Y6252210D01*
X5431993Y6251854D01*
X5436057Y6252057D01*
X5441950Y6257950D01*
X5441950Y6338519D01*
X5439511Y6351422D01*
X5434431Y6364478D01*
X5426506Y6376365D01*
X5415534Y6387236D01*
X5406136Y6393535D01*
X5395061Y6398564D01*
X5381752Y6401816D01*
G37*
G36*
X4347006Y6401257D02*
G01*
X4340606Y6398615D01*
X4337050Y6392875D01*
X4337659Y6310528D01*
X4341418Y6296660D01*
X4349191Y6281064D01*
X4359452Y6268770D01*
X4371340Y6259880D01*
X4382058Y6254597D01*
X4396841Y6250787D01*
X4397349Y6205372D01*
X4400956Y6200495D01*
X4407560Y6198260D01*
X4413097Y6200089D01*
X4417263Y6204508D01*
X4417771Y6251143D01*
X4422495Y6252159D01*
X4433722Y6255664D01*
X4447184Y6262624D01*
X4459376Y6273952D01*
X4466894Y6284518D01*
X4472076Y6294932D01*
X4475632Y6306413D01*
X4477613Y6323533D01*
X4477054Y6393738D01*
X4473956Y6398310D01*
X4468418Y6401104D01*
X4462424Y6400292D01*
X4457141Y6395008D01*
X4456125Y6312255D01*
X4453077Y6301841D01*
X4447590Y6291529D01*
X4438091Y6281216D01*
X4427778Y6274562D01*
X4417263Y6271310D01*
X4405122Y6270142D01*
X4390440Y6272784D01*
X4378045Y6278880D01*
X4366768Y6290868D01*
X4361434Y6301841D01*
X4358487Y6312255D01*
X4357471Y6394856D01*
X4353255Y6399377D01*
G37*
G36*
X4671161Y6400952D02*
G01*
X4663033Y6400292D01*
X4658055Y6397752D01*
X4656023Y6393230D01*
X4656023Y6387998D01*
X4658614Y6382918D01*
X4663389Y6380480D01*
X4681880Y6378498D01*
X4691989Y6375908D01*
X4704435Y6369812D01*
X4713630Y6361430D01*
X4720183Y6350406D01*
X4724603Y6336538D01*
X4726127Y6308801D01*
X4726178Y6258814D01*
X4732070Y6252921D01*
X4740249Y6252921D01*
X4746142Y6258814D01*
X4746345Y6331305D01*
X4744313Y6345529D01*
X4741773Y6355588D01*
X4734052Y6371336D01*
X4722469Y6383883D01*
X4712157Y6390894D01*
X4700981Y6395923D01*
X4685893Y6399530D01*
G37*
G36*
X5784697Y6400850D02*
G01*
X5777738Y6400038D01*
X5774283Y6398260D01*
X5771286Y6394602D01*
X5771235Y6386576D01*
X5774842Y6382004D01*
X5777839Y6380429D01*
X5795975Y6378498D01*
X5807049Y6375755D01*
X5815025Y6372250D01*
X5825794Y6364630D01*
X5833719Y6353505D01*
X5837834Y6343446D01*
X5840577Y6330086D01*
X5840577Y6264605D01*
X5841695Y6258001D01*
X5846775Y6252921D01*
X5854903Y6252921D01*
X5858764Y6255613D01*
X5861456Y6260744D01*
X5861405Y6330442D01*
X5859729Y6343548D01*
X5857900Y6351625D01*
X5853531Y6363258D01*
X5848146Y6372047D01*
X5840425Y6381140D01*
X5830366Y6388912D01*
X5818479Y6394856D01*
X5807202Y6398260D01*
X5791606Y6400241D01*
G37*
D10*
X7213600Y6067963D02*
G01*
X7180872Y5953417D01*
X7148146Y6067963D02*
G01*
X7180872Y5953417D01*
X7148146Y6067963D02*
G01*
X7115418Y5953417D01*
X7082690Y6067963D02*
G01*
X7115418Y5953417D01*
X7028690Y6067963D02*
G01*
X6995965Y5953417D01*
X6963237Y6067963D02*
G01*
X6995965Y5953417D01*
X6963237Y6067963D02*
G01*
X6930509Y5953417D01*
X6897781Y6067963D02*
G01*
X6930509Y5953417D01*
X6843783Y6067963D02*
G01*
X6811055Y5953417D01*
X6778327Y6067963D02*
G01*
X6811055Y5953417D01*
X6778327Y6067963D02*
G01*
X6745599Y5953417D01*
X6712874Y6067963D02*
G01*
X6745599Y5953417D01*
X6650692Y5994326D02*
G01*
X6658874Y5986145D01*
X6650692Y5977963D01*
X6642511Y5986145D01*
X6650692Y5994326D01*
X6547601Y6067963D02*
G01*
X6563964Y6059782D01*
X6580329Y6043416D01*
X6588511Y6018872D01*
X6588511Y6002510D01*
X6580329Y5977963D01*
X6563964Y5961600D01*
X6547601Y5953417D01*
X6523055Y5953417D01*
X6506692Y5961600D01*
X6490329Y5977963D01*
X6482146Y6002510D01*
X6482146Y6018872D01*
X6490329Y6043416D01*
X6506692Y6059782D01*
X6523055Y6067963D01*
X6547601Y6067963D01*
X6428148Y6067963D02*
G01*
X6428148Y5896145D01*
X6428148Y6043416D02*
G01*
X6411782Y6059782D01*
X6395420Y6067963D01*
X6370873Y6067963D01*
X6354511Y6059782D01*
X6338148Y6043416D01*
X6329964Y6018872D01*
X6329964Y6002510D01*
X6338148Y5977963D01*
X6354511Y5961600D01*
X6370873Y5953417D01*
X6395420Y5953417D01*
X6411782Y5961600D01*
X6428148Y5977963D01*
X6275966Y6018872D02*
G01*
X6177782Y6018872D01*
X6177782Y6035235D01*
X6185966Y6051600D01*
X6194148Y6059782D01*
X6210510Y6067963D01*
X6235057Y6067963D01*
X6251420Y6059782D01*
X6267782Y6043416D01*
X6275966Y6018872D01*
X6275966Y6002510D01*
X6267782Y5977963D01*
X6251420Y5961600D01*
X6235057Y5953417D01*
X6210510Y5953417D01*
X6194148Y5961600D01*
X6177782Y5977963D01*
X6123785Y6067963D02*
G01*
X6123785Y5953417D01*
X6123785Y6035235D02*
G01*
X6099238Y6059782D01*
X6082875Y6067963D01*
X6058329Y6067963D01*
X6041966Y6059782D01*
X6033785Y6035235D01*
X6033785Y5953417D01*
X5881603Y6067963D02*
G01*
X5881603Y5937054D01*
X5889785Y5912510D01*
X5897966Y5904326D01*
X5914329Y5896145D01*
X5938875Y5896145D01*
X5955238Y5904326D01*
X5881603Y6043416D02*
G01*
X5897966Y6059782D01*
X5914329Y6067963D01*
X5938875Y6067963D01*
X5955238Y6059782D01*
X5971603Y6043416D01*
X5979784Y6018872D01*
X5979784Y6002510D01*
X5971603Y5977963D01*
X5955238Y5961600D01*
X5938875Y5953417D01*
X5914329Y5953417D01*
X5897966Y5961600D01*
X5881603Y5977963D01*
X5827603Y6067963D02*
G01*
X5827603Y5953417D01*
X5827603Y6018872D02*
G01*
X5819421Y6043416D01*
X5803056Y6059782D01*
X5786694Y6067963D01*
X5762147Y6067963D01*
X5708149Y6018872D02*
G01*
X5609965Y6018872D01*
X5609965Y6035235D01*
X5618149Y6051600D01*
X5626331Y6059782D01*
X5642693Y6067963D01*
X5667240Y6067963D01*
X5683603Y6059782D01*
X5699965Y6043416D01*
X5708149Y6018872D01*
X5708149Y6002510D01*
X5699965Y5977963D01*
X5683603Y5961600D01*
X5667240Y5953417D01*
X5642693Y5953417D01*
X5626331Y5961600D01*
X5609965Y5977963D01*
X5555968Y6018872D02*
G01*
X5457784Y6018872D01*
X5457784Y6035235D01*
X5465968Y6051600D01*
X5474149Y6059782D01*
X5490512Y6067963D01*
X5515058Y6067963D01*
X5531421Y6059782D01*
X5547784Y6043416D01*
X5555968Y6018872D01*
X5555968Y6002510D01*
X5547784Y5977963D01*
X5531421Y5961600D01*
X5515058Y5953417D01*
X5490512Y5953417D01*
X5474149Y5961600D01*
X5457784Y5977963D01*
X5403786Y6067963D02*
G01*
X5403786Y5953417D01*
X5403786Y6035235D02*
G01*
X5379239Y6059782D01*
X5362877Y6067963D01*
X5338330Y6067963D01*
X5321968Y6059782D01*
X5313786Y6035235D01*
X5313786Y5953417D01*
X5259786Y6018872D02*
G01*
X5161605Y6018872D01*
X5161605Y6035235D01*
X5169786Y6051600D01*
X5177967Y6059782D01*
X5194330Y6067963D01*
X5218877Y6067963D01*
X5235239Y6059782D01*
X5251604Y6043416D01*
X5259786Y6018872D01*
X5259786Y6002510D01*
X5251604Y5977963D01*
X5235239Y5961600D01*
X5218877Y5953417D01*
X5194330Y5953417D01*
X5177967Y5961600D01*
X5161605Y5977963D01*
X5107604Y6067963D02*
G01*
X5107604Y5953417D01*
X5107604Y6035235D02*
G01*
X5083058Y6059782D01*
X5066695Y6067963D01*
X5042148Y6067963D01*
X5025786Y6059782D01*
X5017604Y6035235D01*
X5017604Y5953417D01*
X4963604Y6018872D02*
G01*
X4865423Y6018872D01*
X4865423Y6035235D01*
X4873604Y6051600D01*
X4881786Y6059782D01*
X4898151Y6067963D01*
X4922695Y6067963D01*
X4939057Y6059782D01*
X4955423Y6043416D01*
X4963604Y6018872D01*
X4963604Y6002510D01*
X4955423Y5977963D01*
X4939057Y5961600D01*
X4922695Y5953417D01*
X4898151Y5953417D01*
X4881786Y5961600D01*
X4865423Y5977963D01*
X4811422Y6067963D02*
G01*
X4811422Y5953417D01*
X4811422Y6018872D02*
G01*
X4803241Y6043416D01*
X4786876Y6059782D01*
X4770513Y6067963D01*
X4745969Y6067963D01*
X4593788Y6067963D02*
G01*
X4593788Y5937054D01*
X4601969Y5912510D01*
X4610150Y5904326D01*
X4626513Y5896145D01*
X4651060Y5896145D01*
X4667422Y5904326D01*
X4593788Y6043416D02*
G01*
X4610150Y6059782D01*
X4626513Y6067963D01*
X4651060Y6067963D01*
X4667422Y6059782D01*
X4683787Y6043416D01*
X4691969Y6018872D01*
X4691969Y6002510D01*
X4683787Y5977963D01*
X4667422Y5961600D01*
X4651060Y5953417D01*
X4626513Y5953417D01*
X4610150Y5961600D01*
X4593788Y5977963D01*
X4531606Y6067963D02*
G01*
X4482515Y5953417D01*
X4433422Y6067963D02*
G01*
X4482515Y5953417D01*
X4498878Y5920691D01*
X4515241Y5904326D01*
X4531606Y5896145D01*
X4539787Y5896145D01*
X4371240Y5994326D02*
G01*
X4379424Y5986145D01*
X4371240Y5977963D01*
X4363059Y5986145D01*
X4371240Y5994326D01*
X4210878Y6043416D02*
G01*
X4227243Y6059782D01*
X4243605Y6067963D01*
X4268152Y6067963D01*
X4284515Y6059782D01*
X4300877Y6043416D01*
X4309059Y6018872D01*
X4309059Y6002510D01*
X4300877Y5977963D01*
X4284515Y5961600D01*
X4268152Y5953417D01*
X4243605Y5953417D01*
X4227243Y5961600D01*
X4210878Y5977963D01*
X4115970Y6067963D02*
G01*
X4132333Y6059782D01*
X4148696Y6043416D01*
X4156877Y6018872D01*
X4156877Y6002510D01*
X4148696Y5977963D01*
X4132333Y5961600D01*
X4115970Y5953417D01*
X4091424Y5953417D01*
X4075061Y5961600D01*
X4058696Y5977963D01*
X4050515Y6002510D01*
X4050515Y6018872D01*
X4058696Y6043416D01*
X4075061Y6059782D01*
X4091424Y6067963D01*
X4115970Y6067963D01*
X3996514Y6067963D02*
G01*
X3996514Y5953417D01*
X3996514Y6035235D02*
G01*
X3971970Y6059782D01*
X3955605Y6067963D01*
X3931061Y6067963D01*
X3914696Y6059782D01*
X3906514Y6035235D01*
X3906514Y5953417D01*
X3906514Y6035235D02*
G01*
X3881970Y6059782D01*
X3865605Y6067963D01*
X3841061Y6067963D01*
X3824696Y6059782D01*
X3816515Y6035235D01*
X3816515Y5953417D01*
D11*
X7785100Y8068335D02*
G01*
X7785100Y7896517D01*
X7785100Y8068335D02*
G01*
X7711462Y8068335D01*
X7686918Y8060154D01*
X7678737Y8051972D01*
X7670553Y8035610D01*
X7670553Y8019244D01*
X7678737Y8002882D01*
X7686918Y7994700D01*
X7711462Y7986516D01*
X7785100Y7986516D02*
G01*
X7711462Y7986516D01*
X7686918Y7978335D01*
X7678737Y7970154D01*
X7670553Y7953791D01*
X7670553Y7929245D01*
X7678737Y7912882D01*
X7686918Y7904700D01*
X7711462Y7896517D01*
X7785100Y7896517D01*
X7551099Y8068335D02*
G01*
X7616555Y7896517D01*
X7551099Y8068335D02*
G01*
X7485646Y7896517D01*
X7592009Y7953791D02*
G01*
X7510190Y7953791D01*
X7374374Y8068335D02*
G01*
X7374374Y7896517D01*
X7431646Y8068335D02*
G01*
X7317099Y8068335D01*
X7205827Y8068335D02*
G01*
X7205827Y7896517D01*
X7263102Y8068335D02*
G01*
X7148555Y8068335D01*
X7094555Y8068335D02*
G01*
X7094555Y7896517D01*
X7094555Y8068335D02*
G01*
X6988192Y8068335D01*
X7094555Y7986516D02*
G01*
X7029102Y7986516D01*
X7094555Y7896517D02*
G01*
X6988192Y7896517D01*
X6934192Y8068335D02*
G01*
X6934192Y7896517D01*
X6934192Y8068335D02*
G01*
X6860555Y8068335D01*
X6836011Y8060154D01*
X6827829Y8051972D01*
X6819648Y8035610D01*
X6819648Y8019244D01*
X6827829Y8002882D01*
X6836011Y7994700D01*
X6860555Y7986516D01*
X6934192Y7986516D01*
X6876920Y7986516D02*
G01*
X6819648Y7896517D01*
X6765648Y8068335D02*
G01*
X6700192Y7986516D01*
X6700192Y7896517D01*
X6634739Y8068335D02*
G01*
X6700192Y7986516D01*
X6332011Y8027426D02*
G01*
X6340193Y8043791D01*
X6356558Y8060154D01*
X6372920Y8068335D01*
X6405648Y8068335D01*
X6422011Y8060154D01*
X6438374Y8043791D01*
X6446558Y8027426D01*
X6454739Y8002882D01*
X6454739Y7961972D01*
X6446558Y7937426D01*
X6438374Y7921063D01*
X6422011Y7904700D01*
X6405648Y7896517D01*
X6372920Y7896517D01*
X6356558Y7904700D01*
X6340193Y7921063D01*
X6332011Y7937426D01*
X6212558Y8068335D02*
G01*
X6278011Y7896517D01*
X6212558Y8068335D02*
G01*
X6147102Y7896517D01*
X6253467Y7953791D02*
G01*
X6171648Y7953791D01*
X6093104Y8068335D02*
G01*
X6093104Y7896517D01*
X6093104Y8068335D02*
G01*
X6019467Y8068335D01*
X5994920Y8060154D01*
X5986739Y8051972D01*
X5978558Y8035610D01*
X5978558Y8011063D01*
X5986739Y7994700D01*
X5994920Y7986516D01*
X6019467Y7978335D01*
X6093104Y7978335D01*
X5859104Y8068335D02*
G01*
X5924557Y7896517D01*
X5859104Y8068335D02*
G01*
X5793648Y7896517D01*
X5900013Y7953791D02*
G01*
X5818195Y7953791D01*
X5616922Y8027426D02*
G01*
X5625104Y8043791D01*
X5641466Y8060154D01*
X5657832Y8068335D01*
X5690557Y8068335D01*
X5706922Y8060154D01*
X5723285Y8043791D01*
X5731466Y8027426D01*
X5739650Y8002882D01*
X5739650Y7961972D01*
X5731466Y7937426D01*
X5723285Y7921063D01*
X5706922Y7904700D01*
X5690557Y7896517D01*
X5657832Y7896517D01*
X5641466Y7904700D01*
X5625104Y7921063D01*
X5616922Y7937426D01*
X5562922Y8068335D02*
G01*
X5562922Y7896517D01*
X5451650Y8068335D02*
G01*
X5451650Y7896517D01*
X5508922Y8068335D02*
G01*
X5394378Y8068335D01*
X5340377Y8068335D02*
G01*
X5274922Y7986516D01*
X5274922Y7896517D01*
X5209468Y8068335D02*
G01*
X5274922Y7986516D01*
X4972197Y8068335D02*
G01*
X4972197Y7896517D01*
X5029469Y8068335D02*
G01*
X4914922Y8068335D01*
X4860925Y8068335D02*
G01*
X4860925Y7896517D01*
X4860925Y8068335D02*
G01*
X4754559Y8068335D01*
X4860925Y7986516D02*
G01*
X4795469Y7986516D01*
X4860925Y7896517D02*
G01*
X4754559Y7896517D01*
X4586015Y8043791D02*
G01*
X4602378Y8060154D01*
X4626924Y8068335D01*
X4659652Y8068335D01*
X4684196Y8060154D01*
X4700559Y8043791D01*
X4700559Y8027426D01*
X4692378Y8011063D01*
X4684196Y8002882D01*
X4667834Y7994700D01*
X4618743Y7978335D01*
X4602378Y7970154D01*
X4594197Y7961972D01*
X4586015Y7945610D01*
X4586015Y7921063D01*
X4602378Y7904700D01*
X4626924Y7896517D01*
X4659652Y7896517D01*
X4684196Y7904700D01*
X4700559Y7921063D01*
X4474743Y8068335D02*
G01*
X4474743Y7896517D01*
X4532015Y8068335D02*
G01*
X4417471Y8068335D01*
X4363471Y8068335D02*
G01*
X4363471Y7896517D01*
X4363471Y8068335D02*
G01*
X4257106Y8068335D01*
X4363471Y7986516D02*
G01*
X4298015Y7986516D01*
X4363471Y7896517D02*
G01*
X4257106Y7896517D01*
X4203108Y8068335D02*
G01*
X4203108Y7896517D01*
X4203108Y8068335D02*
G01*
X4129471Y8068335D01*
X4104924Y8060154D01*
X4096743Y8051972D01*
X4088561Y8035610D01*
X4088561Y8019244D01*
X4096743Y8002882D01*
X4104924Y7994700D01*
X4129471Y7986516D01*
X4203108Y7986516D01*
X4145833Y7986516D02*
G01*
X4088561Y7896517D01*
X3908562Y8068335D02*
G01*
X3843108Y7896517D01*
X3777653Y8068335D02*
G01*
X3843108Y7896517D01*
X3707290Y8068335D02*
G01*
X3617290Y8068335D01*
X3666380Y8002882D01*
X3641836Y8002882D01*
X3625471Y7994700D01*
X3617290Y7986516D01*
X3609108Y7961972D01*
X3609108Y7945610D01*
X3617290Y7921063D01*
X3633652Y7904700D01*
X3658199Y7896517D01*
X3682743Y7896517D01*
X3707290Y7904700D01*
X3715471Y7912882D01*
X3723652Y7929245D01*
X3546927Y7937426D02*
G01*
X3555108Y7929245D01*
X3546927Y7921063D01*
X3538745Y7929245D01*
X3546927Y7937426D01*
X3435654Y8068335D02*
G01*
X3460198Y8060154D01*
X3476564Y8035610D01*
X3484745Y7994700D01*
X3484745Y7970154D01*
X3476564Y7929245D01*
X3460198Y7904700D01*
X3435654Y7896517D01*
X3419289Y7896517D01*
X3394745Y7904700D01*
X3378380Y7929245D01*
X3370199Y7970154D01*
X3370199Y7994700D01*
X3378380Y8035610D01*
X3394745Y8060154D01*
X3419289Y8068335D01*
X3435654Y8068335D01*
M02*
