G04 Layer: TopPasteMaskLayer*
G04 EasyEDA v6.5.47, 2024-10-14 09:34:27*
G04 ce67ab0569d04c388b7640da7ad94f30,699dadb93aee4be8b9b8ad6142c81684,10*
G04 Gerber Generator version 0.2*
G04 Scale: 100 percent, Rotated: No, Reflected: No *
G04 Dimensions in millimeters *
G04 leading zeros omitted , absolute positions ,4 integer and 5 decimal *
%FSLAX45Y45*%
%MOMM*%

%ADD10R,2.0000X2.0000*%
%ADD11R,3.0000X2.0000*%
%ADD12R,3.4999X3.4999*%
%ADD13R,2.0320X1.5240*%
%ADD14R,1.2000X2.0000*%
%ADD15R,1.7000X0.9000*%
%ADD16R,3.0000X0.8000*%
%ADD17R,5.0800X7.6200*%
%ADD18R,1.0000X1.3995*%
%ADD19R,0.7000X1.2500*%
%ADD20R,0.5320X1.0450*%
%ADD21R,0.7000X1.1000*%
%ADD22R,0.6000X1.0000*%
%ADD23R,0.6000X1.0700*%
%ADD24R,0.0173X1.0700*%

%LPD*%
G36*
X8054390Y2509418D02*
G01*
X8049412Y2504389D01*
X8049412Y2376424D01*
X8054390Y2371394D01*
X8169402Y2371394D01*
X8174380Y2376424D01*
X8173923Y2418384D01*
X8129879Y2418384D01*
X8129879Y2463393D01*
X8174888Y2463393D01*
X8174380Y2504389D01*
X8169402Y2509418D01*
G37*
G36*
X8269376Y2509418D02*
G01*
X8264398Y2504389D01*
X8264906Y2463393D01*
X8308898Y2463393D01*
X8308898Y2418384D01*
X8264398Y2418384D01*
X8264398Y2376424D01*
X8269376Y2371394D01*
X8384387Y2371394D01*
X8389416Y2376424D01*
X8389416Y2504389D01*
X8384387Y2509418D01*
G37*
G36*
X5184190Y2522118D02*
G01*
X5179212Y2517089D01*
X5179212Y2389124D01*
X5184190Y2384094D01*
X5299202Y2384094D01*
X5304180Y2389124D01*
X5303723Y2431084D01*
X5259679Y2431084D01*
X5259679Y2476093D01*
X5304688Y2476093D01*
X5304180Y2517089D01*
X5299202Y2522118D01*
G37*
G36*
X5399176Y2522118D02*
G01*
X5394198Y2517089D01*
X5394706Y2476093D01*
X5438698Y2476093D01*
X5438698Y2431084D01*
X5394198Y2431084D01*
X5394198Y2389124D01*
X5399176Y2384094D01*
X5514187Y2384094D01*
X5519216Y2389124D01*
X5519216Y2517089D01*
X5514187Y2522118D01*
G37*
G36*
X6390690Y2509418D02*
G01*
X6385712Y2504389D01*
X6385712Y2376424D01*
X6390690Y2371394D01*
X6505702Y2371394D01*
X6510680Y2376424D01*
X6510223Y2418384D01*
X6466179Y2418384D01*
X6466179Y2463393D01*
X6511188Y2463393D01*
X6510680Y2504389D01*
X6505702Y2509418D01*
G37*
G36*
X6605676Y2509418D02*
G01*
X6600698Y2504389D01*
X6601206Y2463393D01*
X6645198Y2463393D01*
X6645198Y2418384D01*
X6600698Y2418384D01*
X6600698Y2376424D01*
X6605676Y2371394D01*
X6720687Y2371394D01*
X6725716Y2376424D01*
X6725716Y2504389D01*
X6720687Y2509418D01*
G37*
G36*
X7584490Y2509418D02*
G01*
X7579512Y2504389D01*
X7579512Y2376424D01*
X7584490Y2371394D01*
X7699502Y2371394D01*
X7704480Y2376424D01*
X7704023Y2418384D01*
X7659979Y2418384D01*
X7659979Y2463393D01*
X7704988Y2463393D01*
X7704480Y2504389D01*
X7699502Y2509418D01*
G37*
G36*
X7799476Y2509418D02*
G01*
X7794498Y2504389D01*
X7795006Y2463393D01*
X7838998Y2463393D01*
X7838998Y2418384D01*
X7794498Y2418384D01*
X7794498Y2376424D01*
X7799476Y2371394D01*
X7914487Y2371394D01*
X7919516Y2376424D01*
X7919516Y2504389D01*
X7914487Y2509418D01*
G37*
G36*
X5396687Y2126386D02*
G01*
X5391708Y2121408D01*
X5392216Y2079396D01*
X5436209Y2079396D01*
X5436209Y2034387D01*
X5391200Y2034387D01*
X5391708Y1993392D01*
X5396687Y1988413D01*
X5511698Y1988413D01*
X5516727Y1993392D01*
X5516727Y2121408D01*
X5511698Y2126386D01*
G37*
G36*
X5181701Y2126386D02*
G01*
X5176723Y2121408D01*
X5176723Y1993392D01*
X5181701Y1988413D01*
X5296712Y1988413D01*
X5301691Y1993392D01*
X5301183Y2034387D01*
X5257190Y2034387D01*
X5257190Y2079396D01*
X5301691Y2079396D01*
X5301691Y2121408D01*
X5296712Y2126386D01*
G37*
G36*
X6603187Y2126386D02*
G01*
X6598208Y2121408D01*
X6598716Y2079396D01*
X6642709Y2079396D01*
X6642709Y2034387D01*
X6597700Y2034387D01*
X6598208Y1993392D01*
X6603187Y1988413D01*
X6718198Y1988413D01*
X6723227Y1993392D01*
X6723227Y2121408D01*
X6718198Y2126386D01*
G37*
G36*
X6388201Y2126386D02*
G01*
X6383223Y2121408D01*
X6383223Y1993392D01*
X6388201Y1988413D01*
X6503212Y1988413D01*
X6508191Y1993392D01*
X6507683Y2034387D01*
X6463690Y2034387D01*
X6463690Y2079396D01*
X6508191Y2079396D01*
X6508191Y2121408D01*
X6503212Y2126386D01*
G37*
G36*
X7796987Y2139086D02*
G01*
X7792008Y2134108D01*
X7792516Y2092096D01*
X7836509Y2092096D01*
X7836509Y2047087D01*
X7791500Y2047087D01*
X7792008Y2006092D01*
X7796987Y2001113D01*
X7911998Y2001113D01*
X7917027Y2006092D01*
X7917027Y2134108D01*
X7911998Y2139086D01*
G37*
G36*
X7582001Y2139086D02*
G01*
X7577023Y2134108D01*
X7577023Y2006092D01*
X7582001Y2001113D01*
X7697012Y2001113D01*
X7701991Y2006092D01*
X7701483Y2047087D01*
X7657490Y2047087D01*
X7657490Y2092096D01*
X7701991Y2092096D01*
X7701991Y2134108D01*
X7697012Y2139086D01*
G37*
G36*
X3657193Y5631586D02*
G01*
X3652215Y5626608D01*
X3652215Y5498592D01*
X3657193Y5493613D01*
X3772204Y5493613D01*
X3777183Y5498592D01*
X3776726Y5540603D01*
X3732682Y5540603D01*
X3732682Y5585612D01*
X3777691Y5585612D01*
X3777183Y5626608D01*
X3772204Y5631586D01*
G37*
G36*
X3873195Y5631586D02*
G01*
X3868216Y5626608D01*
X3868674Y5584596D01*
X3912717Y5584596D01*
X3912717Y5539587D01*
X3867708Y5539587D01*
X3868216Y5498592D01*
X3873195Y5493613D01*
X3988206Y5493613D01*
X3993184Y5498592D01*
X3993184Y5626608D01*
X3988206Y5631586D01*
G37*
G36*
X3621836Y4804308D02*
G01*
X3616807Y4799279D01*
X3616807Y4671263D01*
X3621836Y4666284D01*
X3736848Y4666284D01*
X3741826Y4671263D01*
X3741318Y4713274D01*
X3697325Y4713274D01*
X3697325Y4758283D01*
X3742334Y4758283D01*
X3741826Y4799279D01*
X3736848Y4804308D01*
G37*
G36*
X3837838Y4804308D02*
G01*
X3832809Y4799279D01*
X3833317Y4757267D01*
X3877310Y4757267D01*
X3877310Y4712309D01*
X3832301Y4712309D01*
X3832809Y4671314D01*
X3837838Y4666284D01*
X3952798Y4666284D01*
X3957828Y4671314D01*
X3957828Y4799279D01*
X3952798Y4804308D01*
G37*
G36*
X1727301Y5098186D02*
G01*
X1722272Y5093208D01*
X1722272Y4965192D01*
X1727301Y4960213D01*
X1842312Y4960213D01*
X1847291Y4965192D01*
X1846783Y5007203D01*
X1802790Y5007203D01*
X1802790Y5052212D01*
X1847799Y5052212D01*
X1847291Y5093208D01*
X1842312Y5098186D01*
G37*
G36*
X1942287Y5098186D02*
G01*
X1937308Y5093208D01*
X1937816Y5052212D01*
X1981809Y5052212D01*
X1981809Y5007203D01*
X1937308Y5007203D01*
X1937308Y4965192D01*
X1942287Y4960213D01*
X2057298Y4960213D01*
X2062276Y4965192D01*
X2062276Y5093208D01*
X2057298Y5098186D01*
G37*
G36*
X1727301Y4856886D02*
G01*
X1722272Y4851908D01*
X1722272Y4723892D01*
X1727301Y4718913D01*
X1842312Y4718913D01*
X1847291Y4723892D01*
X1846783Y4765903D01*
X1802790Y4765903D01*
X1802790Y4810912D01*
X1847799Y4810912D01*
X1847291Y4851908D01*
X1842312Y4856886D01*
G37*
G36*
X1942287Y4856886D02*
G01*
X1937308Y4851908D01*
X1937816Y4810912D01*
X1981809Y4810912D01*
X1981809Y4765903D01*
X1937308Y4765903D01*
X1937308Y4723892D01*
X1942287Y4718913D01*
X2057298Y4718913D01*
X2062276Y4723892D01*
X2062276Y4851908D01*
X2057298Y4856886D01*
G37*
G36*
X2641701Y5098186D02*
G01*
X2636672Y5093208D01*
X2636672Y4965192D01*
X2641701Y4960213D01*
X2756712Y4960213D01*
X2761691Y4965192D01*
X2761183Y5007203D01*
X2717190Y5007203D01*
X2717190Y5052212D01*
X2762199Y5052212D01*
X2761691Y5093208D01*
X2756712Y5098186D01*
G37*
G36*
X2856687Y5098186D02*
G01*
X2851708Y5093208D01*
X2852216Y5052212D01*
X2896209Y5052212D01*
X2896209Y5007203D01*
X2851708Y5007203D01*
X2851708Y4965192D01*
X2856687Y4960213D01*
X2971698Y4960213D01*
X2976676Y4965192D01*
X2976676Y5093208D01*
X2971698Y5098186D01*
G37*
G36*
X2641701Y4856886D02*
G01*
X2636672Y4851908D01*
X2636672Y4723892D01*
X2641701Y4718913D01*
X2756712Y4718913D01*
X2761691Y4723892D01*
X2761183Y4765903D01*
X2717190Y4765903D01*
X2717190Y4810912D01*
X2762199Y4810912D01*
X2761691Y4851908D01*
X2756712Y4856886D01*
G37*
G36*
X2856687Y4856886D02*
G01*
X2851708Y4851908D01*
X2852216Y4810912D01*
X2896209Y4810912D01*
X2896209Y4765903D01*
X2851708Y4765903D01*
X2851708Y4723892D01*
X2856687Y4718913D01*
X2971698Y4718913D01*
X2976676Y4723892D01*
X2976676Y4851908D01*
X2971698Y4856886D01*
G37*
G36*
X2184501Y4856886D02*
G01*
X2179472Y4851908D01*
X2179472Y4723892D01*
X2184501Y4718913D01*
X2299512Y4718913D01*
X2304491Y4723892D01*
X2303983Y4765903D01*
X2259990Y4765903D01*
X2259990Y4810912D01*
X2304999Y4810912D01*
X2304491Y4851908D01*
X2299512Y4856886D01*
G37*
G36*
X2399487Y4856886D02*
G01*
X2394508Y4851908D01*
X2395016Y4810912D01*
X2439009Y4810912D01*
X2439009Y4765903D01*
X2394508Y4765903D01*
X2394508Y4723892D01*
X2399487Y4718913D01*
X2514498Y4718913D01*
X2519476Y4723892D01*
X2519476Y4851908D01*
X2514498Y4856886D01*
G37*
G36*
X2184501Y5098186D02*
G01*
X2179472Y5093208D01*
X2179472Y4965192D01*
X2184501Y4960213D01*
X2299512Y4960213D01*
X2304491Y4965192D01*
X2303983Y5007203D01*
X2259990Y5007203D01*
X2259990Y5052212D01*
X2304999Y5052212D01*
X2304491Y5093208D01*
X2299512Y5098186D01*
G37*
G36*
X2399487Y5098186D02*
G01*
X2394508Y5093208D01*
X2395016Y5052212D01*
X2439009Y5052212D01*
X2439009Y5007203D01*
X2394508Y5007203D01*
X2394508Y4965192D01*
X2399487Y4960213D01*
X2514498Y4960213D01*
X2519476Y4965192D01*
X2519476Y5093208D01*
X2514498Y5098186D01*
G37*
G36*
X3835501Y1923186D02*
G01*
X3830472Y1918207D01*
X3830472Y1790192D01*
X3835501Y1785213D01*
X3950512Y1785213D01*
X3955491Y1790192D01*
X3954983Y1832203D01*
X3910990Y1832203D01*
X3910990Y1877212D01*
X3955999Y1877212D01*
X3955491Y1918207D01*
X3950512Y1923186D01*
G37*
G36*
X4050487Y1923186D02*
G01*
X4045508Y1918207D01*
X4046016Y1877212D01*
X4090009Y1877212D01*
X4090009Y1832203D01*
X4045508Y1832203D01*
X4045508Y1790192D01*
X4050487Y1785213D01*
X4165498Y1785213D01*
X4170476Y1790192D01*
X4170476Y1918207D01*
X4165498Y1923186D01*
G37*
G36*
X8406587Y5147716D02*
G01*
X8401608Y5142738D01*
X8402116Y5100726D01*
X8446109Y5100726D01*
X8446109Y5055717D01*
X8401100Y5055717D01*
X8401608Y5014722D01*
X8406587Y5009743D01*
X8521598Y5009743D01*
X8526627Y5014722D01*
X8526627Y5142738D01*
X8521598Y5147716D01*
G37*
G36*
X8191601Y5147716D02*
G01*
X8186623Y5142738D01*
X8186623Y5014722D01*
X8191601Y5009743D01*
X8306612Y5009743D01*
X8311591Y5014722D01*
X8311083Y5055717D01*
X8267090Y5055717D01*
X8267090Y5100726D01*
X8311591Y5100726D01*
X8311591Y5142738D01*
X8306612Y5147716D01*
G37*
G36*
X8191601Y4882286D02*
G01*
X8186572Y4877308D01*
X8186572Y4749292D01*
X8191601Y4744313D01*
X8306612Y4744313D01*
X8311591Y4749292D01*
X8311083Y4791303D01*
X8267090Y4791303D01*
X8267090Y4836312D01*
X8312099Y4836312D01*
X8311591Y4877308D01*
X8306612Y4882286D01*
G37*
G36*
X8406587Y4882286D02*
G01*
X8401608Y4877308D01*
X8402116Y4836312D01*
X8446109Y4836312D01*
X8446109Y4791303D01*
X8401608Y4791303D01*
X8401608Y4749292D01*
X8406587Y4744313D01*
X8521598Y4744313D01*
X8526576Y4749292D01*
X8526576Y4877308D01*
X8521598Y4882286D01*
G37*
G36*
X8191601Y4640986D02*
G01*
X8186572Y4636008D01*
X8186572Y4507992D01*
X8191601Y4503013D01*
X8306612Y4503013D01*
X8311591Y4507992D01*
X8311083Y4550003D01*
X8267090Y4550003D01*
X8267090Y4595012D01*
X8312099Y4595012D01*
X8311591Y4636008D01*
X8306612Y4640986D01*
G37*
G36*
X8406587Y4640986D02*
G01*
X8401608Y4636008D01*
X8402116Y4595012D01*
X8446109Y4595012D01*
X8446109Y4550003D01*
X8401608Y4550003D01*
X8401608Y4507992D01*
X8406587Y4503013D01*
X8521598Y4503013D01*
X8526576Y4507992D01*
X8526576Y4636008D01*
X8521598Y4640986D01*
G37*
G36*
X7442301Y4882286D02*
G01*
X7437272Y4877308D01*
X7437272Y4749292D01*
X7442301Y4744313D01*
X7557312Y4744313D01*
X7562291Y4749292D01*
X7561783Y4791303D01*
X7517790Y4791303D01*
X7517790Y4836312D01*
X7562799Y4836312D01*
X7562291Y4877308D01*
X7557312Y4882286D01*
G37*
G36*
X7657287Y4882286D02*
G01*
X7652308Y4877308D01*
X7652816Y4836312D01*
X7696809Y4836312D01*
X7696809Y4791303D01*
X7652308Y4791303D01*
X7652308Y4749292D01*
X7657287Y4744313D01*
X7772298Y4744313D01*
X7777276Y4749292D01*
X7777276Y4877308D01*
X7772298Y4882286D01*
G37*
G36*
X7442301Y5148986D02*
G01*
X7437272Y5144008D01*
X7437272Y5015992D01*
X7442301Y5011013D01*
X7557312Y5011013D01*
X7562291Y5015992D01*
X7561783Y5058003D01*
X7517790Y5058003D01*
X7517790Y5103012D01*
X7562799Y5103012D01*
X7562291Y5144008D01*
X7557312Y5148986D01*
G37*
G36*
X7657287Y5148986D02*
G01*
X7652308Y5144008D01*
X7652816Y5103012D01*
X7696809Y5103012D01*
X7696809Y5058003D01*
X7652308Y5058003D01*
X7652308Y5015992D01*
X7657287Y5011013D01*
X7772298Y5011013D01*
X7777276Y5015992D01*
X7777276Y5144008D01*
X7772298Y5148986D01*
G37*
G36*
X3377387Y5593486D02*
G01*
X3372408Y5588508D01*
X3372916Y5546496D01*
X3416909Y5546496D01*
X3416909Y5501487D01*
X3371900Y5501487D01*
X3372408Y5460492D01*
X3377387Y5455513D01*
X3492398Y5455513D01*
X3497427Y5460492D01*
X3497427Y5588508D01*
X3492398Y5593486D01*
G37*
G36*
X3162401Y5593486D02*
G01*
X3157423Y5588508D01*
X3157423Y5460492D01*
X3162401Y5455513D01*
X3277412Y5455513D01*
X3282391Y5460492D01*
X3281883Y5501487D01*
X3237890Y5501487D01*
X3237890Y5546496D01*
X3282391Y5546496D01*
X3282391Y5588508D01*
X3277412Y5593486D01*
G37*
G36*
X3098901Y5136286D02*
G01*
X3093872Y5131308D01*
X3093872Y5003292D01*
X3098901Y4998313D01*
X3213912Y4998313D01*
X3218891Y5003292D01*
X3218383Y5045303D01*
X3174390Y5045303D01*
X3174390Y5090312D01*
X3219399Y5090312D01*
X3218891Y5131308D01*
X3213912Y5136286D01*
G37*
G36*
X3313887Y5136286D02*
G01*
X3308908Y5131308D01*
X3309416Y5090312D01*
X3353409Y5090312D01*
X3353409Y5045303D01*
X3308908Y5045303D01*
X3308908Y5003292D01*
X3313887Y4998313D01*
X3428898Y4998313D01*
X3433876Y5003292D01*
X3433876Y5131308D01*
X3428898Y5136286D01*
G37*
G36*
X3098901Y4856886D02*
G01*
X3093872Y4851908D01*
X3093872Y4723892D01*
X3098901Y4718913D01*
X3213912Y4718913D01*
X3218891Y4723892D01*
X3218383Y4765903D01*
X3174390Y4765903D01*
X3174390Y4810912D01*
X3219399Y4810912D01*
X3218891Y4851908D01*
X3213912Y4856886D01*
G37*
G36*
X3313887Y4856886D02*
G01*
X3308908Y4851908D01*
X3309416Y4810912D01*
X3353409Y4810912D01*
X3353409Y4765903D01*
X3308908Y4765903D01*
X3308908Y4723892D01*
X3313887Y4718913D01*
X3428898Y4718913D01*
X3433876Y4723892D01*
X3433876Y4851908D01*
X3428898Y4856886D01*
G37*
G36*
X8435086Y3326180D02*
G01*
X8425078Y3316224D01*
X8425078Y3207969D01*
X8435086Y3197961D01*
X8760714Y3197961D01*
X8770721Y3207969D01*
X8770721Y3316224D01*
X8760714Y3326180D01*
X8666632Y3326180D01*
X8656675Y3316224D01*
X8656675Y3292601D01*
X8646668Y3282594D01*
X8549132Y3282594D01*
X8539124Y3292601D01*
X8539124Y3316224D01*
X8529167Y3326180D01*
G37*
G36*
X8435086Y3939438D02*
G01*
X8425078Y3929430D01*
X8425078Y3821176D01*
X8435086Y3811219D01*
X8529167Y3811219D01*
X8539124Y3821176D01*
X8539124Y3844798D01*
X8549132Y3854805D01*
X8646668Y3854805D01*
X8656675Y3844798D01*
X8656675Y3821176D01*
X8666632Y3811219D01*
X8760714Y3811219D01*
X8770721Y3821176D01*
X8770721Y3929430D01*
X8760714Y3939438D01*
G37*
G36*
X3621836Y4523079D02*
G01*
X3616807Y4518050D01*
X3616807Y4390085D01*
X3621836Y4385056D01*
X3736848Y4385056D01*
X3741826Y4390085D01*
X3741318Y4432046D01*
X3697325Y4432046D01*
X3697325Y4477054D01*
X3742334Y4477054D01*
X3741826Y4518050D01*
X3736848Y4523079D01*
G37*
G36*
X3837838Y4523079D02*
G01*
X3832809Y4518050D01*
X3833317Y4476089D01*
X3877310Y4476089D01*
X3877310Y4431080D01*
X3832301Y4431080D01*
X3832809Y4390085D01*
X3837838Y4385056D01*
X3952798Y4385056D01*
X3957828Y4390085D01*
X3957828Y4518050D01*
X3952798Y4523079D01*
G37*
G36*
X2174290Y4465218D02*
G01*
X2169312Y4460189D01*
X2169312Y4332224D01*
X2174290Y4327194D01*
X2289302Y4327194D01*
X2294280Y4332224D01*
X2293823Y4374184D01*
X2249779Y4374184D01*
X2249779Y4419193D01*
X2294788Y4419193D01*
X2294280Y4460189D01*
X2289302Y4465218D01*
G37*
G36*
X2389276Y4465218D02*
G01*
X2384298Y4460189D01*
X2384806Y4419193D01*
X2428798Y4419193D01*
X2428798Y4374184D01*
X2384298Y4374184D01*
X2384298Y4332224D01*
X2389276Y4327194D01*
X2504287Y4327194D01*
X2509316Y4332224D01*
X2509316Y4460189D01*
X2504287Y4465218D01*
G37*
G36*
X2174290Y4173118D02*
G01*
X2169312Y4168089D01*
X2169312Y4040124D01*
X2174290Y4035094D01*
X2289302Y4035094D01*
X2294280Y4040124D01*
X2293823Y4082084D01*
X2249779Y4082084D01*
X2249779Y4127093D01*
X2294788Y4127093D01*
X2294280Y4168089D01*
X2289302Y4173118D01*
G37*
G36*
X2389276Y4173118D02*
G01*
X2384298Y4168089D01*
X2384806Y4127093D01*
X2428798Y4127093D01*
X2428798Y4082084D01*
X2384298Y4082084D01*
X2384298Y4040124D01*
X2389276Y4035094D01*
X2504287Y4035094D01*
X2509316Y4040124D01*
X2509316Y4168089D01*
X2504287Y4173118D01*
G37*
G36*
X2384298Y3915105D02*
G01*
X2379319Y3910076D01*
X2379776Y3868115D01*
X2423820Y3868115D01*
X2423820Y3823106D01*
X2378811Y3823106D01*
X2379319Y3782110D01*
X2384298Y3777081D01*
X2499309Y3777081D01*
X2504287Y3782110D01*
X2504287Y3910076D01*
X2499309Y3915105D01*
G37*
G36*
X2169312Y3915105D02*
G01*
X2164283Y3910076D01*
X2164283Y3782110D01*
X2169312Y3777081D01*
X2284323Y3777081D01*
X2289302Y3782110D01*
X2288794Y3823106D01*
X2244801Y3823106D01*
X2244801Y3868115D01*
X2289302Y3868115D01*
X2289302Y3910076D01*
X2284323Y3915105D01*
G37*
G36*
X7444790Y5405018D02*
G01*
X7439812Y5399989D01*
X7439812Y5272024D01*
X7444790Y5266994D01*
X7559802Y5266994D01*
X7564780Y5272024D01*
X7564323Y5313984D01*
X7520279Y5313984D01*
X7520279Y5358993D01*
X7565288Y5358993D01*
X7564780Y5399989D01*
X7559802Y5405018D01*
G37*
G36*
X7659776Y5405018D02*
G01*
X7654798Y5399989D01*
X7655306Y5358993D01*
X7699298Y5358993D01*
X7699298Y5313984D01*
X7654798Y5313984D01*
X7654798Y5272024D01*
X7659776Y5266994D01*
X7774787Y5266994D01*
X7779816Y5272024D01*
X7779816Y5399989D01*
X7774787Y5405018D01*
G37*
G36*
X7654798Y4613605D02*
G01*
X7649819Y4608576D01*
X7650276Y4566615D01*
X7694320Y4566615D01*
X7694320Y4521606D01*
X7649311Y4521606D01*
X7649819Y4480610D01*
X7654798Y4475581D01*
X7769809Y4475581D01*
X7774787Y4480610D01*
X7774787Y4608576D01*
X7769809Y4613605D01*
G37*
G36*
X7439812Y4613605D02*
G01*
X7434783Y4608576D01*
X7434783Y4480610D01*
X7439812Y4475581D01*
X7554823Y4475581D01*
X7559802Y4480610D01*
X7559294Y4521606D01*
X7515301Y4521606D01*
X7515301Y4566615D01*
X7559802Y4566615D01*
X7559802Y4608576D01*
X7554823Y4613605D01*
G37*
G36*
X3871620Y2648508D02*
G01*
X3866591Y2643479D01*
X3866591Y2563520D01*
X3871620Y2558491D01*
X3914495Y2558491D01*
X3919575Y2563520D01*
X3919575Y2643479D01*
X3914495Y2648508D01*
G37*
G36*
X4019651Y2648508D02*
G01*
X4014622Y2643479D01*
X4014622Y2563520D01*
X4019651Y2558491D01*
X4062577Y2558491D01*
X4067657Y2563520D01*
X4067657Y2643479D01*
X4062577Y2648508D01*
G37*
G36*
X1257604Y5199481D02*
G01*
X1257604Y5119471D01*
X1357630Y5119471D01*
X1357630Y5199481D01*
G37*
G36*
X1257604Y5074513D02*
G01*
X1257604Y5004511D01*
X1357630Y5004511D01*
X1357630Y5074513D01*
G37*
G36*
X1257604Y4974488D02*
G01*
X1257604Y4904486D01*
X1357630Y4904486D01*
X1357630Y4974488D01*
G37*
G36*
X1257604Y4874514D02*
G01*
X1257604Y4804511D01*
X1357630Y4804511D01*
X1357630Y4874514D01*
G37*
G36*
X1257604Y4774488D02*
G01*
X1257604Y4704486D01*
X1357630Y4704486D01*
X1357630Y4774488D01*
G37*
G36*
X1257604Y4659528D02*
G01*
X1257604Y4579518D01*
X1357630Y4579518D01*
X1357630Y4659528D01*
G37*
G36*
X1255115Y5376468D02*
G01*
X1249629Y5376214D01*
X1244193Y5375402D01*
X1238910Y5374030D01*
X1233728Y5372150D01*
X1228801Y5369814D01*
X1224127Y5366918D01*
X1219758Y5363616D01*
X1215745Y5359908D01*
X1212088Y5355793D01*
X1208887Y5351322D01*
X1206144Y5346598D01*
X1203909Y5341569D01*
X1202182Y5336387D01*
X1200962Y5331053D01*
X1200251Y5325618D01*
X1200099Y5320131D01*
X1200556Y5314645D01*
X1201470Y5309260D01*
X1202994Y5303977D01*
X1204976Y5298846D01*
X1207465Y5293969D01*
X1210462Y5289397D01*
X1213866Y5285079D01*
X1217676Y5281168D01*
X1221892Y5277662D01*
X1226413Y5274564D01*
X1231239Y5271922D01*
X1236319Y5269788D01*
X1241552Y5268214D01*
X1246886Y5267096D01*
X1252372Y5266537D01*
X1335125Y5266486D01*
X1340561Y5266740D01*
X1345996Y5267604D01*
X1351330Y5268925D01*
X1356461Y5270804D01*
X1361389Y5273192D01*
X1366113Y5276037D01*
X1370482Y5279339D01*
X1374495Y5283098D01*
X1378102Y5287213D01*
X1381302Y5291632D01*
X1384046Y5296408D01*
X1386332Y5301386D01*
X1388059Y5306568D01*
X1389278Y5311952D01*
X1389938Y5317388D01*
X1390091Y5322874D01*
X1389684Y5328310D01*
X1388719Y5333746D01*
X1387246Y5339029D01*
X1385265Y5344109D01*
X1382725Y5348986D01*
X1379778Y5353608D01*
X1376324Y5357876D01*
X1372514Y5361787D01*
X1368298Y5365343D01*
X1363776Y5368442D01*
X1358950Y5371033D01*
X1353921Y5373166D01*
X1348689Y5374792D01*
X1343304Y5375859D01*
X1337868Y5376418D01*
G37*
G36*
X1255115Y4512513D02*
G01*
X1249629Y4512259D01*
X1244193Y4511395D01*
X1238910Y4510074D01*
X1233728Y4508195D01*
X1228801Y4505807D01*
X1224127Y4502962D01*
X1219758Y4499660D01*
X1215745Y4495901D01*
X1212088Y4491786D01*
X1208887Y4487367D01*
X1206144Y4482592D01*
X1203909Y4477613D01*
X1202182Y4472432D01*
X1200962Y4467047D01*
X1200251Y4461611D01*
X1200099Y4456125D01*
X1200556Y4450689D01*
X1201470Y4445254D01*
X1202994Y4439970D01*
X1204976Y4434890D01*
X1207465Y4430014D01*
X1210462Y4425391D01*
X1213866Y4421124D01*
X1217676Y4417212D01*
X1221892Y4413656D01*
X1226413Y4410557D01*
X1231239Y4407966D01*
X1236319Y4405833D01*
X1241552Y4404207D01*
X1246886Y4403140D01*
X1252372Y4402582D01*
X1335125Y4402531D01*
X1340561Y4402785D01*
X1345996Y4403598D01*
X1351330Y4404969D01*
X1356461Y4406849D01*
X1361389Y4409186D01*
X1366113Y4412081D01*
X1370482Y4415383D01*
X1374495Y4419092D01*
X1378102Y4423206D01*
X1381302Y4427677D01*
X1384046Y4432401D01*
X1386332Y4437430D01*
X1388059Y4442612D01*
X1389278Y4447946D01*
X1389938Y4453382D01*
X1390091Y4458868D01*
X1389684Y4464354D01*
X1388719Y4469739D01*
X1387246Y4475022D01*
X1385265Y4480153D01*
X1382725Y4485030D01*
X1379778Y4489602D01*
X1376324Y4493920D01*
X1372514Y4497832D01*
X1368298Y4501337D01*
X1363776Y4504436D01*
X1358950Y4507077D01*
X1353921Y4509211D01*
X1348689Y4510786D01*
X1343304Y4511903D01*
X1337868Y4512462D01*
G37*
G36*
X875080Y5376468D02*
G01*
X869645Y5376214D01*
X864209Y5375402D01*
X858875Y5374030D01*
X853744Y5372150D01*
X848817Y5369814D01*
X844092Y5366918D01*
X839724Y5363616D01*
X835710Y5359908D01*
X832103Y5355793D01*
X828903Y5351322D01*
X826160Y5346598D01*
X823874Y5341569D01*
X822147Y5336387D01*
X820928Y5331053D01*
X820267Y5325618D01*
X820115Y5320131D01*
X820521Y5314645D01*
X821486Y5309260D01*
X822960Y5303977D01*
X824941Y5298846D01*
X827481Y5293969D01*
X830427Y5289397D01*
X833882Y5285079D01*
X837692Y5281168D01*
X841908Y5277662D01*
X846429Y5274564D01*
X851255Y5271922D01*
X856284Y5269788D01*
X861517Y5268214D01*
X866902Y5267096D01*
X872337Y5266537D01*
X955090Y5266486D01*
X960577Y5266740D01*
X966012Y5267604D01*
X971296Y5268925D01*
X976477Y5270804D01*
X981405Y5273192D01*
X986078Y5276037D01*
X990447Y5279339D01*
X994460Y5283098D01*
X998118Y5287213D01*
X1001318Y5291632D01*
X1004062Y5296408D01*
X1006297Y5301386D01*
X1008024Y5306568D01*
X1009243Y5311952D01*
X1009954Y5317388D01*
X1010056Y5322874D01*
X1009650Y5328310D01*
X1008735Y5333746D01*
X1007211Y5339029D01*
X1005230Y5344109D01*
X1002741Y5348986D01*
X999744Y5353608D01*
X996340Y5357876D01*
X992530Y5361787D01*
X988314Y5365343D01*
X983792Y5368442D01*
X978966Y5371033D01*
X973886Y5373166D01*
X968654Y5374792D01*
X963320Y5375859D01*
X957834Y5376418D01*
G37*
G36*
X875080Y4512513D02*
G01*
X869645Y4512259D01*
X864209Y4511395D01*
X858875Y4510074D01*
X853744Y4508195D01*
X848817Y4505807D01*
X844092Y4502962D01*
X839724Y4499660D01*
X835710Y4495901D01*
X832103Y4491786D01*
X828903Y4487367D01*
X826160Y4482592D01*
X823874Y4477613D01*
X822147Y4472432D01*
X820928Y4467047D01*
X820267Y4461611D01*
X820115Y4456125D01*
X820521Y4450689D01*
X821486Y4445254D01*
X822960Y4439970D01*
X824941Y4434890D01*
X827481Y4430014D01*
X830427Y4425391D01*
X833882Y4421124D01*
X837692Y4417212D01*
X841908Y4413656D01*
X846429Y4410557D01*
X851255Y4407966D01*
X856284Y4405833D01*
X861517Y4404207D01*
X866902Y4403140D01*
X872337Y4402582D01*
X955090Y4402531D01*
X960577Y4402785D01*
X966012Y4403598D01*
X971296Y4404969D01*
X976477Y4406849D01*
X981405Y4409186D01*
X986078Y4412081D01*
X990447Y4415383D01*
X994460Y4419092D01*
X998118Y4423206D01*
X1001318Y4427677D01*
X1004062Y4432401D01*
X1006297Y4437430D01*
X1008024Y4442612D01*
X1009243Y4447946D01*
X1009954Y4453382D01*
X1010056Y4458868D01*
X1009650Y4464354D01*
X1008735Y4469739D01*
X1007211Y4475022D01*
X1005230Y4480153D01*
X1002741Y4485030D01*
X999744Y4489602D01*
X996340Y4493920D01*
X992530Y4497832D01*
X988314Y4501337D01*
X983792Y4504436D01*
X978966Y4507077D01*
X973886Y4509211D01*
X968654Y4510786D01*
X963320Y4511903D01*
X957834Y4512462D01*
G37*
D10*
G01*
X963803Y5727700D03*
G01*
X1423796Y5727700D03*
G01*
X8966327Y5703696D03*
G01*
X8966327Y5243703D03*
D11*
G01*
X3516985Y3390900D03*
G01*
X3516985Y3136900D03*
G01*
X3516985Y2882900D03*
G01*
X3516985Y2628900D03*
G01*
X3516985Y2374900D03*
G01*
X3516985Y2120900D03*
G01*
X3516985Y1866900D03*
G01*
X1817014Y3390900D03*
G01*
X1817014Y3136900D03*
G01*
X1817014Y2882900D03*
G01*
X1817014Y2628900D03*
G01*
X1817014Y2374900D03*
G01*
X1817014Y2120900D03*
G01*
X1817014Y1866900D03*
D12*
G01*
X2456992Y2688894D03*
D13*
G01*
X3116986Y2398903D03*
G01*
X3116986Y2588895D03*
D14*
G01*
X6912406Y1873300D03*
G01*
X7362393Y1873300D03*
G01*
X7362393Y2673299D03*
G01*
X6912406Y2673299D03*
G01*
X4524806Y1873300D03*
G01*
X4974793Y1873300D03*
G01*
X4974793Y2673299D03*
G01*
X4524806Y2673299D03*
G01*
X5718606Y1873300D03*
G01*
X6168593Y1873300D03*
G01*
X6168593Y2673299D03*
G01*
X5718606Y2673299D03*
D15*
G01*
X9652000Y5586399D03*
G01*
X9652000Y5386400D03*
D16*
G01*
X10287000Y5811393D03*
G01*
X10287000Y5161406D03*
D17*
G01*
X1418589Y7010400D03*
G01*
X9681209Y7010400D03*
D18*
G01*
X1787270Y5448300D03*
G01*
X1997329Y5448300D03*
D19*
G01*
X2330704Y5411800D03*
G01*
X2520695Y5411800D03*
G01*
X2425700Y5611799D03*
D20*
G01*
X2737104Y5397042D03*
G01*
X2927095Y5397042D03*
G01*
X2832100Y5626557D03*
D21*
G01*
X3651402Y5026787D03*
G01*
X3746398Y5026787D03*
G01*
X3841597Y5026787D03*
G01*
X3841597Y5285587D03*
G01*
X3651605Y5285587D03*
D22*
G01*
X3156204Y4415307D03*
G01*
X3346195Y4415307D03*
G01*
X3156204Y4195292D03*
G01*
X3346195Y4195292D03*
G01*
X3251200Y4195292D03*
D19*
G01*
X1695704Y4179900D03*
G01*
X1885695Y4179900D03*
G01*
X1790700Y4379899D03*
D22*
G01*
X8261604Y5629097D03*
G01*
X8451595Y5629097D03*
G01*
X8451595Y5369077D03*
G01*
X8356600Y5369077D03*
G01*
X8261604Y5369077D03*
D23*
G01*
X4000500Y2326004D03*
G01*
X4095495Y2118995D03*
G01*
X3905504Y2118995D03*
M02*
