G04 Layer: TopSilkscreenLayer*
G04 EasyEDA v6.5.47, 2024-10-14 09:34:27*
G04 ce67ab0569d04c388b7640da7ad94f30,699dadb93aee4be8b9b8ad6142c81684,10*
G04 Gerber Generator version 0.2*
G04 Scale: 100 percent, Rotated: No, Reflected: No *
G04 Dimensions in millimeters *
G04 leading zeros omitted , absolute positions ,4 integer and 5 decimal *
%FSLAX45Y45*%
%MOMM*%

%ADD10C,0.2032*%
%ADD11C,0.1000*%
%ADD12C,0.1524*%
%ADD13C,0.1270*%
%ADD14C,0.1580*%
%ADD15C,0.2540*%
%ADD16C,0.2000*%
%ADD17C,0.2500*%
%ADD18C,0.4000*%
%ADD19C,0.0153*%

%LPD*%
G36*
X8641740Y2397607D02*
G01*
X8624163Y2275382D01*
X8624163Y2273350D01*
X8625636Y2273960D01*
X8648903Y2274366D01*
X8660485Y2273452D01*
X8660688Y2273655D01*
G37*
G36*
X8507272Y2371750D02*
G01*
X8507272Y2371191D01*
X8542324Y2247849D01*
X8542680Y2247493D01*
X8555736Y2254707D01*
X8567064Y2259736D01*
X8576564Y2263343D01*
X8576310Y2264359D01*
X8508034Y2370988D01*
G37*
G36*
X8772855Y2371191D02*
G01*
X8705494Y2264257D01*
X8705240Y2263597D01*
X8711742Y2261260D01*
X8722461Y2256739D01*
X8733332Y2251303D01*
X8739022Y2248001D01*
X8739276Y2248255D01*
X8773007Y2371191D01*
G37*
G36*
X8582964Y2353513D02*
G01*
X8583371Y2350617D01*
X8589416Y2268423D01*
X8589975Y2267508D01*
X8602319Y2270506D01*
X8612936Y2272334D01*
X8612936Y2273046D01*
X8583726Y2352243D01*
G37*
G36*
X8699246Y2353259D02*
G01*
X8670290Y2272538D01*
X8670645Y2272182D01*
X8682177Y2270150D01*
X8693861Y2267254D01*
X8694013Y2267407D01*
X8699398Y2352903D01*
G37*
G36*
X8476843Y2306320D02*
G01*
X8517382Y2230831D01*
X8517940Y2230170D01*
X8527034Y2237282D01*
X8537194Y2244140D01*
X8537041Y2244750D01*
G37*
G36*
X8805621Y2306320D02*
G01*
X8746032Y2244140D01*
X8747607Y2242870D01*
X8757462Y2236063D01*
X8765336Y2229764D01*
X8765946Y2230374D01*
X8805875Y2306320D01*
G37*
G36*
X8882024Y2293823D02*
G01*
X8774328Y2221839D01*
X8784691Y2211425D01*
X8792718Y2202129D01*
X8799423Y2193137D01*
G37*
G36*
X8399373Y2292756D02*
G01*
X8482838Y2192731D01*
X8489950Y2202078D01*
X8496249Y2209596D01*
X8507780Y2221382D01*
G37*
G36*
X8640165Y2255418D02*
G01*
X8626449Y2254808D01*
X8614816Y2253437D01*
X8603792Y2251405D01*
X8591092Y2248154D01*
X8580729Y2244648D01*
X8569502Y2240127D01*
X8557818Y2234336D01*
X8545779Y2227224D01*
X8536178Y2220468D01*
X8526627Y2212797D01*
X8517229Y2204008D01*
X8508441Y2194610D01*
X8500770Y2185060D01*
X8494064Y2175510D01*
X8486902Y2163419D01*
X8481161Y2151786D01*
X8477199Y2142185D01*
X8473135Y2130145D01*
X8469934Y2117648D01*
X8468207Y2108504D01*
X8466988Y2099767D01*
X8466023Y2087372D01*
X8466480Y2064410D01*
X8468156Y2051913D01*
X8469934Y2042820D01*
X8472830Y2031136D01*
X8477250Y2017826D01*
X8482380Y2005787D01*
X8488426Y1994154D01*
X8492439Y1987499D01*
X8498281Y1978761D01*
X8503259Y1972106D01*
X8510727Y1963166D01*
X8510981Y1963166D01*
X8514486Y1969617D01*
X8520734Y1979422D01*
X8527796Y1989124D01*
X8535720Y1998725D01*
X8551570Y2014524D01*
X8562390Y2023364D01*
X8573617Y2031542D01*
X8584844Y2038756D01*
X8595258Y2044700D01*
X8611463Y2052878D01*
X8622080Y2057552D01*
X8632291Y2061616D01*
X8641842Y2065020D01*
X8652662Y2068474D01*
X8667648Y2072589D01*
X8684260Y2076246D01*
X8701328Y2079142D01*
X8732977Y2083358D01*
X8757462Y2085797D01*
X8773718Y2087118D01*
X8794902Y2088337D01*
X8816441Y2088896D01*
X8815882Y2098090D01*
X8814206Y2110079D01*
X8812225Y2119782D01*
X8810142Y2128113D01*
X8806281Y2140000D01*
X8801862Y2150922D01*
X8797747Y2159660D01*
X8791702Y2170480D01*
X8784590Y2181301D01*
X8777173Y2191105D01*
X8768232Y2201265D01*
X8758580Y2210511D01*
X8751265Y2216759D01*
X8742527Y2223363D01*
X8732926Y2229662D01*
X8724188Y2234641D01*
X8715705Y2238908D01*
X8703970Y2243937D01*
X8690508Y2248458D01*
X8680958Y2250897D01*
X8672372Y2252675D01*
X8661400Y2254300D01*
X8650579Y2255113D01*
G37*
G36*
X8398967Y2219909D02*
G01*
X8467445Y2166874D01*
X8472627Y2176729D01*
X8479485Y2187803D01*
X8479231Y2188057D01*
G37*
G36*
X8883497Y2219807D02*
G01*
X8882684Y2219756D01*
X8803538Y2187244D01*
X8808008Y2180386D01*
X8815832Y2166315D01*
X8817356Y2167686D01*
G37*
G36*
X8950248Y2179015D02*
G01*
X8820708Y2156460D01*
X8820404Y2156206D01*
X8825534Y2142642D01*
X8829954Y2127656D01*
X8831783Y2119528D01*
X8832138Y2119528D01*
X8950248Y2178608D01*
G37*
G36*
X8334197Y2176018D02*
G01*
X8334908Y2175408D01*
X8450427Y2118664D01*
X8451138Y2119731D01*
X8451138Y2121052D01*
X8454440Y2134057D01*
X8457895Y2144725D01*
X8461603Y2154529D01*
X8461095Y2155088D01*
G37*
G36*
X8449614Y2112873D02*
G01*
X8363254Y2109571D01*
X8363712Y2109114D01*
X8447278Y2088743D01*
X8447836Y2099360D01*
G37*
G36*
X8833154Y2112060D02*
G01*
X8834577Y2102256D01*
X8835491Y2092147D01*
X8835491Y2087880D01*
X8919311Y2109216D01*
X8919616Y2109571D01*
G37*
G36*
X8446414Y2075434D02*
G01*
X8321598Y2042820D01*
X8451342Y2037740D01*
X8451545Y2037892D01*
X8449564Y2047798D01*
X8448243Y2056942D01*
X8447430Y2065680D01*
X8446871Y2075434D01*
G37*
G36*
X8828633Y2068779D02*
G01*
X8796172Y2068068D01*
X8779510Y2067102D01*
X8757920Y2065426D01*
X8737092Y2063343D01*
X8714232Y2060448D01*
X8694775Y2057501D01*
X8678875Y2054301D01*
X8669731Y2052116D01*
X8653881Y2047595D01*
X8641435Y2043379D01*
X8627973Y2038045D01*
X8617305Y2033117D01*
X8607806Y2028342D01*
X8597341Y2022500D01*
X8587384Y2016252D01*
X8576564Y2008581D01*
X8568029Y2001824D01*
X8559495Y1994052D01*
X8548878Y1983028D01*
X8541054Y1973275D01*
X8533180Y1961692D01*
X8527542Y1951685D01*
X8523427Y1942947D01*
X8519464Y1932990D01*
X8516366Y1923440D01*
X8513572Y1911756D01*
X8511895Y1901799D01*
X8510828Y1893062D01*
X8510828Y1868119D01*
X8512352Y1856892D01*
X8513368Y1851863D01*
X8514283Y1851863D01*
X8589670Y1896364D01*
X8586520Y1896922D01*
X8567267Y1899259D01*
X8567572Y1899818D01*
X8682380Y1957933D01*
X8682431Y1958441D01*
X8665260Y1964486D01*
X8666429Y1965147D01*
X8822385Y2024278D01*
X8820607Y2022856D01*
X8734958Y1964182D01*
X8736685Y1963623D01*
X8756904Y1960067D01*
X8755837Y1959102D01*
X8643112Y1896516D01*
X8640368Y1894839D01*
X8640622Y1894586D01*
X8664244Y1889099D01*
X8664498Y1888845D01*
X8467547Y1815388D01*
X8464245Y1813915D01*
X8556193Y1817928D01*
X8567420Y1814626D01*
X8582355Y1810918D01*
X8596122Y1808429D01*
X8608974Y1806803D01*
X8623096Y1805787D01*
X8647684Y1806244D01*
X8661806Y1807972D01*
X8671814Y1809699D01*
X8684717Y1812645D01*
X8697112Y1816354D01*
X8707272Y1820062D01*
X8717991Y1824583D01*
X8727541Y1829054D01*
X8737955Y1834743D01*
X8746236Y1839722D01*
X8758174Y1847596D01*
X8771331Y1857451D01*
X8782862Y1867154D01*
X8796934Y1880158D01*
X8810193Y1894281D01*
X8820708Y1906371D01*
X8829090Y1916785D01*
X8836558Y1926742D01*
X8844076Y1937207D01*
X8852560Y1949856D01*
X8861501Y1964182D01*
X8869680Y1978253D01*
X8877960Y1993290D01*
X8889085Y2015743D01*
X8895435Y2029917D01*
X8901734Y2044903D01*
X8908186Y2061921D01*
X8907983Y2062124D01*
X8901379Y2063343D01*
X8886444Y2065426D01*
X8873540Y2066696D01*
X8856065Y2067966D01*
G37*
G36*
X8453120Y2031796D02*
G01*
X8452205Y2031746D01*
X8375853Y1994052D01*
X8375345Y1993544D01*
X8460079Y2008936D01*
X8460232Y2009139D01*
X8454999Y2024481D01*
G37*
G36*
X8465464Y1996846D02*
G01*
X8364423Y1916023D01*
X8484819Y1964182D01*
X8484819Y1964842D01*
X8479942Y1971700D01*
X8474710Y1979980D01*
X8470595Y1987042D01*
X8465718Y1996846D01*
G37*
G36*
X8488578Y1959406D02*
G01*
X8433765Y1893468D01*
X8433968Y1893214D01*
X8503767Y1940763D01*
X8504936Y1941880D01*
X8494623Y1952650D01*
X8489188Y1959356D01*
G37*
G36*
X8081162Y1766773D02*
G01*
X8074202Y1765554D01*
X8066684Y1763064D01*
X8059521Y1759356D01*
X8052358Y1753920D01*
X8046770Y1747926D01*
X8042249Y1741170D01*
X8038846Y1733905D01*
X8036407Y1724202D01*
X8036212Y1720037D01*
X8045907Y1720037D01*
X8047228Y1727657D01*
X8049717Y1734464D01*
X8052714Y1739798D01*
X8057591Y1745792D01*
X8062975Y1750161D01*
X8067751Y1753057D01*
X8074101Y1755698D01*
X8081162Y1757222D01*
X8093202Y1756918D01*
X8099704Y1755190D01*
X8106613Y1751939D01*
X8111896Y1748383D01*
X8117382Y1742897D01*
X8120989Y1737614D01*
X8124240Y1730654D01*
X8125968Y1724202D01*
X8126374Y1712468D01*
X8125002Y1705610D01*
X8122513Y1698701D01*
X8118246Y1691843D01*
X8112353Y1685594D01*
X8107375Y1682089D01*
X8101533Y1679143D01*
X8094878Y1677060D01*
X8087004Y1676044D01*
X8079892Y1676603D01*
X8072831Y1678279D01*
X8064500Y1682242D01*
X8059420Y1686102D01*
X8054390Y1691487D01*
X8051749Y1695348D01*
X8048142Y1703019D01*
X8046364Y1710029D01*
X8045907Y1720037D01*
X8036212Y1720037D01*
X8035950Y1713382D01*
X8037271Y1705356D01*
X8039404Y1698599D01*
X8041894Y1693011D01*
X8047177Y1685086D01*
X8053222Y1678939D01*
X8059572Y1674266D01*
X8066430Y1670659D01*
X8073644Y1668221D01*
X8080349Y1667052D01*
X8086547Y1666493D01*
X8095183Y1667459D01*
X8103209Y1669491D01*
X8112404Y1674012D01*
X8119059Y1678939D01*
X8125104Y1685086D01*
X8130489Y1693164D01*
X8133791Y1700631D01*
X8135924Y1708810D01*
X8136381Y1720545D01*
X8134959Y1728978D01*
X8132622Y1735988D01*
X8128812Y1743303D01*
X8123377Y1750517D01*
X8117382Y1756054D01*
X8110677Y1760474D01*
X8105698Y1762963D01*
X8099348Y1765147D01*
X8093202Y1766468D01*
G37*
G36*
X8451748Y1766773D02*
G01*
X8446770Y1766011D01*
X8440267Y1764284D01*
X8433104Y1761439D01*
X8427212Y1757934D01*
X8422233Y1754174D01*
X8416544Y1748332D01*
X8411260Y1740407D01*
X8408822Y1735023D01*
X8407095Y1729587D01*
X8405723Y1723339D01*
X8405317Y1713788D01*
X8406587Y1705457D01*
X8408822Y1698396D01*
X8411667Y1692198D01*
X8417204Y1683816D01*
X8424367Y1676654D01*
X8431682Y1671878D01*
X8438438Y1669034D01*
X8446770Y1666951D01*
X8459419Y1666443D01*
X8465921Y1667510D01*
X8472982Y1669542D01*
X8480704Y1673301D01*
X8487257Y1678025D01*
X8490762Y1681276D01*
X8491880Y1684020D01*
X8491880Y1709470D01*
X8490712Y1712264D01*
X8488426Y1713788D01*
X8460435Y1713788D01*
X8458149Y1712569D01*
X8456980Y1710283D01*
X8456980Y1708556D01*
X8458250Y1706016D01*
X8461095Y1704848D01*
X8482330Y1704848D01*
X8482482Y1690065D01*
X8482279Y1687220D01*
X8480907Y1684883D01*
X8476081Y1681480D01*
X8469122Y1678228D01*
X8462162Y1676501D01*
X8451342Y1676044D01*
X8443874Y1677466D01*
X8437626Y1679956D01*
X8431377Y1683816D01*
X8424824Y1690065D01*
X8421268Y1695094D01*
X8418372Y1700885D01*
X8416290Y1707591D01*
X8415274Y1714550D01*
X8415731Y1723339D01*
X8417407Y1729739D01*
X8419998Y1735785D01*
X8424722Y1742897D01*
X8430564Y1748789D01*
X8435848Y1752346D01*
X8441791Y1755089D01*
X8447176Y1756511D01*
X8457692Y1756968D01*
X8464448Y1755952D01*
X8470087Y1754022D01*
X8474659Y1751736D01*
X8479637Y1748383D01*
X8484057Y1744776D01*
X8487206Y1743862D01*
X8489543Y1744624D01*
X8491169Y1746757D01*
X8491169Y1749755D01*
X8489289Y1752803D01*
X8482838Y1757883D01*
X8476284Y1761743D01*
X8469071Y1764741D01*
X8462162Y1766417D01*
G37*
G36*
X8806129Y1765147D02*
G01*
X8803995Y1763928D01*
X8802827Y1761185D01*
X8802827Y1671777D01*
X8803995Y1669034D01*
X8806586Y1667611D01*
X8863990Y1667357D01*
X8867546Y1667865D01*
X8870035Y1670100D01*
X8870492Y1673555D01*
X8868105Y1676196D01*
X8864396Y1676958D01*
X8813038Y1676958D01*
X8813038Y1712315D01*
X8854440Y1712518D01*
X8856776Y1714042D01*
X8857996Y1716989D01*
X8857030Y1719783D01*
X8854897Y1721459D01*
X8813038Y1721459D01*
X8813038Y1756003D01*
X8866022Y1756054D01*
X8868968Y1757070D01*
X8870594Y1760067D01*
X8869781Y1763268D01*
X8866936Y1765147D01*
G37*
G36*
X9118092Y1740966D02*
G01*
X9112758Y1740255D01*
X9106865Y1738477D01*
X9101175Y1735582D01*
X9097619Y1733143D01*
X9092996Y1728927D01*
X9088780Y1723237D01*
X9085529Y1716278D01*
X9084157Y1711299D01*
X9083714Y1701190D01*
X9091574Y1701190D01*
X9091980Y1710436D01*
X9094114Y1716582D01*
X9096908Y1721256D01*
X9103563Y1727911D01*
X9108694Y1730654D01*
X9112300Y1731975D01*
X9118092Y1733092D01*
X9124746Y1732737D01*
X9129776Y1731467D01*
X9136837Y1728012D01*
X9143949Y1720850D01*
X9147403Y1713788D01*
X9148673Y1708404D01*
X9148673Y1700022D01*
X9146946Y1693824D01*
X9144101Y1688439D01*
X9140545Y1684121D01*
X9136430Y1680667D01*
X9132265Y1678279D01*
X9125610Y1675993D01*
X9114790Y1675993D01*
X9108135Y1678228D01*
X9104122Y1680616D01*
X9099804Y1684223D01*
X9096248Y1688439D01*
X9092996Y1694840D01*
X9091574Y1701190D01*
X9083714Y1701190D01*
X9085122Y1693824D01*
X9087561Y1687728D01*
X9091371Y1681784D01*
X9096502Y1676450D01*
X9101531Y1672843D01*
X9107728Y1669897D01*
X9114383Y1668068D01*
X9126423Y1668119D01*
X9133738Y1670304D01*
X9138920Y1672945D01*
X9142628Y1675485D01*
X9147962Y1680514D01*
X9147505Y1668424D01*
X9146184Y1663446D01*
X9143949Y1658874D01*
X9138920Y1653844D01*
X9133484Y1651203D01*
X9128506Y1649831D01*
X9116466Y1649425D01*
X9109151Y1650796D01*
X9101886Y1653336D01*
X9097975Y1655368D01*
X9094978Y1655368D01*
X9092946Y1653997D01*
X9091980Y1650847D01*
X9093555Y1648053D01*
X9100464Y1644599D01*
X9106865Y1642516D01*
X9113926Y1640992D01*
X9128099Y1640992D01*
X9135160Y1642516D01*
X9140545Y1644650D01*
X9145219Y1647393D01*
X9149486Y1651254D01*
X9153245Y1656943D01*
X9155430Y1662633D01*
X9156598Y1668729D01*
X9156598Y1708607D01*
X9155277Y1715058D01*
X9152483Y1721561D01*
X9149740Y1726184D01*
X9143085Y1733042D01*
X9137243Y1736750D01*
X9131909Y1739036D01*
X9125915Y1740560D01*
G37*
G36*
X8189112Y1739798D02*
G01*
X8180578Y1739696D01*
X8175244Y1738579D01*
X8171027Y1737156D01*
X8165998Y1734667D01*
X8162290Y1732127D01*
X8156549Y1726692D01*
X8153450Y1722120D01*
X8150859Y1716938D01*
X8148574Y1709623D01*
X8148531Y1700682D01*
X8157768Y1700682D01*
X8158175Y1709216D01*
X8160359Y1715312D01*
X8163102Y1719935D01*
X8168792Y1725675D01*
X8176412Y1729435D01*
X8182660Y1730603D01*
X8189620Y1730146D01*
X8195970Y1728165D01*
X8201253Y1725015D01*
X8206130Y1720189D01*
X8209025Y1715465D01*
X8211261Y1708810D01*
X8211667Y1700784D01*
X8210245Y1694434D01*
X8206841Y1687575D01*
X8200542Y1681327D01*
X8193481Y1677873D01*
X8187029Y1676552D01*
X8181797Y1676552D01*
X8176006Y1677771D01*
X8169300Y1681073D01*
X8163814Y1686153D01*
X8160562Y1691335D01*
X8158784Y1695500D01*
X8157768Y1700682D01*
X8148531Y1700682D01*
X8148269Y1645970D01*
X8149691Y1643329D01*
X8152434Y1642059D01*
X8154873Y1642059D01*
X8157159Y1643837D01*
X8158327Y1646580D01*
X8158327Y1678178D01*
X8165338Y1672539D01*
X8172246Y1669135D01*
X8179308Y1667256D01*
X8190992Y1667306D01*
X8197646Y1669084D01*
X8203590Y1671929D01*
X8208467Y1675231D01*
X8215071Y1682242D01*
X8218576Y1688439D01*
X8221116Y1695957D01*
X8221929Y1703425D01*
X8221167Y1710283D01*
X8219744Y1715465D01*
X8217052Y1721357D01*
X8213648Y1726438D01*
X8208264Y1731772D01*
X8202371Y1735734D01*
X8195564Y1738477D01*
G37*
G36*
X8347405Y1739798D02*
G01*
X8339023Y1739696D01*
X8333841Y1738579D01*
X8327390Y1735785D01*
X8322462Y1732534D01*
X8317534Y1727962D01*
X8314232Y1723085D01*
X8311845Y1717954D01*
X8309965Y1711299D01*
X8309711Y1671370D01*
X8310778Y1669288D01*
X8313572Y1667408D01*
X8315604Y1667408D01*
X8318398Y1668729D01*
X8319719Y1671472D01*
X8319719Y1708404D01*
X8320938Y1714042D01*
X8323986Y1720392D01*
X8329879Y1726285D01*
X8335314Y1728927D01*
X8340394Y1730197D01*
X8347405Y1730197D01*
X8352281Y1728927D01*
X8357057Y1726438D01*
X8361425Y1722120D01*
X8364575Y1717293D01*
X8366302Y1712112D01*
X8367115Y1705864D01*
X8367115Y1671116D01*
X8368334Y1668780D01*
X8371382Y1667357D01*
X8374176Y1667865D01*
X8376310Y1669694D01*
X8377072Y1673047D01*
X8377072Y1702562D01*
X8376259Y1712417D01*
X8374938Y1717548D01*
X8372144Y1723643D01*
X8368487Y1728774D01*
X8363915Y1733092D01*
X8358733Y1736445D01*
X8352332Y1738884D01*
G37*
G36*
X8917330Y1739798D02*
G01*
X8913876Y1739696D01*
X8908897Y1738934D01*
X8903462Y1737207D01*
X8895994Y1733346D01*
X8888018Y1725422D01*
X8884158Y1717548D01*
X8882888Y1712518D01*
X8882075Y1705457D01*
X8882075Y1671472D01*
X8883396Y1668627D01*
X8885783Y1667408D01*
X8889136Y1667408D01*
X8891828Y1669846D01*
X8892336Y1710029D01*
X8893708Y1714601D01*
X8896400Y1720037D01*
X8902293Y1725930D01*
X8908491Y1728978D01*
X8915146Y1730349D01*
X8922562Y1729435D01*
X8929573Y1726082D01*
X8934805Y1720850D01*
X8937752Y1714957D01*
X8939174Y1710029D01*
X8939682Y1669846D01*
X8942374Y1667408D01*
X8945727Y1667408D01*
X8948267Y1668729D01*
X8949436Y1671523D01*
X8949436Y1704644D01*
X8948623Y1712417D01*
X8947302Y1717548D01*
X8944102Y1724202D01*
X8939885Y1729790D01*
X8934246Y1734261D01*
X8929624Y1736852D01*
X8923629Y1738934D01*
G37*
G36*
X8262518Y1739747D02*
G01*
X8256574Y1738630D01*
X8252104Y1737156D01*
X8247938Y1735074D01*
X8244230Y1732534D01*
X8240166Y1728774D01*
X8236559Y1724152D01*
X8233613Y1718716D01*
X8231886Y1713788D01*
X8230849Y1708607D01*
X8241080Y1708607D01*
X8242808Y1714601D01*
X8245805Y1720037D01*
X8251799Y1725930D01*
X8257946Y1728978D01*
X8262518Y1730146D01*
X8270036Y1730197D01*
X8275015Y1728978D01*
X8280806Y1726082D01*
X8285124Y1722323D01*
X8288477Y1717243D01*
X8290052Y1712112D01*
X8290661Y1708607D01*
X8230849Y1708607D01*
X8230666Y1707692D01*
X8230666Y1700377D01*
X8231936Y1693113D01*
X8234730Y1685798D01*
X8237575Y1681022D01*
X8242808Y1675333D01*
X8250072Y1670507D01*
X8255558Y1668272D01*
X8262467Y1666900D01*
X8273745Y1667357D01*
X8279130Y1668729D01*
X8285784Y1671929D01*
X8291322Y1676501D01*
X8293100Y1680159D01*
X8293100Y1682445D01*
X8290153Y1685391D01*
X8286800Y1684934D01*
X8280755Y1680311D01*
X8275320Y1677771D01*
X8269173Y1676501D01*
X8261248Y1676907D01*
X8255050Y1679041D01*
X8249462Y1682851D01*
X8246414Y1686204D01*
X8243163Y1691284D01*
X8241080Y1697837D01*
X8241080Y1699463D01*
X8295792Y1699463D01*
X8297875Y1700479D01*
X8299399Y1703374D01*
X8298942Y1712112D01*
X8297570Y1717548D01*
X8294014Y1725015D01*
X8289086Y1730806D01*
X8284209Y1734769D01*
X8278723Y1737614D01*
X8272932Y1739442D01*
G37*
G36*
X8996222Y1739595D02*
G01*
X8989161Y1739036D01*
X8983776Y1737614D01*
X8977630Y1734820D01*
X8972448Y1731111D01*
X8968282Y1726539D01*
X8965336Y1722120D01*
X8962847Y1717141D01*
X8961069Y1711350D01*
X8960772Y1708607D01*
X8971076Y1708607D01*
X8971076Y1709267D01*
X8972397Y1713788D01*
X8975445Y1719580D01*
X8981287Y1725523D01*
X8988348Y1729028D01*
X8994597Y1730197D01*
X9000794Y1729739D01*
X9004554Y1728876D01*
X9009532Y1726539D01*
X9014460Y1722526D01*
X9017965Y1717395D01*
X9019794Y1712569D01*
X9020251Y1708607D01*
X8960772Y1708607D01*
X8960307Y1703832D01*
X8961120Y1695653D01*
X8963202Y1688439D01*
X8967114Y1681022D01*
X8972448Y1675282D01*
X8977528Y1671675D01*
X8983522Y1668678D01*
X8989974Y1666798D01*
X9002064Y1666849D01*
X9009227Y1668627D01*
X9014002Y1670761D01*
X9019133Y1674418D01*
X9021368Y1676755D01*
X9022994Y1680514D01*
X9022537Y1682800D01*
X9020098Y1684883D01*
X9017203Y1684883D01*
X9015425Y1683969D01*
X9010954Y1680311D01*
X9006687Y1678127D01*
X9003385Y1676958D01*
X8996375Y1676196D01*
X8989974Y1676958D01*
X8984792Y1678686D01*
X8978798Y1683004D01*
X8974734Y1687982D01*
X8972245Y1692859D01*
X8970721Y1698802D01*
X8971127Y1699463D01*
X9026296Y1699463D01*
X9028379Y1701088D01*
X9029395Y1705254D01*
X9028430Y1713738D01*
X9026093Y1720596D01*
X9022283Y1726692D01*
X9018371Y1731111D01*
X9012885Y1735277D01*
X9007703Y1737766D01*
X9001201Y1739290D01*
G37*
G36*
X8589924Y1739392D02*
G01*
X8580272Y1739290D01*
X8576157Y1738528D01*
X8570722Y1736750D01*
X8566556Y1734718D01*
X8561425Y1731060D01*
X8556498Y1725574D01*
X8552738Y1719173D01*
X8550960Y1714601D01*
X8549538Y1709216D01*
X8549538Y1708150D01*
X8560003Y1708150D01*
X8560562Y1711553D01*
X8562543Y1716430D01*
X8565591Y1721053D01*
X8570569Y1725523D01*
X8575294Y1728063D01*
X8579459Y1729435D01*
X8584438Y1730095D01*
X8589873Y1729689D01*
X8596172Y1727707D01*
X8601100Y1724507D01*
X8605316Y1720037D01*
X8607450Y1716278D01*
X8609177Y1710588D01*
X8609177Y1708150D01*
X8549538Y1708150D01*
X8549538Y1698396D01*
X8551062Y1691741D01*
X8553500Y1685340D01*
X8557514Y1679193D01*
X8561781Y1674926D01*
X8567115Y1671116D01*
X8573211Y1668322D01*
X8578646Y1666798D01*
X8591956Y1666900D01*
X8598611Y1668678D01*
X8604402Y1671523D01*
X8609228Y1675384D01*
X8611717Y1679193D01*
X8611717Y1682445D01*
X8609279Y1684883D01*
X8606231Y1684883D01*
X8604402Y1683918D01*
X8599830Y1680159D01*
X8593886Y1677314D01*
X8587384Y1676196D01*
X8583371Y1676146D01*
X8576970Y1677466D01*
X8570722Y1680413D01*
X8564422Y1686763D01*
X8561425Y1692148D01*
X8559698Y1698955D01*
X8614816Y1699209D01*
X8616696Y1700275D01*
X8617915Y1702714D01*
X8617915Y1710436D01*
X8616289Y1717293D01*
X8613851Y1722628D01*
X8610498Y1727504D01*
X8607348Y1730959D01*
X8602370Y1734921D01*
X8596528Y1737715D01*
G37*
G36*
X8662009Y1739341D02*
G01*
X8657234Y1739290D01*
X8651849Y1738223D01*
X8646261Y1736140D01*
X8640267Y1732635D01*
X8634679Y1727098D01*
X8630513Y1720697D01*
X8627872Y1714296D01*
X8626553Y1708150D01*
X8637066Y1708150D01*
X8637066Y1709267D01*
X8638387Y1713788D01*
X8640318Y1717548D01*
X8644178Y1722678D01*
X8649360Y1726590D01*
X8653475Y1728520D01*
X8658047Y1729739D01*
X8666886Y1729790D01*
X8671407Y1728470D01*
X8676894Y1725625D01*
X8681313Y1721256D01*
X8684514Y1716328D01*
X8686139Y1710994D01*
X8686139Y1708150D01*
X8626553Y1708150D01*
X8626602Y1698802D01*
X8627973Y1692249D01*
X8630107Y1686356D01*
X8633409Y1680667D01*
X8638946Y1674774D01*
X8646363Y1669948D01*
X8653068Y1667510D01*
X8659571Y1666443D01*
X8668867Y1666951D01*
X8675522Y1668678D01*
X8682482Y1672082D01*
X8688070Y1677619D01*
X8688933Y1681022D01*
X8687866Y1683562D01*
X8685733Y1684985D01*
X8682380Y1684528D01*
X8679688Y1682343D01*
X8674303Y1678686D01*
X8667648Y1676450D01*
X8657640Y1676450D01*
X8650986Y1678635D01*
X8645804Y1682038D01*
X8641181Y1687169D01*
X8637930Y1693824D01*
X8636762Y1698955D01*
X8692438Y1699209D01*
X8694775Y1701800D01*
X8695334Y1705711D01*
X8694826Y1710436D01*
X8693556Y1716684D01*
X8689543Y1725015D01*
X8684514Y1730959D01*
X8679281Y1734870D01*
X8673642Y1737715D01*
X8666784Y1739341D01*
G37*
G36*
X8739174Y1739341D02*
G01*
X8734602Y1739290D01*
X8728202Y1737715D01*
X8722868Y1735328D01*
X8718397Y1732280D01*
X8713114Y1727098D01*
X8709304Y1721408D01*
X8706866Y1715109D01*
X8705697Y1708912D01*
X8705697Y1670253D01*
X8708542Y1667408D01*
X8712555Y1667510D01*
X8714028Y1668272D01*
X8715248Y1670710D01*
X8715298Y1703832D01*
X8716060Y1711147D01*
X8717838Y1716532D01*
X8722004Y1722780D01*
X8726220Y1726133D01*
X8731046Y1728571D01*
X8735822Y1729790D01*
X8743797Y1729790D01*
X8748318Y1728470D01*
X8752484Y1726336D01*
X8758529Y1720342D01*
X8761425Y1714195D01*
X8762695Y1707692D01*
X8762695Y1671523D01*
X8763812Y1668830D01*
X8765794Y1667560D01*
X8768080Y1667002D01*
X8770874Y1668119D01*
X8772652Y1670456D01*
X8772652Y1707540D01*
X8771534Y1714652D01*
X8769400Y1720697D01*
X8765895Y1726692D01*
X8759139Y1733346D01*
X8754414Y1736140D01*
X8749334Y1738172D01*
X8743746Y1739341D01*
G37*
G36*
X9231274Y1739036D02*
G01*
X9228277Y1738122D01*
X9226245Y1735988D01*
X9225788Y1696313D01*
X9224365Y1691335D01*
X9221774Y1686052D01*
X9216390Y1680311D01*
X9210446Y1677365D01*
X9203385Y1676095D01*
X9197543Y1676654D01*
X9192514Y1678228D01*
X9187586Y1681429D01*
X9183014Y1686356D01*
X9180372Y1691335D01*
X9178899Y1696313D01*
X9178442Y1736039D01*
X9175902Y1738579D01*
X9173006Y1738985D01*
X9170365Y1737614D01*
X9168841Y1735429D01*
X9168587Y1701749D01*
X9169552Y1693519D01*
X9171228Y1687982D01*
X9173718Y1683004D01*
X9177324Y1677924D01*
X9183217Y1672488D01*
X9189669Y1669135D01*
X9195054Y1667459D01*
X9197289Y1667002D01*
X9197543Y1644599D01*
X9199524Y1642465D01*
X9202216Y1641602D01*
X9205366Y1642668D01*
X9207093Y1645005D01*
X9207347Y1666798D01*
X9214459Y1668627D01*
X9219590Y1671167D01*
X9225330Y1675434D01*
X9230207Y1681327D01*
X9233966Y1688846D01*
X9235795Y1695500D01*
X9236049Y1735023D01*
X9234322Y1737766D01*
G37*
G36*
X9075674Y1738884D02*
G01*
X9068612Y1738223D01*
X9061348Y1736496D01*
X9056014Y1734057D01*
X9051086Y1730705D01*
X9045498Y1724660D01*
X9041790Y1717141D01*
X9040571Y1712264D01*
X9039606Y1705457D01*
X9039707Y1670659D01*
X9042552Y1667814D01*
X9046464Y1667814D01*
X9049258Y1670659D01*
X9049308Y1694637D01*
X9050020Y1707946D01*
X9052153Y1714601D01*
X9055303Y1719935D01*
X9059722Y1723948D01*
X9065717Y1726895D01*
X9070543Y1728114D01*
X9079433Y1729079D01*
X9081719Y1730248D01*
X9082938Y1732686D01*
X9082938Y1735175D01*
X9081973Y1737360D01*
X9079585Y1738579D01*
G37*
G36*
X8541207Y1738833D02*
G01*
X8530386Y1737614D01*
X8524951Y1735937D01*
X8519261Y1733092D01*
X8514435Y1729384D01*
X8510727Y1725015D01*
X8508136Y1720799D01*
X8506053Y1715211D01*
X8505190Y1711350D01*
X8504377Y1705051D01*
X8504377Y1671574D01*
X8505647Y1669135D01*
X8507476Y1667814D01*
X8511387Y1667814D01*
X8513826Y1670253D01*
X8514334Y1673453D01*
X8514384Y1704898D01*
X8515705Y1711299D01*
X8517636Y1716125D01*
X8521446Y1721459D01*
X8526627Y1725117D01*
X8530488Y1726793D01*
X8535771Y1728114D01*
X8544458Y1729028D01*
X8545931Y1729790D01*
X8547658Y1731975D01*
X8547608Y1735836D01*
X8546185Y1737614D01*
X8544509Y1738426D01*
G37*
D10*
X3886200Y8266684D02*
G01*
X3886200Y8123428D01*
X3886200Y8266684D02*
G01*
X3947668Y8266684D01*
X3967988Y8259826D01*
X3974845Y8252968D01*
X3981704Y8239505D01*
X3981704Y8225789D01*
X3974845Y8212073D01*
X3967988Y8205215D01*
X3947668Y8198358D01*
X3886200Y8198358D02*
G01*
X3947668Y8198358D01*
X3967988Y8191754D01*
X3974845Y8184895D01*
X3981704Y8171179D01*
X3981704Y8150860D01*
X3974845Y8137144D01*
X3967988Y8130286D01*
X3947668Y8123428D01*
X3886200Y8123428D01*
X4108450Y8218931D02*
G01*
X4108450Y8123428D01*
X4108450Y8198358D02*
G01*
X4094734Y8212073D01*
X4081272Y8218931D01*
X4060697Y8218931D01*
X4046981Y8212073D01*
X4033520Y8198358D01*
X4026661Y8178037D01*
X4026661Y8164321D01*
X4033520Y8144002D01*
X4046981Y8130286D01*
X4060697Y8123428D01*
X4081272Y8123428D01*
X4094734Y8130286D01*
X4108450Y8144002D01*
X4173981Y8266684D02*
G01*
X4173981Y8150860D01*
X4180840Y8130286D01*
X4194302Y8123428D01*
X4208018Y8123428D01*
X4153408Y8218931D02*
G01*
X4201159Y8218931D01*
X4273550Y8266684D02*
G01*
X4273550Y8150860D01*
X4280408Y8130286D01*
X4293870Y8123428D01*
X4307586Y8123428D01*
X4252975Y8218931D02*
G01*
X4300727Y8218931D01*
X4352543Y8178037D02*
G01*
X4434331Y8178037D01*
X4434331Y8191754D01*
X4427474Y8205215D01*
X4420870Y8212073D01*
X4407154Y8218931D01*
X4386579Y8218931D01*
X4373118Y8212073D01*
X4359402Y8198358D01*
X4352543Y8178037D01*
X4352543Y8164321D01*
X4359402Y8144002D01*
X4373118Y8130286D01*
X4386579Y8123428D01*
X4407154Y8123428D01*
X4420870Y8130286D01*
X4434331Y8144002D01*
X4479290Y8218931D02*
G01*
X4479290Y8123428D01*
X4479290Y8178037D02*
G01*
X4486147Y8198358D01*
X4499863Y8212073D01*
X4513579Y8218931D01*
X4533900Y8218931D01*
X4585715Y8218931D02*
G01*
X4626609Y8123428D01*
X4667504Y8218931D02*
G01*
X4626609Y8123428D01*
X4612893Y8096250D01*
X4599431Y8082534D01*
X4585715Y8075676D01*
X4578858Y8075676D01*
X4919725Y8232647D02*
G01*
X4913122Y8246110D01*
X4899406Y8259826D01*
X4885690Y8266684D01*
X4858511Y8266684D01*
X4844795Y8259826D01*
X4831079Y8246110D01*
X4824475Y8232647D01*
X4817618Y8212073D01*
X4817618Y8178037D01*
X4824475Y8157463D01*
X4831079Y8144002D01*
X4844795Y8130286D01*
X4858511Y8123428D01*
X4885690Y8123428D01*
X4899406Y8130286D01*
X4913122Y8144002D01*
X4919725Y8157463D01*
X5046725Y8218931D02*
G01*
X5046725Y8123428D01*
X5046725Y8198358D02*
G01*
X5033009Y8212073D01*
X5019293Y8218931D01*
X4998974Y8218931D01*
X4985258Y8212073D01*
X4971541Y8198358D01*
X4964938Y8178037D01*
X4964938Y8164321D01*
X4971541Y8144002D01*
X4985258Y8130286D01*
X4998974Y8123428D01*
X5019293Y8123428D01*
X5033009Y8130286D01*
X5046725Y8144002D01*
X5091684Y8218931D02*
G01*
X5091684Y8075676D01*
X5091684Y8198358D02*
G01*
X5105400Y8212073D01*
X5118861Y8218931D01*
X5139436Y8218931D01*
X5152897Y8212073D01*
X5166613Y8198358D01*
X5173472Y8178037D01*
X5173472Y8164321D01*
X5166613Y8144002D01*
X5152897Y8130286D01*
X5139436Y8123428D01*
X5118861Y8123428D01*
X5105400Y8130286D01*
X5091684Y8144002D01*
X5300218Y8218931D02*
G01*
X5300218Y8123428D01*
X5300218Y8198358D02*
G01*
X5286756Y8212073D01*
X5273040Y8218931D01*
X5252465Y8218931D01*
X5239004Y8212073D01*
X5225288Y8198358D01*
X5218429Y8178037D01*
X5218429Y8164321D01*
X5225288Y8144002D01*
X5239004Y8130286D01*
X5252465Y8123428D01*
X5273040Y8123428D01*
X5286756Y8130286D01*
X5300218Y8144002D01*
X5427218Y8198358D02*
G01*
X5413502Y8212073D01*
X5399786Y8218931D01*
X5379465Y8218931D01*
X5365750Y8212073D01*
X5352034Y8198358D01*
X5345175Y8178037D01*
X5345175Y8164321D01*
X5352034Y8144002D01*
X5365750Y8130286D01*
X5379465Y8123428D01*
X5399786Y8123428D01*
X5413502Y8130286D01*
X5427218Y8144002D01*
X5472175Y8266684D02*
G01*
X5479034Y8259826D01*
X5485638Y8266684D01*
X5479034Y8273542D01*
X5472175Y8266684D01*
X5479034Y8218931D02*
G01*
X5479034Y8123428D01*
X5551170Y8266684D02*
G01*
X5551170Y8150860D01*
X5558027Y8130286D01*
X5571743Y8123428D01*
X5585206Y8123428D01*
X5530850Y8218931D02*
G01*
X5578347Y8218931D01*
X5637022Y8218931D02*
G01*
X5677915Y8123428D01*
X5718809Y8218931D02*
G01*
X5677915Y8123428D01*
X5664454Y8096250D01*
X5650738Y8082534D01*
X5637022Y8075676D01*
X5630163Y8075676D01*
X5916675Y8266684D02*
G01*
X5916675Y8123428D01*
X5868924Y8266684D02*
G01*
X5964427Y8266684D01*
X6009386Y8178037D02*
G01*
X6091174Y8178037D01*
X6091174Y8191754D01*
X6084315Y8205215D01*
X6077458Y8212073D01*
X6063995Y8218931D01*
X6043422Y8218931D01*
X6029706Y8212073D01*
X6016243Y8198358D01*
X6009386Y8178037D01*
X6009386Y8164321D01*
X6016243Y8144002D01*
X6029706Y8130286D01*
X6043422Y8123428D01*
X6063995Y8123428D01*
X6077458Y8130286D01*
X6091174Y8144002D01*
X6211315Y8198358D02*
G01*
X6204458Y8212073D01*
X6183884Y8218931D01*
X6163563Y8218931D01*
X6142990Y8212073D01*
X6136131Y8198358D01*
X6142990Y8184895D01*
X6156706Y8178037D01*
X6190741Y8171179D01*
X6204458Y8164321D01*
X6211315Y8150860D01*
X6211315Y8144002D01*
X6204458Y8130286D01*
X6183884Y8123428D01*
X6163563Y8123428D01*
X6142990Y8130286D01*
X6136131Y8144002D01*
X6276593Y8266684D02*
G01*
X6276593Y8150860D01*
X6283452Y8130286D01*
X6297168Y8123428D01*
X6310629Y8123428D01*
X6256274Y8218931D02*
G01*
X6304025Y8218931D01*
X6355841Y8178037D02*
G01*
X6437629Y8178037D01*
X6437629Y8191754D01*
X6430772Y8205215D01*
X6423913Y8212073D01*
X6410197Y8218931D01*
X6389877Y8218931D01*
X6376161Y8212073D01*
X6362445Y8198358D01*
X6355841Y8178037D01*
X6355841Y8164321D01*
X6362445Y8144002D01*
X6376161Y8130286D01*
X6389877Y8123428D01*
X6410197Y8123428D01*
X6423913Y8130286D01*
X6437629Y8144002D01*
X6482588Y8218931D02*
G01*
X6482588Y8123428D01*
X6482588Y8178037D02*
G01*
X6489445Y8198358D01*
X6502908Y8212073D01*
X6516624Y8218931D01*
X6537197Y8218931D01*
X6687058Y8266684D02*
G01*
X6741668Y8123428D01*
X6796277Y8266684D02*
G01*
X6741668Y8123428D01*
X6854952Y8266684D02*
G01*
X6929881Y8266684D01*
X6888988Y8212073D01*
X6909308Y8212073D01*
X6923024Y8205215D01*
X6929881Y8198358D01*
X6936740Y8178037D01*
X6936740Y8164321D01*
X6929881Y8144002D01*
X6916165Y8130286D01*
X6895845Y8123428D01*
X6875272Y8123428D01*
X6854952Y8130286D01*
X6848093Y8137144D01*
X6841236Y8150860D01*
X6988556Y8157463D02*
G01*
X6981697Y8150860D01*
X6988556Y8144002D01*
X6995159Y8150860D01*
X6988556Y8157463D01*
X7081265Y8266684D02*
G01*
X7060691Y8259826D01*
X7046975Y8239505D01*
X7040372Y8205215D01*
X7040372Y8184895D01*
X7046975Y8150860D01*
X7060691Y8130286D01*
X7081265Y8123428D01*
X7094727Y8123428D01*
X7115302Y8130286D01*
X7129018Y8150860D01*
X7135622Y8184895D01*
X7135622Y8205215D01*
X7129018Y8239505D01*
X7115302Y8259826D01*
X7094727Y8266684D01*
X7081265Y8266684D01*
X5765805Y5162295D02*
G01*
X5862833Y5199126D01*
X5765805Y5236210D02*
G01*
X5862833Y5199126D01*
X5788919Y5336031D02*
G01*
X5779521Y5331205D01*
X5770377Y5322062D01*
X5765805Y5312918D01*
X5765805Y5294376D01*
X5770377Y5285231D01*
X5779521Y5275834D01*
X5788919Y5271262D01*
X5802635Y5266689D01*
X5825749Y5266689D01*
X5839719Y5271262D01*
X5848863Y5275834D01*
X5858007Y5285231D01*
X5862833Y5294376D01*
X5862833Y5312918D01*
X5858007Y5322062D01*
X5848863Y5331205D01*
X5839719Y5336031D01*
X5788919Y5435600D02*
G01*
X5779521Y5431028D01*
X5770377Y5421884D01*
X5765805Y5412486D01*
X5765805Y5394197D01*
X5770377Y5384800D01*
X5779521Y5375655D01*
X5788919Y5371084D01*
X5802635Y5366512D01*
X5825749Y5366512D01*
X5839719Y5371084D01*
X5848863Y5375655D01*
X5858007Y5384800D01*
X5862833Y5394197D01*
X5862833Y5412486D01*
X5858007Y5421884D01*
X5848863Y5431028D01*
X5839719Y5435600D01*
X5995421Y5275577D02*
G01*
X5986277Y5266179D01*
X5981705Y5252463D01*
X5981705Y5233921D01*
X5986277Y5219951D01*
X5995421Y5210807D01*
X6004819Y5210807D01*
X6013963Y5215379D01*
X6018535Y5219951D01*
X6023107Y5229349D01*
X6032505Y5257035D01*
X6037077Y5266179D01*
X6041649Y5270751D01*
X6051047Y5275577D01*
X6064763Y5275577D01*
X6073907Y5266179D01*
X6078733Y5252463D01*
X6078733Y5233921D01*
X6073907Y5219951D01*
X6064763Y5210807D01*
X6004819Y5375145D02*
G01*
X5995421Y5370573D01*
X5986277Y5361429D01*
X5981705Y5352031D01*
X5981705Y5333743D01*
X5986277Y5324345D01*
X5995421Y5315201D01*
X6004819Y5310629D01*
X6018535Y5306057D01*
X6041649Y5306057D01*
X6055619Y5310629D01*
X6064763Y5315201D01*
X6073907Y5324345D01*
X6078733Y5333743D01*
X6078733Y5352031D01*
X6073907Y5361429D01*
X6064763Y5370573D01*
X6055619Y5375145D01*
X5981705Y5405625D02*
G01*
X6078733Y5405625D01*
X6078733Y5405625D02*
G01*
X6078733Y5460997D01*
X6232143Y5246372D02*
G01*
X6223000Y5236974D01*
X6218427Y5223258D01*
X6218427Y5204716D01*
X6223000Y5190746D01*
X6232143Y5181602D01*
X6241541Y5181602D01*
X6250686Y5186174D01*
X6255258Y5190746D01*
X6259829Y5200144D01*
X6269227Y5227830D01*
X6273800Y5236974D01*
X6278372Y5241546D01*
X6287770Y5246372D01*
X6301486Y5246372D01*
X6310629Y5236974D01*
X6315456Y5223258D01*
X6315456Y5204716D01*
X6310629Y5190746D01*
X6301486Y5181602D01*
X6218427Y5276852D02*
G01*
X6315456Y5276852D01*
X6218427Y5276852D02*
G01*
X6218427Y5309110D01*
X6223000Y5322826D01*
X6232143Y5332224D01*
X6241541Y5336796D01*
X6255258Y5341368D01*
X6278372Y5341368D01*
X6292341Y5336796D01*
X6301486Y5332224D01*
X6310629Y5322826D01*
X6315456Y5309110D01*
X6315456Y5276852D01*
X6218427Y5408932D02*
G01*
X6315456Y5371848D01*
X6218427Y5408932D02*
G01*
X6315456Y5445762D01*
X6282943Y5385818D02*
G01*
X6282943Y5431792D01*
X5512561Y5250942D02*
G01*
X5503163Y5246370D01*
X5494020Y5236971D01*
X5489447Y5227828D01*
X5489447Y5209286D01*
X5494020Y5200142D01*
X5503163Y5190744D01*
X5512561Y5186171D01*
X5526277Y5181600D01*
X5549391Y5181600D01*
X5563361Y5186171D01*
X5572506Y5190744D01*
X5581650Y5200142D01*
X5586475Y5209286D01*
X5586475Y5227828D01*
X5581650Y5236971D01*
X5572506Y5246370D01*
X5563361Y5250942D01*
X5549391Y5250942D01*
X5549391Y5227828D02*
G01*
X5549391Y5250942D01*
X5489447Y5281421D02*
G01*
X5586475Y5281421D01*
X5489447Y5281421D02*
G01*
X5586475Y5345937D01*
X5489447Y5345937D02*
G01*
X5586475Y5345937D01*
X5489447Y5376418D02*
G01*
X5586475Y5376418D01*
X5489447Y5376418D02*
G01*
X5489447Y5408929D01*
X5494020Y5422645D01*
X5503163Y5431789D01*
X5512561Y5436615D01*
X5526277Y5441187D01*
X5549391Y5441187D01*
X5563361Y5436615D01*
X5572506Y5431789D01*
X5581650Y5422645D01*
X5586475Y5408929D01*
X5586475Y5376418D01*
D11*
X7886700Y1604771D02*
G01*
X7901177Y1553718D01*
X7915909Y1604771D02*
G01*
X7901177Y1553718D01*
X7915909Y1604771D02*
G01*
X7930388Y1553718D01*
X7944865Y1604771D02*
G01*
X7930388Y1553718D01*
X7968995Y1604771D02*
G01*
X7983474Y1553718D01*
X7997952Y1604771D02*
G01*
X7983474Y1553718D01*
X7997952Y1604771D02*
G01*
X8012429Y1553718D01*
X8027161Y1604771D02*
G01*
X8012429Y1553718D01*
X8051038Y1604771D02*
G01*
X8065515Y1553718D01*
X8080247Y1604771D02*
G01*
X8065515Y1553718D01*
X8080247Y1604771D02*
G01*
X8094725Y1553718D01*
X8109204Y1604771D02*
G01*
X8094725Y1553718D01*
X8136890Y1572005D02*
G01*
X8133334Y1568195D01*
X8136890Y1564639D01*
X8140445Y1568195D01*
X8136890Y1572005D01*
X8182609Y1604771D02*
G01*
X8175497Y1600962D01*
X8168131Y1593850D01*
X8164575Y1582928D01*
X8164575Y1575562D01*
X8168131Y1564639D01*
X8175497Y1557273D01*
X8182609Y1553718D01*
X8193531Y1553718D01*
X8200897Y1557273D01*
X8208263Y1564639D01*
X8211820Y1575562D01*
X8211820Y1582928D01*
X8208263Y1593850D01*
X8200897Y1600962D01*
X8193531Y1604771D01*
X8182609Y1604771D01*
X8235695Y1604771D02*
G01*
X8235695Y1528318D01*
X8235695Y1593850D02*
G01*
X8243061Y1600962D01*
X8250427Y1604771D01*
X8261350Y1604771D01*
X8268461Y1600962D01*
X8275827Y1593850D01*
X8279384Y1582928D01*
X8279384Y1575562D01*
X8275827Y1564639D01*
X8268461Y1557273D01*
X8261350Y1553718D01*
X8250427Y1553718D01*
X8243061Y1557273D01*
X8235695Y1564639D01*
X8303513Y1582928D02*
G01*
X8346947Y1582928D01*
X8346947Y1590039D01*
X8343391Y1597405D01*
X8339836Y1600962D01*
X8332470Y1604771D01*
X8321547Y1604771D01*
X8314436Y1600962D01*
X8307070Y1593850D01*
X8303513Y1582928D01*
X8303513Y1575562D01*
X8307070Y1564639D01*
X8314436Y1557273D01*
X8321547Y1553718D01*
X8332470Y1553718D01*
X8339836Y1557273D01*
X8346947Y1564639D01*
X8371077Y1604771D02*
G01*
X8371077Y1553718D01*
X8371077Y1590039D02*
G01*
X8382000Y1600962D01*
X8389365Y1604771D01*
X8400034Y1604771D01*
X8407400Y1600962D01*
X8410956Y1590039D01*
X8410956Y1553718D01*
X8478774Y1604771D02*
G01*
X8478774Y1546605D01*
X8474963Y1535684D01*
X8471408Y1531873D01*
X8464041Y1528318D01*
X8453120Y1528318D01*
X8446008Y1531873D01*
X8478774Y1593850D02*
G01*
X8471408Y1600962D01*
X8464041Y1604771D01*
X8453120Y1604771D01*
X8446008Y1600962D01*
X8438641Y1593850D01*
X8435086Y1582928D01*
X8435086Y1575562D01*
X8438641Y1564639D01*
X8446008Y1557273D01*
X8453120Y1553718D01*
X8464041Y1553718D01*
X8471408Y1557273D01*
X8478774Y1564639D01*
X8502650Y1604771D02*
G01*
X8502650Y1553718D01*
X8502650Y1582928D02*
G01*
X8506459Y1593850D01*
X8513572Y1600962D01*
X8520938Y1604771D01*
X8531859Y1604771D01*
X8555736Y1582928D02*
G01*
X8599424Y1582928D01*
X8599424Y1590039D01*
X8595868Y1597405D01*
X8592058Y1600962D01*
X8584945Y1604771D01*
X8574024Y1604771D01*
X8566658Y1600962D01*
X8559545Y1593850D01*
X8555736Y1582928D01*
X8555736Y1575562D01*
X8559545Y1564639D01*
X8566658Y1557273D01*
X8574024Y1553718D01*
X8584945Y1553718D01*
X8592058Y1557273D01*
X8599424Y1564639D01*
X8623300Y1582928D02*
G01*
X8666988Y1582928D01*
X8666988Y1590039D01*
X8663431Y1597405D01*
X8659875Y1600962D01*
X8652509Y1604771D01*
X8641588Y1604771D01*
X8634222Y1600962D01*
X8627109Y1593850D01*
X8623300Y1582928D01*
X8623300Y1575562D01*
X8627109Y1564639D01*
X8634222Y1557273D01*
X8641588Y1553718D01*
X8652509Y1553718D01*
X8659875Y1557273D01*
X8666988Y1564639D01*
X8691118Y1604771D02*
G01*
X8691118Y1553718D01*
X8691118Y1590039D02*
G01*
X8702040Y1600962D01*
X8709152Y1604771D01*
X8720074Y1604771D01*
X8727440Y1600962D01*
X8730995Y1590039D01*
X8730995Y1553718D01*
X8755125Y1582928D02*
G01*
X8798813Y1582928D01*
X8798813Y1590039D01*
X8795004Y1597405D01*
X8791447Y1600962D01*
X8784081Y1604771D01*
X8773159Y1604771D01*
X8766047Y1600962D01*
X8758681Y1593850D01*
X8755125Y1582928D01*
X8755125Y1575562D01*
X8758681Y1564639D01*
X8766047Y1557273D01*
X8773159Y1553718D01*
X8784081Y1553718D01*
X8791447Y1557273D01*
X8798813Y1564639D01*
X8822690Y1604771D02*
G01*
X8822690Y1553718D01*
X8822690Y1590039D02*
G01*
X8833611Y1600962D01*
X8840977Y1604771D01*
X8851900Y1604771D01*
X8859011Y1600962D01*
X8862822Y1590039D01*
X8862822Y1553718D01*
X8886697Y1582928D02*
G01*
X8930386Y1582928D01*
X8930386Y1590039D01*
X8926575Y1597405D01*
X8923020Y1600962D01*
X8915908Y1604771D01*
X8904986Y1604771D01*
X8897620Y1600962D01*
X8890254Y1593850D01*
X8886697Y1582928D01*
X8886697Y1575562D01*
X8890254Y1564639D01*
X8897620Y1557273D01*
X8904986Y1553718D01*
X8915908Y1553718D01*
X8923020Y1557273D01*
X8930386Y1564639D01*
X8954261Y1604771D02*
G01*
X8954261Y1553718D01*
X8954261Y1582928D02*
G01*
X8958072Y1593850D01*
X8965184Y1600962D01*
X8972550Y1604771D01*
X8983472Y1604771D01*
X9051036Y1604771D02*
G01*
X9051036Y1546605D01*
X9047479Y1535684D01*
X9043670Y1531873D01*
X9036558Y1528318D01*
X9025636Y1528318D01*
X9018270Y1531873D01*
X9051036Y1593850D02*
G01*
X9043670Y1600962D01*
X9036558Y1604771D01*
X9025636Y1604771D01*
X9018270Y1600962D01*
X9011158Y1593850D01*
X9007347Y1582928D01*
X9007347Y1575562D01*
X9011158Y1564639D01*
X9018270Y1557273D01*
X9025636Y1553718D01*
X9036558Y1553718D01*
X9043670Y1557273D01*
X9051036Y1564639D01*
X9078722Y1604771D02*
G01*
X9100565Y1553718D01*
X9122409Y1604771D02*
G01*
X9100565Y1553718D01*
X9093200Y1539239D01*
X9086088Y1531873D01*
X9078722Y1528318D01*
X9075165Y1528318D01*
X9150095Y1572005D02*
G01*
X9146286Y1568195D01*
X9150095Y1564639D01*
X9153652Y1568195D01*
X9150095Y1572005D01*
X9221215Y1593850D02*
G01*
X9213850Y1600962D01*
X9206738Y1604771D01*
X9195815Y1604771D01*
X9188450Y1600962D01*
X9181338Y1593850D01*
X9177527Y1582928D01*
X9177527Y1575562D01*
X9181338Y1564639D01*
X9188450Y1557273D01*
X9195815Y1553718D01*
X9206738Y1553718D01*
X9213850Y1557273D01*
X9221215Y1564639D01*
X9263379Y1604771D02*
G01*
X9256268Y1600962D01*
X9248902Y1593850D01*
X9245345Y1582928D01*
X9245345Y1575562D01*
X9248902Y1564639D01*
X9256268Y1557273D01*
X9263379Y1553718D01*
X9274302Y1553718D01*
X9281668Y1557273D01*
X9288779Y1564639D01*
X9292590Y1575562D01*
X9292590Y1582928D01*
X9288779Y1593850D01*
X9281668Y1600962D01*
X9274302Y1604771D01*
X9263379Y1604771D01*
X9316465Y1604771D02*
G01*
X9316465Y1553718D01*
X9316465Y1590039D02*
G01*
X9327388Y1600962D01*
X9334754Y1604771D01*
X9345675Y1604771D01*
X9352788Y1600962D01*
X9356597Y1590039D01*
X9356597Y1553718D01*
X9356597Y1590039D02*
G01*
X9367520Y1600962D01*
X9374631Y1604771D01*
X9385554Y1604771D01*
X9392920Y1600962D01*
X9396475Y1590039D01*
X9396475Y1553718D01*
D10*
X4140200Y7089647D02*
G01*
X4158741Y7098792D01*
X4186427Y7126478D01*
X4186427Y6932676D01*
X4293615Y7126478D02*
G01*
X4265929Y7117334D01*
X4256531Y7098792D01*
X4256531Y7080250D01*
X4265929Y7061962D01*
X4284218Y7052563D01*
X4321302Y7043420D01*
X4348988Y7034276D01*
X4367529Y7015734D01*
X4376674Y6997192D01*
X4376674Y6969505D01*
X4367529Y6950963D01*
X4358131Y6941820D01*
X4330445Y6932676D01*
X4293615Y6932676D01*
X4265929Y6941820D01*
X4256531Y6950963D01*
X4247388Y6969505D01*
X4247388Y6997192D01*
X4256531Y7015734D01*
X4275074Y7034276D01*
X4302759Y7043420D01*
X4339590Y7052563D01*
X4358131Y7061962D01*
X4367529Y7080250D01*
X4367529Y7098792D01*
X4358131Y7117334D01*
X4330445Y7126478D01*
X4293615Y7126478D01*
X4548377Y7098792D02*
G01*
X4539234Y7117334D01*
X4511547Y7126478D01*
X4493006Y7126478D01*
X4465320Y7117334D01*
X4446777Y7089647D01*
X4437634Y7043420D01*
X4437634Y6997192D01*
X4446777Y6960362D01*
X4465320Y6941820D01*
X4493006Y6932676D01*
X4502150Y6932676D01*
X4530090Y6941820D01*
X4548377Y6960362D01*
X4557775Y6988047D01*
X4557775Y6997192D01*
X4548377Y7024878D01*
X4530090Y7043420D01*
X4502150Y7052563D01*
X4493006Y7052563D01*
X4465320Y7043420D01*
X4446777Y7024878D01*
X4437634Y6997192D01*
X4729479Y7126478D02*
G01*
X4637024Y7126478D01*
X4627879Y7043420D01*
X4637024Y7052563D01*
X4664709Y7061962D01*
X4692650Y7061962D01*
X4720336Y7052563D01*
X4738624Y7034276D01*
X4748022Y7006589D01*
X4748022Y6988047D01*
X4738624Y6960362D01*
X4720336Y6941820D01*
X4692650Y6932676D01*
X4664709Y6932676D01*
X4637024Y6941820D01*
X4627879Y6950963D01*
X4618736Y6969505D01*
X4864354Y7126478D02*
G01*
X4836668Y7117334D01*
X4818125Y7089647D01*
X4808981Y7043420D01*
X4808981Y7015734D01*
X4818125Y6969505D01*
X4836668Y6941820D01*
X4864354Y6932676D01*
X4882895Y6932676D01*
X4910581Y6941820D01*
X4928870Y6969505D01*
X4938268Y7015734D01*
X4938268Y7043420D01*
X4928870Y7089647D01*
X4910581Y7117334D01*
X4882895Y7126478D01*
X4864354Y7126478D01*
X5141468Y7126478D02*
G01*
X5141468Y6932676D01*
X5141468Y6932676D02*
G01*
X5252211Y6932676D01*
X5313172Y7126478D02*
G01*
X5322570Y7117334D01*
X5331713Y7126478D01*
X5322570Y7135876D01*
X5313172Y7126478D01*
X5322570Y7061962D02*
G01*
X5322570Y6932676D01*
X5392674Y7126478D02*
G01*
X5392674Y6932676D01*
X5499861Y7061962D02*
G01*
X5481320Y7052563D01*
X5462777Y7034276D01*
X5453634Y7006589D01*
X5453634Y6988047D01*
X5462777Y6960362D01*
X5481320Y6941820D01*
X5499861Y6932676D01*
X5527547Y6932676D01*
X5546090Y6941820D01*
X5564377Y6960362D01*
X5573775Y6988047D01*
X5573775Y7006589D01*
X5564377Y7034276D01*
X5546090Y7052563D01*
X5527547Y7061962D01*
X5499861Y7061962D01*
X5634736Y7061962D02*
G01*
X5634736Y6932676D01*
X5634736Y7024878D02*
G01*
X5662422Y7052563D01*
X5680709Y7061962D01*
X5708650Y7061962D01*
X5726938Y7052563D01*
X5736336Y7024878D01*
X5736336Y6932676D01*
X5939536Y7126478D02*
G01*
X5939536Y6932676D01*
X5939536Y7126478D02*
G01*
X6022593Y7126478D01*
X6050279Y7117334D01*
X6059424Y7108189D01*
X6068822Y7089647D01*
X6068822Y7071105D01*
X6059424Y7052563D01*
X6050279Y7043420D01*
X6022593Y7034276D01*
X5939536Y7034276D02*
G01*
X6022593Y7034276D01*
X6050279Y7024878D01*
X6059424Y7015734D01*
X6068822Y6997192D01*
X6068822Y6969505D01*
X6059424Y6950963D01*
X6050279Y6941820D01*
X6022593Y6932676D01*
X5939536Y6932676D01*
X6240525Y7061962D02*
G01*
X6240525Y6932676D01*
X6240525Y7034276D02*
G01*
X6221984Y7052563D01*
X6203695Y7061962D01*
X6176009Y7061962D01*
X6157468Y7052563D01*
X6138925Y7034276D01*
X6129781Y7006589D01*
X6129781Y6988047D01*
X6138925Y6960362D01*
X6157468Y6941820D01*
X6176009Y6932676D01*
X6203695Y6932676D01*
X6221984Y6941820D01*
X6240525Y6960362D01*
X6329172Y7126478D02*
G01*
X6329172Y6969505D01*
X6338570Y6941820D01*
X6356858Y6932676D01*
X6375400Y6932676D01*
X6301486Y7061962D02*
G01*
X6366256Y7061962D01*
X6464045Y7126478D02*
G01*
X6464045Y6969505D01*
X6473190Y6941820D01*
X6491731Y6932676D01*
X6510274Y6932676D01*
X6436359Y7061962D02*
G01*
X6501129Y7061962D01*
X6571234Y7006589D02*
G01*
X6681977Y7006589D01*
X6681977Y7024878D01*
X6672834Y7043420D01*
X6663690Y7052563D01*
X6645147Y7061962D01*
X6617461Y7061962D01*
X6598920Y7052563D01*
X6580377Y7034276D01*
X6571234Y7006589D01*
X6571234Y6988047D01*
X6580377Y6960362D01*
X6598920Y6941820D01*
X6617461Y6932676D01*
X6645147Y6932676D01*
X6663690Y6941820D01*
X6681977Y6960362D01*
X6742938Y7061962D02*
G01*
X6742938Y6932676D01*
X6742938Y7006589D02*
G01*
X6752336Y7034276D01*
X6770624Y7052563D01*
X6789165Y7061962D01*
X6816852Y7061962D01*
X6887209Y7061962D02*
G01*
X6942581Y6932676D01*
X6997954Y7061962D02*
G01*
X6942581Y6932676D01*
X6924040Y6895592D01*
X6905497Y6877050D01*
X6887209Y6867905D01*
X6877811Y6867905D01*
X10141458Y7073392D02*
G01*
X10141458Y6907276D01*
X10058400Y6990334D02*
G01*
X10224770Y6990334D01*
X850900Y7028434D02*
G01*
X1017270Y7028434D01*
X9514331Y5829300D02*
G01*
X9514331Y5698236D01*
X9448800Y5763768D02*
G01*
X9579609Y5763768D01*
D12*
X920242Y4115815D02*
G01*
X909828Y4110736D01*
X899413Y4100321D01*
X894079Y4089907D01*
X889000Y4074160D01*
X889000Y4048252D01*
X894079Y4032757D01*
X899413Y4022344D01*
X909828Y4011929D01*
X920242Y4006850D01*
X941070Y4006850D01*
X951229Y4011929D01*
X961644Y4022344D01*
X966978Y4032757D01*
X972057Y4048252D01*
X972057Y4074160D01*
X966978Y4089907D01*
X961644Y4100321D01*
X951229Y4110736D01*
X941070Y4115815D01*
X920242Y4115815D01*
X1006347Y4115815D02*
G01*
X1006347Y4006850D01*
X1006347Y4115815D02*
G01*
X1079245Y4006850D01*
X1079245Y4115815D02*
G01*
X1079245Y4006850D01*
X907542Y2452115D02*
G01*
X897128Y2447036D01*
X886713Y2436621D01*
X881379Y2426207D01*
X876300Y2410460D01*
X876300Y2384552D01*
X881379Y2369057D01*
X886713Y2358644D01*
X897128Y2348229D01*
X907542Y2343150D01*
X928370Y2343150D01*
X938529Y2348229D01*
X948944Y2358644D01*
X954278Y2369057D01*
X959357Y2384552D01*
X959357Y2410460D01*
X954278Y2426207D01*
X948944Y2436621D01*
X938529Y2447036D01*
X928370Y2452115D01*
X907542Y2452115D01*
X993647Y2452115D02*
G01*
X993647Y2343150D01*
X993647Y2452115D02*
G01*
X1061212Y2452115D01*
X993647Y2400300D02*
G01*
X1035304Y2400300D01*
X1095502Y2452115D02*
G01*
X1095502Y2343150D01*
X1095502Y2452115D02*
G01*
X1163065Y2452115D01*
X1095502Y2400300D02*
G01*
X1137157Y2400300D01*
X1130300Y6046215D02*
G01*
X1130300Y5937250D01*
X1130300Y6046215D02*
G01*
X1166621Y6046215D01*
X1182370Y6041136D01*
X1192529Y6030721D01*
X1197863Y6020307D01*
X1202944Y6004560D01*
X1202944Y5978652D01*
X1197863Y5963157D01*
X1192529Y5952744D01*
X1182370Y5942329D01*
X1166621Y5937250D01*
X1130300Y5937250D01*
X1237234Y6025387D02*
G01*
X1247647Y6030721D01*
X1263395Y6046215D01*
X1263395Y5937250D01*
X8180577Y2654807D02*
G01*
X8175243Y2665221D01*
X8164829Y2675636D01*
X8154670Y2680715D01*
X8133841Y2680715D01*
X8123427Y2675636D01*
X8113013Y2665221D01*
X8107679Y2654807D01*
X8102600Y2639060D01*
X8102600Y2613152D01*
X8107679Y2597657D01*
X8113013Y2587244D01*
X8123427Y2576829D01*
X8133841Y2571750D01*
X8154670Y2571750D01*
X8164829Y2576829D01*
X8175243Y2587244D01*
X8180577Y2597657D01*
X8214868Y2659887D02*
G01*
X8225281Y2665221D01*
X8240775Y2680715D01*
X8240775Y2571750D01*
X8280400Y2654807D02*
G01*
X8280400Y2659887D01*
X8285479Y2670302D01*
X8290559Y2675636D01*
X8300974Y2680715D01*
X8321802Y2680715D01*
X8332215Y2675636D01*
X8337550Y2670302D01*
X8342629Y2659887D01*
X8342629Y2649473D01*
X8337550Y2639060D01*
X8327136Y2623565D01*
X8275065Y2571750D01*
X8347709Y2571750D01*
X5310377Y2667507D02*
G01*
X5305043Y2677921D01*
X5294629Y2688336D01*
X5284470Y2693415D01*
X5263641Y2693415D01*
X5253227Y2688336D01*
X5242813Y2677921D01*
X5237479Y2667507D01*
X5232400Y2651760D01*
X5232400Y2625852D01*
X5237479Y2610357D01*
X5242813Y2599944D01*
X5253227Y2589529D01*
X5263641Y2584450D01*
X5284470Y2584450D01*
X5294629Y2589529D01*
X5305043Y2599944D01*
X5310377Y2610357D01*
X5412231Y2657094D02*
G01*
X5406897Y2641600D01*
X5396484Y2631186D01*
X5380990Y2625852D01*
X5375909Y2625852D01*
X5360161Y2631186D01*
X5349747Y2641600D01*
X5344668Y2657094D01*
X5344668Y2662173D01*
X5349747Y2677921D01*
X5360161Y2688336D01*
X5375909Y2693415D01*
X5380990Y2693415D01*
X5396484Y2688336D01*
X5406897Y2677921D01*
X5412231Y2657094D01*
X5412231Y2631186D01*
X5406897Y2605023D01*
X5396484Y2589529D01*
X5380990Y2584450D01*
X5370575Y2584450D01*
X5355081Y2589529D01*
X5349747Y2599944D01*
X6529577Y2654807D02*
G01*
X6524243Y2665221D01*
X6513829Y2675636D01*
X6503670Y2680715D01*
X6482841Y2680715D01*
X6472427Y2675636D01*
X6462013Y2665221D01*
X6456679Y2654807D01*
X6451600Y2639060D01*
X6451600Y2613152D01*
X6456679Y2597657D01*
X6462013Y2587244D01*
X6472427Y2576829D01*
X6482841Y2571750D01*
X6503670Y2571750D01*
X6513829Y2576829D01*
X6524243Y2587244D01*
X6529577Y2597657D01*
X6563868Y2659887D02*
G01*
X6574281Y2665221D01*
X6589775Y2680715D01*
X6589775Y2571750D01*
X6655308Y2680715D02*
G01*
X6639559Y2675636D01*
X6629400Y2659887D01*
X6624065Y2633979D01*
X6624065Y2618486D01*
X6629400Y2592323D01*
X6639559Y2576829D01*
X6655308Y2571750D01*
X6665722Y2571750D01*
X6681215Y2576829D01*
X6691629Y2592323D01*
X6696709Y2618486D01*
X6696709Y2633979D01*
X6691629Y2659887D01*
X6681215Y2675636D01*
X6665722Y2680715D01*
X6655308Y2680715D01*
X7697977Y2654807D02*
G01*
X7692643Y2665221D01*
X7682229Y2675636D01*
X7672070Y2680715D01*
X7651241Y2680715D01*
X7640827Y2675636D01*
X7630413Y2665221D01*
X7625079Y2654807D01*
X7620000Y2639060D01*
X7620000Y2613152D01*
X7625079Y2597657D01*
X7630413Y2587244D01*
X7640827Y2576829D01*
X7651241Y2571750D01*
X7672070Y2571750D01*
X7682229Y2576829D01*
X7692643Y2587244D01*
X7697977Y2597657D01*
X7732268Y2659887D02*
G01*
X7742681Y2665221D01*
X7758175Y2680715D01*
X7758175Y2571750D01*
X7792465Y2659887D02*
G01*
X7802879Y2665221D01*
X7818374Y2680715D01*
X7818374Y2571750D01*
X5219700Y2299715D02*
G01*
X5219700Y2190750D01*
X5219700Y2299715D02*
G01*
X5266436Y2299715D01*
X5281929Y2294636D01*
X5287263Y2289302D01*
X5292343Y2278887D01*
X5292343Y2268473D01*
X5287263Y2258060D01*
X5281929Y2252979D01*
X5266436Y2247900D01*
X5219700Y2247900D01*
X5256022Y2247900D02*
G01*
X5292343Y2190750D01*
X5326634Y2278887D02*
G01*
X5337047Y2284221D01*
X5352795Y2299715D01*
X5352795Y2190750D01*
X5412993Y2299715D02*
G01*
X5397500Y2294636D01*
X5392165Y2284221D01*
X5392165Y2273807D01*
X5397500Y2263394D01*
X5407659Y2258060D01*
X5428488Y2252979D01*
X5444236Y2247900D01*
X5454650Y2237486D01*
X5459729Y2227071D01*
X5459729Y2211323D01*
X5454650Y2200910D01*
X5449315Y2195829D01*
X5433822Y2190750D01*
X5412993Y2190750D01*
X5397500Y2195829D01*
X5392165Y2200910D01*
X5387086Y2211323D01*
X5387086Y2227071D01*
X5392165Y2237486D01*
X5402579Y2247900D01*
X5418074Y2252979D01*
X5438902Y2258060D01*
X5449315Y2263394D01*
X5454650Y2273807D01*
X5454650Y2284221D01*
X5449315Y2294636D01*
X5433822Y2299715D01*
X5412993Y2299715D01*
X6438900Y2287015D02*
G01*
X6438900Y2178050D01*
X6438900Y2287015D02*
G01*
X6485636Y2287015D01*
X6501129Y2281936D01*
X6506463Y2276602D01*
X6511543Y2266187D01*
X6511543Y2255773D01*
X6506463Y2245360D01*
X6501129Y2240279D01*
X6485636Y2235200D01*
X6438900Y2235200D01*
X6475222Y2235200D02*
G01*
X6511543Y2178050D01*
X6545834Y2266187D02*
G01*
X6556247Y2271521D01*
X6571995Y2287015D01*
X6571995Y2178050D01*
X6673850Y2250694D02*
G01*
X6668515Y2235200D01*
X6658102Y2224786D01*
X6642608Y2219452D01*
X6637274Y2219452D01*
X6621779Y2224786D01*
X6611365Y2235200D01*
X6606286Y2250694D01*
X6606286Y2255773D01*
X6611365Y2271521D01*
X6621779Y2281936D01*
X6637274Y2287015D01*
X6642608Y2287015D01*
X6658102Y2281936D01*
X6668515Y2271521D01*
X6673850Y2250694D01*
X6673850Y2224786D01*
X6668515Y2198623D01*
X6658102Y2183129D01*
X6642608Y2178050D01*
X6632193Y2178050D01*
X6616700Y2183129D01*
X6611365Y2193544D01*
X7632700Y2299715D02*
G01*
X7632700Y2190750D01*
X7632700Y2299715D02*
G01*
X7679436Y2299715D01*
X7694929Y2294636D01*
X7700263Y2289302D01*
X7705343Y2278887D01*
X7705343Y2268473D01*
X7700263Y2258060D01*
X7694929Y2252979D01*
X7679436Y2247900D01*
X7632700Y2247900D01*
X7669022Y2247900D02*
G01*
X7705343Y2190750D01*
X7744968Y2273807D02*
G01*
X7744968Y2278887D01*
X7750047Y2289302D01*
X7755381Y2294636D01*
X7765795Y2299715D01*
X7786370Y2299715D01*
X7796784Y2294636D01*
X7802118Y2289302D01*
X7807197Y2278887D01*
X7807197Y2268473D01*
X7802118Y2258060D01*
X7791704Y2242565D01*
X7739634Y2190750D01*
X7812531Y2190750D01*
X7877809Y2299715D02*
G01*
X7862315Y2294636D01*
X7851902Y2278887D01*
X7846822Y2252979D01*
X7846822Y2237486D01*
X7851902Y2211323D01*
X7862315Y2195829D01*
X7877809Y2190750D01*
X7888224Y2190750D01*
X7903972Y2195829D01*
X7914386Y2211323D01*
X7919465Y2237486D01*
X7919465Y2252979D01*
X7914386Y2278887D01*
X7903972Y2294636D01*
X7888224Y2299715D01*
X7877809Y2299715D01*
X9272015Y5562600D02*
G01*
X9163050Y5562600D01*
X9272015Y5562600D02*
G01*
X9272015Y5526278D01*
X9266936Y5510529D01*
X9256522Y5500370D01*
X9246108Y5495036D01*
X9230359Y5489955D01*
X9204452Y5489955D01*
X9188958Y5495036D01*
X9178543Y5500370D01*
X9168129Y5510529D01*
X9163050Y5526278D01*
X9163050Y5562600D01*
X9246108Y5450331D02*
G01*
X9251188Y5450331D01*
X9261602Y5445252D01*
X9266936Y5439918D01*
X9272015Y5429504D01*
X9272015Y5408929D01*
X9266936Y5398515D01*
X9261602Y5393181D01*
X9251188Y5388102D01*
X9240774Y5388102D01*
X9230359Y5393181D01*
X9214865Y5403595D01*
X9163050Y5455665D01*
X9163050Y5382768D01*
X2933700Y3861815D02*
G01*
X2933700Y3783837D01*
X2938779Y3768344D01*
X2949193Y3757929D01*
X2964941Y3752850D01*
X2975356Y3752850D01*
X2990850Y3757929D01*
X3001263Y3768344D01*
X3006343Y3783837D01*
X3006343Y3861815D01*
X3092704Y3861815D02*
G01*
X3040634Y3789171D01*
X3118611Y3789171D01*
X3092704Y3861815D02*
G01*
X3092704Y3752850D01*
D13*
X3322065Y1833371D02*
G01*
X3345179Y1893823D01*
X3322065Y1833371D02*
G01*
X3298952Y1893823D01*
X3336543Y1873757D02*
G01*
X3307588Y1873757D01*
X3262629Y1833371D02*
G01*
X3271265Y1836165D01*
X3277108Y1844802D01*
X3279902Y1859279D01*
X3279902Y1867915D01*
X3277108Y1882394D01*
X3271265Y1891029D01*
X3262629Y1893823D01*
X3256788Y1893823D01*
X3248152Y1891029D01*
X3242309Y1882394D01*
X3239515Y1867915D01*
X3239515Y1859279D01*
X3242309Y1844802D01*
X3248152Y1836165D01*
X3256788Y1833371D01*
X3262629Y1833371D01*
X3322065Y2087371D02*
G01*
X3345179Y2147823D01*
X3322065Y2087371D02*
G01*
X3298952Y2147823D01*
X3336543Y2127757D02*
G01*
X3307588Y2127757D01*
X3279902Y2098802D02*
G01*
X3274059Y2096007D01*
X3265424Y2087371D01*
X3265424Y2147823D01*
X3322065Y2341371D02*
G01*
X3345179Y2401823D01*
X3322065Y2341371D02*
G01*
X3298952Y2401823D01*
X3336543Y2381757D02*
G01*
X3307588Y2381757D01*
X3277108Y2355850D02*
G01*
X3277108Y2352802D01*
X3274059Y2346960D01*
X3271265Y2344165D01*
X3265424Y2341371D01*
X3253993Y2341371D01*
X3248152Y2344165D01*
X3245358Y2346960D01*
X3242309Y2352802D01*
X3242309Y2358644D01*
X3245358Y2364486D01*
X3251200Y2373121D01*
X3279902Y2401823D01*
X3239515Y2401823D01*
X3322065Y2595371D02*
G01*
X3345179Y2655823D01*
X3322065Y2595371D02*
G01*
X3298952Y2655823D01*
X3336543Y2635757D02*
G01*
X3307588Y2635757D01*
X3274059Y2595371D02*
G01*
X3242309Y2595371D01*
X3259836Y2618486D01*
X3251200Y2618486D01*
X3245358Y2621279D01*
X3242309Y2624073D01*
X3239515Y2632710D01*
X3239515Y2638552D01*
X3242309Y2647187D01*
X3248152Y2653029D01*
X3256788Y2655823D01*
X3265424Y2655823D01*
X3274059Y2653029D01*
X3277108Y2650236D01*
X3279902Y2644394D01*
X3299713Y2858007D02*
G01*
X3305556Y2852165D01*
X3314191Y2849371D01*
X3325622Y2849371D01*
X3334258Y2852165D01*
X3340100Y2858007D01*
X3340100Y2863850D01*
X3337306Y2869437D01*
X3334258Y2872486D01*
X3328670Y2875279D01*
X3311143Y2881121D01*
X3305556Y2883915D01*
X3302508Y2886710D01*
X3299713Y2892552D01*
X3299713Y2901187D01*
X3305556Y2907029D01*
X3314191Y2909823D01*
X3325622Y2909823D01*
X3334258Y2907029D01*
X3340100Y2901187D01*
X3280663Y2849371D02*
G01*
X3280663Y2909823D01*
X3280663Y2849371D02*
G01*
X3260343Y2849371D01*
X3251708Y2852165D01*
X3246120Y2858007D01*
X3243072Y2863850D01*
X3240277Y2872486D01*
X3240277Y2886710D01*
X3243072Y2895600D01*
X3246120Y2901187D01*
X3251708Y2907029D01*
X3260343Y2909823D01*
X3280663Y2909823D01*
X3198113Y2849371D02*
G01*
X3221227Y2909823D01*
X3198113Y2849371D02*
G01*
X3175000Y2909823D01*
X3212591Y2889757D02*
G01*
X3183636Y2889757D01*
X3299713Y3112007D02*
G01*
X3305556Y3106165D01*
X3314191Y3103371D01*
X3325622Y3103371D01*
X3334258Y3106165D01*
X3340100Y3112007D01*
X3340100Y3117850D01*
X3337306Y3123437D01*
X3334258Y3126486D01*
X3328670Y3129279D01*
X3311143Y3135121D01*
X3305556Y3137915D01*
X3302508Y3140710D01*
X3299713Y3146552D01*
X3299713Y3155187D01*
X3305556Y3161029D01*
X3314191Y3163823D01*
X3325622Y3163823D01*
X3334258Y3161029D01*
X3340100Y3155187D01*
X3237229Y3117850D02*
G01*
X3240277Y3112007D01*
X3246120Y3106165D01*
X3251708Y3103371D01*
X3263391Y3103371D01*
X3268979Y3106165D01*
X3274822Y3112007D01*
X3277870Y3117850D01*
X3280663Y3126486D01*
X3280663Y3140710D01*
X3277870Y3149600D01*
X3274822Y3155187D01*
X3268979Y3161029D01*
X3263391Y3163823D01*
X3251708Y3163823D01*
X3246120Y3161029D01*
X3240277Y3155187D01*
X3237229Y3149600D01*
X3218179Y3103371D02*
G01*
X3218179Y3163823D01*
X3218179Y3163823D02*
G01*
X3183636Y3163823D01*
X3319779Y3357371D02*
G01*
X3319779Y3417823D01*
X3340100Y3357371D02*
G01*
X3299713Y3357371D01*
X3280663Y3357371D02*
G01*
X3240277Y3417823D01*
X3240277Y3357371D02*
G01*
X3280663Y3417823D01*
X2100427Y3357371D02*
G01*
X2100427Y3417823D01*
X2100427Y3357371D02*
G01*
X2074519Y3357371D01*
X2065883Y3360165D01*
X2062835Y3362960D01*
X2060041Y3368802D01*
X2060041Y3374644D01*
X2062835Y3380486D01*
X2065883Y3383279D01*
X2074519Y3386073D01*
X2100427Y3386073D01*
X2080107Y3386073D02*
G01*
X2060041Y3417823D01*
X2040991Y3357371D02*
G01*
X2000605Y3417823D01*
X2000605Y3357371D02*
G01*
X2040991Y3417823D01*
X2122525Y3112007D02*
G01*
X2128367Y3106165D01*
X2137003Y3103371D01*
X2148433Y3103371D01*
X2157069Y3106165D01*
X2162911Y3112007D01*
X2162911Y3117850D01*
X2160117Y3123437D01*
X2157069Y3126486D01*
X2151481Y3129279D01*
X2133955Y3135121D01*
X2128367Y3137915D01*
X2125319Y3140710D01*
X2122525Y3146552D01*
X2122525Y3155187D01*
X2128367Y3161029D01*
X2137003Y3163823D01*
X2148433Y3163823D01*
X2157069Y3161029D01*
X2162911Y3155187D01*
X2060041Y3117850D02*
G01*
X2063089Y3112007D01*
X2068931Y3106165D01*
X2074519Y3103371D01*
X2086203Y3103371D01*
X2091791Y3106165D01*
X2097633Y3112007D01*
X2100681Y3117850D01*
X2103475Y3126486D01*
X2103475Y3140710D01*
X2100681Y3149600D01*
X2097633Y3155187D01*
X2091791Y3161029D01*
X2086203Y3163823D01*
X2074519Y3163823D01*
X2068931Y3161029D01*
X2063089Y3155187D01*
X2060041Y3149600D01*
X2040991Y3103371D02*
G01*
X2040991Y3163823D01*
X2000605Y3103371D02*
G01*
X2040991Y3143757D01*
X2026767Y3129279D02*
G01*
X2000605Y3163823D01*
X2190597Y2849371D02*
G01*
X2190597Y2909823D01*
X2190597Y2849371D02*
G01*
X2167483Y2909823D01*
X2144369Y2849371D02*
G01*
X2167483Y2909823D01*
X2144369Y2849371D02*
G01*
X2144369Y2909823D01*
X2125319Y2849371D02*
G01*
X2125319Y2909823D01*
X2065883Y2858007D02*
G01*
X2071725Y2852165D01*
X2080361Y2849371D01*
X2091791Y2849371D01*
X2100427Y2852165D01*
X2106269Y2858007D01*
X2106269Y2863850D01*
X2103475Y2869437D01*
X2100427Y2872486D01*
X2094839Y2875279D01*
X2077567Y2881121D01*
X2071725Y2883915D01*
X2068677Y2886710D01*
X2065883Y2892552D01*
X2065883Y2901187D01*
X2071725Y2907029D01*
X2080361Y2909823D01*
X2091791Y2909823D01*
X2100427Y2907029D01*
X2106269Y2901187D01*
X2029561Y2849371D02*
G01*
X2035403Y2852165D01*
X2040991Y2858007D01*
X2044039Y2863850D01*
X2046833Y2872486D01*
X2046833Y2886710D01*
X2044039Y2895600D01*
X2040991Y2901187D01*
X2035403Y2907029D01*
X2029561Y2909823D01*
X2017877Y2909823D01*
X2012289Y2907029D01*
X2006447Y2901187D01*
X2003653Y2895600D01*
X2000605Y2886710D01*
X2000605Y2872486D01*
X2003653Y2863850D01*
X2006447Y2858007D01*
X2012289Y2852165D01*
X2017877Y2849371D01*
X2029561Y2849371D01*
X2190597Y2595371D02*
G01*
X2190597Y2655823D01*
X2190597Y2595371D02*
G01*
X2167483Y2655823D01*
X2144369Y2595371D02*
G01*
X2167483Y2655823D01*
X2144369Y2595371D02*
G01*
X2144369Y2655823D01*
X2108047Y2595371D02*
G01*
X2113889Y2598165D01*
X2119477Y2604007D01*
X2122525Y2609850D01*
X2125319Y2618486D01*
X2125319Y2632710D01*
X2122525Y2641600D01*
X2119477Y2647187D01*
X2113889Y2653029D01*
X2108047Y2655823D01*
X2096617Y2655823D01*
X2090775Y2653029D01*
X2084933Y2647187D01*
X2082139Y2641600D01*
X2079091Y2632710D01*
X2079091Y2618486D01*
X2082139Y2609850D01*
X2084933Y2604007D01*
X2090775Y2598165D01*
X2096617Y2595371D01*
X2108047Y2595371D01*
X2019655Y2604007D02*
G01*
X2025497Y2598165D01*
X2034133Y2595371D01*
X2045817Y2595371D01*
X2054453Y2598165D01*
X2060041Y2604007D01*
X2060041Y2609850D01*
X2057247Y2615437D01*
X2054453Y2618486D01*
X2048611Y2621279D01*
X2031339Y2627121D01*
X2025497Y2629915D01*
X2022703Y2632710D01*
X2019655Y2638552D01*
X2019655Y2647187D01*
X2025497Y2653029D01*
X2034133Y2655823D01*
X2045817Y2655823D01*
X2054453Y2653029D01*
X2060041Y2647187D01*
X2000605Y2595371D02*
G01*
X2000605Y2655823D01*
X2190597Y2341371D02*
G01*
X2167483Y2401823D01*
X2144369Y2341371D02*
G01*
X2167483Y2401823D01*
X2119477Y2341371D02*
G01*
X2087727Y2341371D01*
X2104999Y2364486D01*
X2096363Y2364486D01*
X2090521Y2367279D01*
X2087727Y2370073D01*
X2084933Y2378710D01*
X2084933Y2384552D01*
X2087727Y2393187D01*
X2093569Y2399029D01*
X2102205Y2401823D01*
X2110841Y2401823D01*
X2119477Y2399029D01*
X2122271Y2396236D01*
X2125319Y2390394D01*
X2062835Y2387600D02*
G01*
X2065883Y2390394D01*
X2062835Y2393187D01*
X2060041Y2390394D01*
X2062835Y2387600D01*
X2035149Y2341371D02*
G01*
X2003399Y2341371D01*
X2020671Y2364486D01*
X2012035Y2364486D01*
X2006447Y2367279D01*
X2003399Y2370073D01*
X2000605Y2378710D01*
X2000605Y2384552D01*
X2003399Y2393187D01*
X2009241Y2399029D01*
X2017877Y2401823D01*
X2026513Y2401823D01*
X2035149Y2399029D01*
X2038197Y2396236D01*
X2040991Y2390394D01*
X2119477Y2101850D02*
G01*
X2122525Y2096007D01*
X2128113Y2090165D01*
X2133955Y2087371D01*
X2145385Y2087371D01*
X2151227Y2090165D01*
X2157069Y2096007D01*
X2159863Y2101850D01*
X2162911Y2110486D01*
X2162911Y2124710D01*
X2159863Y2133600D01*
X2157069Y2139187D01*
X2151227Y2145029D01*
X2145385Y2147823D01*
X2133955Y2147823D01*
X2128113Y2145029D01*
X2122525Y2139187D01*
X2119477Y2133600D01*
X2119477Y2124710D01*
X2133955Y2124710D02*
G01*
X2119477Y2124710D01*
X2100427Y2087371D02*
G01*
X2100427Y2147823D01*
X2100427Y2087371D02*
G01*
X2060041Y2147823D01*
X2060041Y2087371D02*
G01*
X2060041Y2147823D01*
X2040991Y2087371D02*
G01*
X2040991Y2147823D01*
X2040991Y2087371D02*
G01*
X2020925Y2087371D01*
X2012035Y2090165D01*
X2006447Y2096007D01*
X2003399Y2101850D01*
X2000605Y2110486D01*
X2000605Y2124710D01*
X2003399Y2133600D01*
X2006447Y2139187D01*
X2012035Y2145029D01*
X2020925Y2147823D01*
X2040991Y2147823D01*
X2080768Y1988921D02*
G01*
X2020315Y1965807D01*
X2080768Y1942693D02*
G01*
X2020315Y1965807D01*
X2080768Y1923643D02*
G01*
X2037588Y1923643D01*
X2028952Y1920595D01*
X2023109Y1915007D01*
X2020315Y1906371D01*
X2020315Y1900529D01*
X2023109Y1891893D01*
X2028952Y1886051D01*
X2037588Y1883257D01*
X2080768Y1883257D01*
X2072131Y1823821D02*
G01*
X2077974Y1829409D01*
X2080768Y1838045D01*
X2080768Y1849729D01*
X2077974Y1858365D01*
X2072131Y1864207D01*
X2066290Y1864207D01*
X2060702Y1861159D01*
X2057654Y1858365D01*
X2054859Y1852523D01*
X2049018Y1835251D01*
X2046224Y1829409D01*
X2043429Y1826615D01*
X2037588Y1823821D01*
X2028952Y1823821D01*
X2023109Y1829409D01*
X2020315Y1838045D01*
X2020315Y1849729D01*
X2023109Y1858365D01*
X2028952Y1864207D01*
X2080768Y1804771D02*
G01*
X2020315Y1804771D01*
X2080768Y1804771D02*
G01*
X2080768Y1778609D01*
X2077974Y1769973D01*
X2075179Y1767179D01*
X2069338Y1764385D01*
X2063495Y1764385D01*
X2057654Y1767179D01*
X2054859Y1769973D01*
X2052065Y1778609D01*
X2052065Y1804771D02*
G01*
X2052065Y1778609D01*
X2049018Y1769973D01*
X2046224Y1767179D01*
X2040381Y1764385D01*
X2031745Y1764385D01*
X2025904Y1767179D01*
X2023109Y1769973D01*
X2020315Y1778609D01*
X2020315Y1804771D01*
X3215640Y2691892D02*
G01*
X3215640Y2752344D01*
X3215640Y2691892D02*
G01*
X3189731Y2691892D01*
X3181095Y2694686D01*
X3178047Y2697479D01*
X3175254Y2703321D01*
X3175254Y2709163D01*
X3178047Y2715005D01*
X3181095Y2717800D01*
X3189731Y2720594D01*
X3215640Y2720594D02*
G01*
X3189731Y2720594D01*
X3181095Y2723642D01*
X3178047Y2726436D01*
X3175254Y2732278D01*
X3175254Y2740913D01*
X3178047Y2746755D01*
X3181095Y2749550D01*
X3189731Y2752344D01*
X3215640Y2752344D01*
X3133090Y2691892D02*
G01*
X3156204Y2752344D01*
X3133090Y2691892D02*
G01*
X3109975Y2752344D01*
X3147568Y2732278D02*
G01*
X3118611Y2732278D01*
X3070859Y2691892D02*
G01*
X3070859Y2752344D01*
X3090925Y2691892D02*
G01*
X3050540Y2691892D01*
X3005581Y2700528D02*
G01*
X3005581Y2752344D01*
X3031490Y2726436D02*
G01*
X2979420Y2726436D01*
X3220720Y2234692D02*
G01*
X3220720Y2295144D01*
X3220720Y2234692D02*
G01*
X3194811Y2234692D01*
X3186175Y2237486D01*
X3183127Y2240279D01*
X3180334Y2246121D01*
X3180334Y2251963D01*
X3183127Y2257805D01*
X3186175Y2260600D01*
X3194811Y2263394D01*
X3220720Y2263394D02*
G01*
X3194811Y2263394D01*
X3186175Y2266442D01*
X3183127Y2269236D01*
X3180334Y2275078D01*
X3180334Y2283713D01*
X3183127Y2289555D01*
X3186175Y2292350D01*
X3194811Y2295144D01*
X3220720Y2295144D01*
X3138170Y2234692D02*
G01*
X3161284Y2295144D01*
X3138170Y2234692D02*
G01*
X3115056Y2295144D01*
X3152647Y2275078D02*
G01*
X3123691Y2275078D01*
X3075940Y2234692D02*
G01*
X3075940Y2295144D01*
X3096006Y2234692D02*
G01*
X3055620Y2234692D01*
X3036570Y2269236D02*
G01*
X2984500Y2269236D01*
D12*
X7734300Y3036315D02*
G01*
X7734300Y2927350D01*
X7734300Y3036315D02*
G01*
X7781036Y3036315D01*
X7796529Y3031236D01*
X7801863Y3025902D01*
X7806943Y3015487D01*
X7806943Y3005073D01*
X7801863Y2994660D01*
X7796529Y2989579D01*
X7781036Y2984500D01*
X7734300Y2984500D02*
G01*
X7781036Y2984500D01*
X7796529Y2979165D01*
X7801863Y2974086D01*
X7806943Y2963671D01*
X7806943Y2947923D01*
X7801863Y2937510D01*
X7796529Y2932429D01*
X7781036Y2927350D01*
X7734300Y2927350D01*
X7914131Y3036315D02*
G01*
X7841234Y2927350D01*
X7841234Y3036315D02*
G01*
X7914131Y3036315D01*
X7841234Y2927350D02*
G01*
X7914131Y2927350D01*
X6934200Y1702815D02*
G01*
X6934200Y1593850D01*
X6934200Y1702815D02*
G01*
X6970522Y1702815D01*
X6986270Y1697736D01*
X6996429Y1687321D01*
X7001763Y1676907D01*
X7006843Y1661160D01*
X7006843Y1635252D01*
X7001763Y1619757D01*
X6996429Y1609344D01*
X6986270Y1598929D01*
X6970522Y1593850D01*
X6934200Y1593850D01*
X7072375Y1702815D02*
G01*
X7061961Y1697736D01*
X7051547Y1687321D01*
X7046468Y1676907D01*
X7041134Y1661160D01*
X7041134Y1635252D01*
X7046468Y1619757D01*
X7051547Y1609344D01*
X7061961Y1598929D01*
X7072375Y1593850D01*
X7093204Y1593850D01*
X7103618Y1598929D01*
X7114031Y1609344D01*
X7119111Y1619757D01*
X7124445Y1635252D01*
X7124445Y1661160D01*
X7119111Y1676907D01*
X7114031Y1687321D01*
X7103618Y1697736D01*
X7093204Y1702815D01*
X7072375Y1702815D01*
X7158736Y1702815D02*
G01*
X7184643Y1593850D01*
X7210552Y1702815D02*
G01*
X7184643Y1593850D01*
X7210552Y1702815D02*
G01*
X7236459Y1593850D01*
X7262622Y1702815D02*
G01*
X7236459Y1593850D01*
X7296911Y1702815D02*
G01*
X7296911Y1593850D01*
X7296911Y1702815D02*
G01*
X7369556Y1593850D01*
X7369556Y1702815D02*
G01*
X7369556Y1593850D01*
X4597400Y1702815D02*
G01*
X4597400Y1593850D01*
X4597400Y1702815D02*
G01*
X4639056Y1593850D01*
X4680458Y1702815D02*
G01*
X4639056Y1593850D01*
X4680458Y1702815D02*
G01*
X4680458Y1593850D01*
X4745990Y1702815D02*
G01*
X4735575Y1697736D01*
X4725161Y1687321D01*
X4720081Y1676907D01*
X4714747Y1661160D01*
X4714747Y1635252D01*
X4720081Y1619757D01*
X4725161Y1609344D01*
X4735575Y1598929D01*
X4745990Y1593850D01*
X4766818Y1593850D01*
X4777231Y1598929D01*
X4787645Y1609344D01*
X4792725Y1619757D01*
X4798059Y1635252D01*
X4798059Y1661160D01*
X4792725Y1676907D01*
X4787645Y1687321D01*
X4777231Y1697736D01*
X4766818Y1702815D01*
X4745990Y1702815D01*
X4832350Y1702815D02*
G01*
X4832350Y1593850D01*
X4832350Y1702815D02*
G01*
X4868672Y1702815D01*
X4884165Y1697736D01*
X4894579Y1687321D01*
X4899659Y1676907D01*
X4904993Y1661160D01*
X4904993Y1635252D01*
X4899659Y1619757D01*
X4894579Y1609344D01*
X4884165Y1598929D01*
X4868672Y1593850D01*
X4832350Y1593850D01*
X5867400Y1702815D02*
G01*
X5867400Y1624837D01*
X5872479Y1609344D01*
X5882893Y1598929D01*
X5898641Y1593850D01*
X5909056Y1593850D01*
X5924550Y1598929D01*
X5934963Y1609344D01*
X5940043Y1624837D01*
X5940043Y1702815D01*
X5974334Y1702815D02*
G01*
X5974334Y1593850D01*
X5974334Y1702815D02*
G01*
X6021070Y1702815D01*
X6036818Y1697736D01*
X6041897Y1692402D01*
X6047231Y1681987D01*
X6047231Y1666494D01*
X6041897Y1656079D01*
X6036818Y1651000D01*
X6021070Y1645665D01*
X5974334Y1645665D01*
X9956810Y6084303D02*
G01*
X9956810Y5975337D01*
X9956810Y6084303D02*
G01*
X10003546Y6084303D01*
X10019040Y6079223D01*
X10024374Y6073889D01*
X10029454Y6063475D01*
X10029454Y6053061D01*
X10024374Y6042647D01*
X10019040Y6037567D01*
X10003546Y6032487D01*
X9956810Y6032487D02*
G01*
X10003546Y6032487D01*
X10019040Y6027153D01*
X10024374Y6022073D01*
X10029454Y6011659D01*
X10029454Y5995911D01*
X10024374Y5985497D01*
X10019040Y5980417D01*
X10003546Y5975337D01*
X9956810Y5975337D01*
X10105400Y6084303D02*
G01*
X10063744Y5975337D01*
X10105400Y6084303D02*
G01*
X10147056Y5975337D01*
X10079492Y6011659D02*
G01*
X10131308Y6011659D01*
X10217668Y6084303D02*
G01*
X10217668Y5975337D01*
X10181346Y6084303D02*
G01*
X10253990Y6084303D01*
X9524987Y6401810D02*
G01*
X9524987Y6292844D01*
X9524987Y6401810D02*
G01*
X9571723Y6401810D01*
X9587471Y6396730D01*
X9592551Y6391396D01*
X9597631Y6380982D01*
X9597631Y6370568D01*
X9592551Y6360154D01*
X9587471Y6355074D01*
X9571723Y6349994D01*
X9524987Y6349994D02*
G01*
X9571723Y6349994D01*
X9587471Y6344660D01*
X9592551Y6339580D01*
X9597631Y6329166D01*
X9597631Y6313418D01*
X9592551Y6303004D01*
X9587471Y6297924D01*
X9571723Y6292844D01*
X9524987Y6292844D01*
X9668497Y6401810D02*
G01*
X9668497Y6292844D01*
X9631921Y6401810D02*
G01*
X9704819Y6401810D01*
X3811775Y5778995D02*
G01*
X3806441Y5789409D01*
X3796027Y5799823D01*
X3785867Y5804903D01*
X3765039Y5804903D01*
X3754625Y5799823D01*
X3744211Y5789409D01*
X3738877Y5778995D01*
X3733797Y5763247D01*
X3733797Y5737339D01*
X3738877Y5721845D01*
X3744211Y5711431D01*
X3754625Y5701017D01*
X3765039Y5695937D01*
X3785867Y5695937D01*
X3796027Y5701017D01*
X3806441Y5711431D01*
X3811775Y5721845D01*
X3846065Y5784075D02*
G01*
X3856479Y5789409D01*
X3871973Y5804903D01*
X3871973Y5695937D01*
X4106598Y4761181D02*
G01*
X4101264Y4771595D01*
X4090850Y4782009D01*
X4080690Y4787089D01*
X4059862Y4787089D01*
X4049448Y4782009D01*
X4039034Y4771595D01*
X4033700Y4761181D01*
X4028620Y4745433D01*
X4028620Y4719525D01*
X4033700Y4704031D01*
X4039034Y4693617D01*
X4049448Y4683203D01*
X4059862Y4678123D01*
X4080690Y4678123D01*
X4090850Y4683203D01*
X4101264Y4693617D01*
X4106598Y4704031D01*
X4145968Y4761181D02*
G01*
X4145968Y4766261D01*
X4151302Y4776675D01*
X4156382Y4782009D01*
X4166796Y4787089D01*
X4187624Y4787089D01*
X4198038Y4782009D01*
X4203118Y4776675D01*
X4208452Y4766261D01*
X4208452Y4755847D01*
X4203118Y4745433D01*
X4192704Y4729939D01*
X4140888Y4678123D01*
X4213532Y4678123D01*
X5765800Y5879337D02*
G01*
X5765800Y5783834D01*
X5765800Y5879337D02*
G01*
X5797550Y5879337D01*
X5811265Y5874765D01*
X5820409Y5865876D01*
X5824981Y5856731D01*
X5829554Y5843015D01*
X5829554Y5820410D01*
X5824981Y5806694D01*
X5820409Y5797550D01*
X5811265Y5788405D01*
X5797550Y5783834D01*
X5765800Y5783834D01*
X5923025Y5865876D02*
G01*
X5913881Y5874765D01*
X5900420Y5879337D01*
X5882131Y5879337D01*
X5868415Y5874765D01*
X5859525Y5865876D01*
X5859525Y5856731D01*
X5864097Y5847587D01*
X5868415Y5843015D01*
X5877559Y5838444D01*
X5904991Y5829300D01*
X5913881Y5824981D01*
X5918454Y5820410D01*
X5923025Y5811265D01*
X5923025Y5797550D01*
X5913881Y5788405D01*
X5900420Y5783834D01*
X5882131Y5783834D01*
X5868415Y5788405D01*
X5859525Y5797550D01*
X5952997Y5879337D02*
G01*
X5952997Y5783834D01*
X5952997Y5879337D02*
G01*
X5993891Y5879337D01*
X6007608Y5874765D01*
X6012179Y5870194D01*
X6016752Y5861304D01*
X6016752Y5847587D01*
X6012179Y5838444D01*
X6007608Y5833871D01*
X5993891Y5829300D01*
X5952997Y5829300D01*
D10*
X5138199Y4616195D02*
G01*
X5119657Y4607052D01*
X5101369Y4588510D01*
X5091971Y4570221D01*
X5082827Y4542536D01*
X5082827Y4496307D01*
X5091971Y4468621D01*
X5101369Y4450079D01*
X5119657Y4431537D01*
X5138199Y4422394D01*
X5175283Y4422394D01*
X5193571Y4431537D01*
X5212113Y4450079D01*
X5221257Y4468621D01*
X5230655Y4496307D01*
X5230655Y4542536D01*
X5221257Y4570221D01*
X5212113Y4588510D01*
X5193571Y4607052D01*
X5175283Y4616195D01*
X5138199Y4616195D01*
X5291615Y4616195D02*
G01*
X5291615Y4422394D01*
X5291615Y4422394D02*
G01*
X5402359Y4422394D01*
X5463319Y4616195D02*
G01*
X5463319Y4422394D01*
X5463319Y4616195D02*
G01*
X5583461Y4616195D01*
X5463319Y4523994D02*
G01*
X5537233Y4523994D01*
X5463319Y4422394D02*
G01*
X5583461Y4422394D01*
X5644421Y4616195D02*
G01*
X5644421Y4422394D01*
X5644421Y4616195D02*
G01*
X5708937Y4616195D01*
X5736623Y4607052D01*
X5755165Y4588510D01*
X5764563Y4570221D01*
X5773707Y4542536D01*
X5773707Y4496307D01*
X5764563Y4468621D01*
X5755165Y4450079D01*
X5736623Y4431537D01*
X5708937Y4422394D01*
X5644421Y4422394D01*
X6032279Y4616195D02*
G01*
X6004593Y4607052D01*
X5986051Y4579365D01*
X5976907Y4533137D01*
X5976907Y4505452D01*
X5986051Y4459223D01*
X6004593Y4431537D01*
X6032279Y4422394D01*
X6050821Y4422394D01*
X6078507Y4431537D01*
X6097049Y4459223D01*
X6106193Y4505452D01*
X6106193Y4533137D01*
X6097049Y4579365D01*
X6078507Y4607052D01*
X6050821Y4616195D01*
X6032279Y4616195D01*
X6176297Y4468621D02*
G01*
X6167153Y4459223D01*
X6176297Y4450079D01*
X6185695Y4459223D01*
X6176297Y4468621D01*
X6366543Y4551679D02*
G01*
X6357399Y4523994D01*
X6338857Y4505452D01*
X6311171Y4496307D01*
X6302027Y4496307D01*
X6274341Y4505452D01*
X6255799Y4523994D01*
X6246655Y4551679D01*
X6246655Y4560823D01*
X6255799Y4588510D01*
X6274341Y4607052D01*
X6302027Y4616195D01*
X6311171Y4616195D01*
X6338857Y4607052D01*
X6357399Y4588510D01*
X6366543Y4551679D01*
X6366543Y4505452D01*
X6357399Y4459223D01*
X6338857Y4431537D01*
X6311171Y4422394D01*
X6292883Y4422394D01*
X6264943Y4431537D01*
X6255799Y4450079D01*
X6538501Y4588510D02*
G01*
X6529103Y4607052D01*
X6501417Y4616195D01*
X6483129Y4616195D01*
X6455443Y4607052D01*
X6436901Y4579365D01*
X6427503Y4533137D01*
X6427503Y4486910D01*
X6436901Y4450079D01*
X6455443Y4431537D01*
X6483129Y4422394D01*
X6492273Y4422394D01*
X6519959Y4431537D01*
X6538501Y4450079D01*
X6547645Y4477765D01*
X6547645Y4486910D01*
X6538501Y4514595D01*
X6519959Y4533137D01*
X6492273Y4542536D01*
X6483129Y4542536D01*
X6455443Y4533137D01*
X6436901Y4514595D01*
X6427503Y4486910D01*
X6608605Y4616195D02*
G01*
X6608605Y4551679D01*
X6682519Y4616195D02*
G01*
X6682519Y4551679D01*
X5384728Y4231886D02*
G01*
X5403270Y4241030D01*
X5430956Y4268716D01*
X5430956Y4074914D01*
X5501314Y4222742D02*
G01*
X5501314Y4231886D01*
X5510458Y4250428D01*
X5519602Y4259572D01*
X5538144Y4268716D01*
X5574974Y4268716D01*
X5593516Y4259572D01*
X5602914Y4250428D01*
X5612058Y4231886D01*
X5612058Y4213344D01*
X5602914Y4194802D01*
X5584372Y4167116D01*
X5491916Y4074914D01*
X5621202Y4074914D01*
X5728390Y4268716D02*
G01*
X5700704Y4259572D01*
X5691560Y4241030D01*
X5691560Y4222742D01*
X5700704Y4204200D01*
X5719246Y4194802D01*
X5756076Y4185658D01*
X5783762Y4176514D01*
X5802304Y4157972D01*
X5811448Y4139430D01*
X5811448Y4111744D01*
X5802304Y4093202D01*
X5793160Y4084058D01*
X5765474Y4074914D01*
X5728390Y4074914D01*
X5700704Y4084058D01*
X5691560Y4093202D01*
X5682162Y4111744D01*
X5682162Y4139430D01*
X5691560Y4157972D01*
X5709848Y4176514D01*
X5737534Y4185658D01*
X5774618Y4194802D01*
X5793160Y4204200D01*
X5802304Y4222742D01*
X5802304Y4241030D01*
X5793160Y4259572D01*
X5765474Y4268716D01*
X5728390Y4268716D01*
X5872408Y4204200D02*
G01*
X5974008Y4074914D01*
X5974008Y4204200D02*
G01*
X5872408Y4074914D01*
X6145966Y4241030D02*
G01*
X6136568Y4259572D01*
X6108882Y4268716D01*
X6090594Y4268716D01*
X6062654Y4259572D01*
X6044366Y4231886D01*
X6034968Y4185658D01*
X6034968Y4139430D01*
X6044366Y4102600D01*
X6062654Y4084058D01*
X6090594Y4074914D01*
X6099738Y4074914D01*
X6127424Y4084058D01*
X6145966Y4102600D01*
X6155110Y4130286D01*
X6155110Y4139430D01*
X6145966Y4167116D01*
X6127424Y4185658D01*
X6099738Y4194802D01*
X6090594Y4194802D01*
X6062654Y4185658D01*
X6044366Y4167116D01*
X6034968Y4139430D01*
X6308526Y4268716D02*
G01*
X6216070Y4139430D01*
X6354754Y4139430D01*
X6308526Y4268716D02*
G01*
X6308526Y4074914D01*
D12*
X1778005Y5716003D02*
G01*
X1778005Y5607037D01*
X1778005Y5607037D02*
G01*
X1840235Y5607037D01*
X1874525Y5716003D02*
G01*
X1874525Y5607037D01*
X1874525Y5716003D02*
G01*
X1942089Y5716003D01*
X1874525Y5664187D02*
G01*
X1916181Y5664187D01*
X1874525Y5607037D02*
G01*
X1942089Y5607037D01*
X1976379Y5716003D02*
G01*
X1976379Y5607037D01*
X1976379Y5716003D02*
G01*
X2012955Y5716003D01*
X2028449Y5710923D01*
X2038863Y5700509D01*
X2043943Y5690095D01*
X2049277Y5674347D01*
X2049277Y5648439D01*
X2043943Y5632945D01*
X2038863Y5622531D01*
X2028449Y5612117D01*
X2012955Y5607037D01*
X1976379Y5607037D01*
X9373603Y4375650D02*
G01*
X9368523Y4386064D01*
X9358109Y4396478D01*
X9347695Y4401812D01*
X9331947Y4406892D01*
X9306039Y4406892D01*
X9290545Y4401812D01*
X9280131Y4396478D01*
X9269717Y4386064D01*
X9264637Y4375650D01*
X9264637Y4354822D01*
X9269717Y4344662D01*
X9280131Y4334248D01*
X9290545Y4328914D01*
X9306039Y4323834D01*
X9331947Y4323834D01*
X9347695Y4328914D01*
X9358109Y4334248D01*
X9368523Y4344662D01*
X9373603Y4354822D01*
X9373603Y4375650D01*
X9285211Y4360156D02*
G01*
X9254223Y4328914D01*
X9373603Y4279130D02*
G01*
X9373603Y4221980D01*
X9331947Y4253222D01*
X9331947Y4237474D01*
X9326867Y4227060D01*
X9321787Y4221980D01*
X9306039Y4216646D01*
X9295625Y4216646D01*
X9280131Y4221980D01*
X9269717Y4232394D01*
X9264637Y4247888D01*
X9264637Y4263382D01*
X9269717Y4279130D01*
X9274797Y4284210D01*
X9285211Y4289544D01*
X1828794Y5271503D02*
G01*
X1828794Y5162537D01*
X1828794Y5271503D02*
G01*
X1875530Y5271503D01*
X1891024Y5266423D01*
X1896358Y5261089D01*
X1901438Y5250675D01*
X1901438Y5240261D01*
X1896358Y5229847D01*
X1891024Y5224767D01*
X1875530Y5219687D01*
X1828794Y5219687D01*
X1865116Y5219687D02*
G01*
X1901438Y5162537D01*
X1935728Y5250675D02*
G01*
X1946142Y5256009D01*
X1961890Y5271503D01*
X1961890Y5162537D01*
X1803394Y4649203D02*
G01*
X1803394Y4540237D01*
X1803394Y4649203D02*
G01*
X1850130Y4649203D01*
X1865624Y4644123D01*
X1870958Y4638789D01*
X1876038Y4628375D01*
X1876038Y4617961D01*
X1870958Y4607547D01*
X1865624Y4602467D01*
X1850130Y4597387D01*
X1803394Y4597387D01*
X1839716Y4597387D02*
G01*
X1876038Y4540237D01*
X1915662Y4623295D02*
G01*
X1915662Y4628375D01*
X1920742Y4638789D01*
X1926076Y4644123D01*
X1936490Y4649203D01*
X1957064Y4649203D01*
X1967478Y4644123D01*
X1972812Y4638789D01*
X1977892Y4628375D01*
X1977892Y4617961D01*
X1972812Y4607547D01*
X1962398Y4592053D01*
X1910328Y4540237D01*
X1983226Y4540237D01*
X2730494Y5271503D02*
G01*
X2730494Y5162537D01*
X2730494Y5271503D02*
G01*
X2777230Y5271503D01*
X2792724Y5266423D01*
X2798058Y5261089D01*
X2803138Y5250675D01*
X2803138Y5240261D01*
X2798058Y5229847D01*
X2792724Y5224767D01*
X2777230Y5219687D01*
X2730494Y5219687D01*
X2766816Y5219687D02*
G01*
X2803138Y5162537D01*
X2847842Y5271503D02*
G01*
X2904992Y5271503D01*
X2874004Y5229847D01*
X2889498Y5229847D01*
X2899912Y5224767D01*
X2904992Y5219687D01*
X2910326Y5203939D01*
X2910326Y5193525D01*
X2904992Y5178031D01*
X2894578Y5167617D01*
X2879084Y5162537D01*
X2863590Y5162537D01*
X2847842Y5167617D01*
X2842762Y5172697D01*
X2837428Y5183111D01*
X2717794Y4661903D02*
G01*
X2717794Y4552937D01*
X2717794Y4661903D02*
G01*
X2764530Y4661903D01*
X2780024Y4656823D01*
X2785358Y4651489D01*
X2790438Y4641075D01*
X2790438Y4630661D01*
X2785358Y4620247D01*
X2780024Y4615167D01*
X2764530Y4610087D01*
X2717794Y4610087D01*
X2754116Y4610087D02*
G01*
X2790438Y4552937D01*
X2876798Y4661903D02*
G01*
X2824728Y4589259D01*
X2902706Y4589259D01*
X2876798Y4661903D02*
G01*
X2876798Y4552937D01*
X2273294Y4649203D02*
G01*
X2273294Y4540237D01*
X2273294Y4649203D02*
G01*
X2320030Y4649203D01*
X2335524Y4644123D01*
X2340858Y4638789D01*
X2345938Y4628375D01*
X2345938Y4617961D01*
X2340858Y4607547D01*
X2335524Y4602467D01*
X2320030Y4597387D01*
X2273294Y4597387D01*
X2309616Y4597387D02*
G01*
X2345938Y4540237D01*
X2442712Y4649203D02*
G01*
X2390642Y4649203D01*
X2385562Y4602467D01*
X2390642Y4607547D01*
X2406390Y4612881D01*
X2421884Y4612881D01*
X2437378Y4607547D01*
X2447792Y4597387D01*
X2453126Y4581639D01*
X2453126Y4571225D01*
X2447792Y4555731D01*
X2437378Y4545317D01*
X2421884Y4540237D01*
X2406390Y4540237D01*
X2390642Y4545317D01*
X2385562Y4550397D01*
X2380228Y4560811D01*
X2273294Y5271503D02*
G01*
X2273294Y5162537D01*
X2273294Y5271503D02*
G01*
X2320030Y5271503D01*
X2335524Y5266423D01*
X2340858Y5261089D01*
X2345938Y5250675D01*
X2345938Y5240261D01*
X2340858Y5229847D01*
X2335524Y5224767D01*
X2320030Y5219687D01*
X2273294Y5219687D01*
X2309616Y5219687D02*
G01*
X2345938Y5162537D01*
X2442712Y5256009D02*
G01*
X2437378Y5266423D01*
X2421884Y5271503D01*
X2411470Y5271503D01*
X2395976Y5266423D01*
X2385562Y5250675D01*
X2380228Y5224767D01*
X2380228Y5198859D01*
X2385562Y5178031D01*
X2395976Y5167617D01*
X2411470Y5162537D01*
X2416804Y5162537D01*
X2432298Y5167617D01*
X2442712Y5178031D01*
X2447792Y5193525D01*
X2447792Y5198859D01*
X2442712Y5214353D01*
X2432298Y5224767D01*
X2416804Y5229847D01*
X2411470Y5229847D01*
X2395976Y5224767D01*
X2385562Y5214353D01*
X2380228Y5198859D01*
X3898894Y1715503D02*
G01*
X3898894Y1606537D01*
X3898894Y1715503D02*
G01*
X3945630Y1715503D01*
X3961124Y1710423D01*
X3966458Y1705089D01*
X3971538Y1694675D01*
X3971538Y1684261D01*
X3966458Y1673847D01*
X3961124Y1668767D01*
X3945630Y1663687D01*
X3898894Y1663687D01*
X3935216Y1663687D02*
G01*
X3971538Y1606537D01*
X4005828Y1694675D02*
G01*
X4016242Y1700009D01*
X4031990Y1715503D01*
X4031990Y1606537D01*
X4066280Y1694675D02*
G01*
X4076694Y1700009D01*
X4092188Y1715503D01*
X4092188Y1606537D01*
X8585194Y5155933D02*
G01*
X8585194Y5046967D01*
X8585194Y5155933D02*
G01*
X8631930Y5155933D01*
X8647424Y5150853D01*
X8652758Y5145519D01*
X8657838Y5135105D01*
X8657838Y5124691D01*
X8652758Y5114277D01*
X8647424Y5109197D01*
X8631930Y5104117D01*
X8585194Y5104117D01*
X8621516Y5104117D02*
G01*
X8657838Y5046967D01*
X8692128Y5135105D02*
G01*
X8702542Y5140439D01*
X8718290Y5155933D01*
X8718290Y5046967D01*
X8757660Y5130025D02*
G01*
X8757660Y5135105D01*
X8762994Y5145519D01*
X8768074Y5150853D01*
X8778488Y5155933D01*
X8799316Y5155933D01*
X8809730Y5150853D01*
X8814810Y5145519D01*
X8820144Y5135105D01*
X8820144Y5124691D01*
X8814810Y5114277D01*
X8804396Y5098783D01*
X8752580Y5046967D01*
X8825224Y5046967D01*
X8585194Y4928603D02*
G01*
X8585194Y4819637D01*
X8585194Y4928603D02*
G01*
X8631930Y4928603D01*
X8647424Y4923523D01*
X8652758Y4918189D01*
X8657838Y4907775D01*
X8657838Y4897361D01*
X8652758Y4886947D01*
X8647424Y4881867D01*
X8631930Y4876787D01*
X8585194Y4876787D01*
X8621516Y4876787D02*
G01*
X8657838Y4819637D01*
X8692128Y4907775D02*
G01*
X8702542Y4913109D01*
X8718290Y4928603D01*
X8718290Y4819637D01*
X8762994Y4928603D02*
G01*
X8820144Y4928603D01*
X8788902Y4886947D01*
X8804396Y4886947D01*
X8814810Y4881867D01*
X8820144Y4876787D01*
X8825224Y4861039D01*
X8825224Y4850625D01*
X8820144Y4835131D01*
X8809730Y4824717D01*
X8793982Y4819637D01*
X8778488Y4819637D01*
X8762994Y4824717D01*
X8757660Y4829797D01*
X8752580Y4840211D01*
X8585194Y4611103D02*
G01*
X8585194Y4502137D01*
X8585194Y4611103D02*
G01*
X8631930Y4611103D01*
X8647424Y4606023D01*
X8652758Y4600689D01*
X8657838Y4590275D01*
X8657838Y4579861D01*
X8652758Y4569447D01*
X8647424Y4564367D01*
X8631930Y4559287D01*
X8585194Y4559287D01*
X8621516Y4559287D02*
G01*
X8657838Y4502137D01*
X8692128Y4590275D02*
G01*
X8702542Y4595609D01*
X8718290Y4611103D01*
X8718290Y4502137D01*
X8804396Y4611103D02*
G01*
X8752580Y4538459D01*
X8830304Y4538459D01*
X8804396Y4611103D02*
G01*
X8804396Y4502137D01*
X7873994Y4865103D02*
G01*
X7873994Y4756137D01*
X7873994Y4865103D02*
G01*
X7920730Y4865103D01*
X7936224Y4860023D01*
X7941558Y4854689D01*
X7946638Y4844275D01*
X7946638Y4833861D01*
X7941558Y4823447D01*
X7936224Y4818367D01*
X7920730Y4813287D01*
X7873994Y4813287D01*
X7910316Y4813287D02*
G01*
X7946638Y4756137D01*
X7980928Y4844275D02*
G01*
X7991342Y4849609D01*
X8007090Y4865103D01*
X8007090Y4756137D01*
X8103610Y4849609D02*
G01*
X8098530Y4860023D01*
X8082782Y4865103D01*
X8072368Y4865103D01*
X8056874Y4860023D01*
X8046460Y4844275D01*
X8041380Y4818367D01*
X8041380Y4792459D01*
X8046460Y4771631D01*
X8056874Y4761217D01*
X8072368Y4756137D01*
X8077702Y4756137D01*
X8093196Y4761217D01*
X8103610Y4771631D01*
X8108944Y4787125D01*
X8108944Y4792459D01*
X8103610Y4807953D01*
X8093196Y4818367D01*
X8077702Y4823447D01*
X8072368Y4823447D01*
X8056874Y4818367D01*
X8046460Y4807953D01*
X8041380Y4792459D01*
X7861294Y5131803D02*
G01*
X7861294Y5022837D01*
X7861294Y5131803D02*
G01*
X7908030Y5131803D01*
X7923524Y5126723D01*
X7928858Y5121389D01*
X7933938Y5110975D01*
X7933938Y5100561D01*
X7928858Y5090147D01*
X7923524Y5085067D01*
X7908030Y5079987D01*
X7861294Y5079987D01*
X7897616Y5079987D02*
G01*
X7933938Y5022837D01*
X7968228Y5110975D02*
G01*
X7978642Y5116309D01*
X7994390Y5131803D01*
X7994390Y5022837D01*
X8101324Y5131803D02*
G01*
X8049254Y5022837D01*
X8028680Y5131803D02*
G01*
X8101324Y5131803D01*
X3251194Y5754103D02*
G01*
X3251194Y5645137D01*
X3251194Y5754103D02*
G01*
X3297930Y5754103D01*
X3313424Y5749023D01*
X3318758Y5743689D01*
X3323838Y5733275D01*
X3323838Y5722861D01*
X3318758Y5712447D01*
X3313424Y5707367D01*
X3297930Y5702287D01*
X3251194Y5702287D01*
X3287516Y5702287D02*
G01*
X3323838Y5645137D01*
X3431026Y5754103D02*
G01*
X3378956Y5645137D01*
X3358128Y5754103D02*
G01*
X3431026Y5754103D01*
X3200394Y5309603D02*
G01*
X3200394Y5200637D01*
X3200394Y5309603D02*
G01*
X3247130Y5309603D01*
X3262624Y5304523D01*
X3267958Y5299189D01*
X3273038Y5288775D01*
X3273038Y5278361D01*
X3267958Y5267947D01*
X3262624Y5262867D01*
X3247130Y5257787D01*
X3200394Y5257787D01*
X3236716Y5257787D02*
G01*
X3273038Y5200637D01*
X3333490Y5309603D02*
G01*
X3317742Y5304523D01*
X3312662Y5294109D01*
X3312662Y5283695D01*
X3317742Y5273281D01*
X3328156Y5267947D01*
X3348984Y5262867D01*
X3364478Y5257787D01*
X3374892Y5247373D01*
X3380226Y5236959D01*
X3380226Y5221211D01*
X3374892Y5210797D01*
X3369812Y5205717D01*
X3354064Y5200637D01*
X3333490Y5200637D01*
X3317742Y5205717D01*
X3312662Y5210797D01*
X3307328Y5221211D01*
X3307328Y5236959D01*
X3312662Y5247373D01*
X3323076Y5257787D01*
X3338570Y5262867D01*
X3359398Y5267947D01*
X3369812Y5273281D01*
X3374892Y5283695D01*
X3374892Y5294109D01*
X3369812Y5304523D01*
X3354064Y5309603D01*
X3333490Y5309603D01*
X3174994Y4649203D02*
G01*
X3174994Y4540237D01*
X3174994Y4649203D02*
G01*
X3221730Y4649203D01*
X3237224Y4644123D01*
X3242558Y4638789D01*
X3247638Y4628375D01*
X3247638Y4617961D01*
X3242558Y4607547D01*
X3237224Y4602467D01*
X3221730Y4597387D01*
X3174994Y4597387D01*
X3211316Y4597387D02*
G01*
X3247638Y4540237D01*
X3349492Y4612881D02*
G01*
X3344412Y4597387D01*
X3333998Y4586973D01*
X3318504Y4581639D01*
X3313170Y4581639D01*
X3297676Y4586973D01*
X3287262Y4597387D01*
X3281928Y4612881D01*
X3281928Y4617961D01*
X3287262Y4633709D01*
X3297676Y4644123D01*
X3313170Y4649203D01*
X3318504Y4649203D01*
X3333998Y4644123D01*
X3344412Y4633709D01*
X3349492Y4612881D01*
X3349492Y4586973D01*
X3344412Y4560811D01*
X3333998Y4545317D01*
X3318504Y4540237D01*
X3308090Y4540237D01*
X3292342Y4545317D01*
X3287262Y4555731D01*
X8662403Y3086105D02*
G01*
X8553437Y3086105D01*
X8662403Y3086105D02*
G01*
X8662403Y3039369D01*
X8657323Y3023875D01*
X8651989Y3018541D01*
X8641575Y3013461D01*
X8631161Y3013461D01*
X8620747Y3018541D01*
X8615667Y3023875D01*
X8610587Y3039369D01*
X8610587Y3086105D01*
X8610587Y3049783D02*
G01*
X8553437Y3013461D01*
X8641575Y2979171D02*
G01*
X8646909Y2968757D01*
X8662403Y2953009D01*
X8553437Y2953009D01*
X8662403Y2856489D02*
G01*
X8662403Y2908305D01*
X8615667Y2913639D01*
X8620747Y2908305D01*
X8626081Y2892811D01*
X8626081Y2877317D01*
X8620747Y2861569D01*
X8610587Y2851155D01*
X8594839Y2846075D01*
X8584425Y2846075D01*
X8568931Y2851155D01*
X8558517Y2861569D01*
X8553437Y2877317D01*
X8553437Y2892811D01*
X8558517Y2908305D01*
X8563597Y2913639D01*
X8574011Y2918719D01*
X4106628Y4479927D02*
G01*
X4101294Y4490341D01*
X4090880Y4500755D01*
X4080466Y4505835D01*
X4059892Y4505835D01*
X4049478Y4500755D01*
X4039064Y4490341D01*
X4033730Y4479927D01*
X4028650Y4464433D01*
X4028650Y4438271D01*
X4033730Y4422777D01*
X4039064Y4412363D01*
X4049478Y4401949D01*
X4059892Y4396869D01*
X4080466Y4396869D01*
X4090880Y4401949D01*
X4101294Y4412363D01*
X4106628Y4422777D01*
X4151332Y4505835D02*
G01*
X4208482Y4505835D01*
X4177240Y4464433D01*
X4192734Y4464433D01*
X4203148Y4459099D01*
X4208482Y4454019D01*
X4213562Y4438271D01*
X4213562Y4427857D01*
X4208482Y4412363D01*
X4198068Y4401949D01*
X4182320Y4396869D01*
X4166826Y4396869D01*
X4151332Y4401949D01*
X4145998Y4407283D01*
X4140918Y4417697D01*
X2668803Y4432757D02*
G01*
X2663469Y4443171D01*
X2653055Y4453585D01*
X2642641Y4458665D01*
X2622067Y4458665D01*
X2611653Y4453585D01*
X2601239Y4443171D01*
X2595905Y4432757D01*
X2590825Y4417263D01*
X2590825Y4391101D01*
X2595905Y4375607D01*
X2601239Y4365193D01*
X2611653Y4354779D01*
X2622067Y4349699D01*
X2642641Y4349699D01*
X2653055Y4354779D01*
X2663469Y4365193D01*
X2668803Y4375607D01*
X2754909Y4458665D02*
G01*
X2703093Y4386021D01*
X2781071Y4386021D01*
X2754909Y4458665D02*
G01*
X2754909Y4349699D01*
X2668803Y4140657D02*
G01*
X2663469Y4151071D01*
X2653055Y4161485D01*
X2642641Y4166565D01*
X2622067Y4166565D01*
X2611653Y4161485D01*
X2601239Y4151071D01*
X2595905Y4140657D01*
X2590825Y4125163D01*
X2590825Y4099001D01*
X2595905Y4083507D01*
X2601239Y4073093D01*
X2611653Y4062679D01*
X2622067Y4057599D01*
X2642641Y4057599D01*
X2653055Y4062679D01*
X2663469Y4073093D01*
X2668803Y4083507D01*
X2765323Y4166565D02*
G01*
X2713507Y4166565D01*
X2708173Y4119829D01*
X2713507Y4125163D01*
X2729001Y4130243D01*
X2744495Y4130243D01*
X2760243Y4125163D01*
X2770657Y4114749D01*
X2775737Y4099001D01*
X2775737Y4088587D01*
X2770657Y4073093D01*
X2760243Y4062679D01*
X2744495Y4057599D01*
X2729001Y4057599D01*
X2713507Y4062679D01*
X2708173Y4068013D01*
X2703093Y4078427D01*
X2668803Y3873957D02*
G01*
X2663469Y3884371D01*
X2653055Y3894785D01*
X2642641Y3899865D01*
X2622067Y3899865D01*
X2611653Y3894785D01*
X2601239Y3884371D01*
X2595905Y3873957D01*
X2590825Y3858463D01*
X2590825Y3832301D01*
X2595905Y3816807D01*
X2601239Y3806393D01*
X2611653Y3795979D01*
X2622067Y3790899D01*
X2642641Y3790899D01*
X2653055Y3795979D01*
X2663469Y3806393D01*
X2668803Y3816807D01*
X2765323Y3884371D02*
G01*
X2760243Y3894785D01*
X2744495Y3899865D01*
X2734081Y3899865D01*
X2718587Y3894785D01*
X2708173Y3879037D01*
X2703093Y3853129D01*
X2703093Y3827221D01*
X2708173Y3806393D01*
X2718587Y3795979D01*
X2734081Y3790899D01*
X2739415Y3790899D01*
X2754909Y3795979D01*
X2765323Y3806393D01*
X2770657Y3821887D01*
X2770657Y3827221D01*
X2765323Y3842715D01*
X2754909Y3853129D01*
X2739415Y3858463D01*
X2734081Y3858463D01*
X2718587Y3853129D01*
X2708173Y3842715D01*
X2703093Y3827221D01*
X7939303Y5359857D02*
G01*
X7933969Y5370271D01*
X7923555Y5380685D01*
X7913141Y5385765D01*
X7892567Y5385765D01*
X7882153Y5380685D01*
X7871739Y5370271D01*
X7866405Y5359857D01*
X7861325Y5344363D01*
X7861325Y5318201D01*
X7866405Y5302707D01*
X7871739Y5292293D01*
X7882153Y5281879D01*
X7892567Y5276799D01*
X7913141Y5276799D01*
X7923555Y5281879D01*
X7933969Y5292293D01*
X7939303Y5302707D01*
X8046237Y5385765D02*
G01*
X7994421Y5276799D01*
X7973593Y5385765D02*
G01*
X8046237Y5385765D01*
X7939303Y4572457D02*
G01*
X7933969Y4582871D01*
X7923555Y4593285D01*
X7913141Y4598365D01*
X7892567Y4598365D01*
X7882153Y4593285D01*
X7871739Y4582871D01*
X7866405Y4572457D01*
X7861325Y4556963D01*
X7861325Y4530801D01*
X7866405Y4515307D01*
X7871739Y4504893D01*
X7882153Y4494479D01*
X7892567Y4489399D01*
X7913141Y4489399D01*
X7923555Y4494479D01*
X7933969Y4504893D01*
X7939303Y4515307D01*
X7999501Y4598365D02*
G01*
X7984007Y4593285D01*
X7978673Y4582871D01*
X7978673Y4572457D01*
X7984007Y4562043D01*
X7994421Y4556963D01*
X8014995Y4551629D01*
X8030743Y4546549D01*
X8041157Y4536135D01*
X8046237Y4525721D01*
X8046237Y4510227D01*
X8041157Y4499813D01*
X8035823Y4494479D01*
X8020329Y4489399D01*
X7999501Y4489399D01*
X7984007Y4494479D01*
X7978673Y4499813D01*
X7973593Y4510227D01*
X7973593Y4525721D01*
X7978673Y4536135D01*
X7989087Y4546549D01*
X8004581Y4551629D01*
X8025409Y4556963D01*
X8035823Y4562043D01*
X8041157Y4572457D01*
X8041157Y4582871D01*
X8035823Y4593285D01*
X8020329Y4598365D01*
X7999501Y4598365D01*
X3963670Y2833115D02*
G01*
X3963670Y2750057D01*
X3958336Y2734310D01*
X3953256Y2729229D01*
X3942841Y2724150D01*
X3932427Y2724150D01*
X3922013Y2729229D01*
X3916679Y2734310D01*
X3911600Y2750057D01*
X3911600Y2760471D01*
X3997959Y2833115D02*
G01*
X3997959Y2724150D01*
X3997959Y2833115D02*
G01*
X4044695Y2833115D01*
X4060190Y2828036D01*
X4065270Y2822702D01*
X4070604Y2812287D01*
X4070604Y2796794D01*
X4065270Y2786379D01*
X4060190Y2781300D01*
X4044695Y2775965D01*
X3997959Y2775965D01*
D14*
X1476502Y4572000D02*
G01*
X1551431Y4572000D01*
X1566418Y4577079D01*
X1576578Y4586986D01*
X1581404Y4601971D01*
X1581404Y4611878D01*
X1576578Y4627118D01*
X1566418Y4637023D01*
X1551431Y4642104D01*
X1476502Y4642104D01*
X1491487Y4744973D02*
G01*
X1481581Y4735068D01*
X1476502Y4720081D01*
X1476502Y4700015D01*
X1481581Y4685029D01*
X1491487Y4675123D01*
X1501394Y4675123D01*
X1511554Y4679950D01*
X1516379Y4685029D01*
X1521460Y4694936D01*
X1531620Y4724907D01*
X1536445Y4735068D01*
X1541526Y4739894D01*
X1551431Y4744973D01*
X1566418Y4744973D01*
X1576578Y4735068D01*
X1581404Y4720081D01*
X1581404Y4700015D01*
X1576578Y4685029D01*
X1566418Y4675123D01*
X1476502Y4777994D02*
G01*
X1581404Y4777994D01*
X1476502Y4777994D02*
G01*
X1476502Y4822952D01*
X1481581Y4837937D01*
X1486407Y4843018D01*
X1496568Y4848097D01*
X1506473Y4848097D01*
X1516379Y4843018D01*
X1521460Y4837937D01*
X1526539Y4822952D01*
X1526539Y4777994D02*
G01*
X1526539Y4822952D01*
X1531620Y4837937D01*
X1536445Y4843018D01*
X1546605Y4848097D01*
X1561592Y4848097D01*
X1571497Y4843018D01*
X1576578Y4837937D01*
X1581404Y4822952D01*
X1581404Y4777994D01*
X1616455Y4881118D02*
G01*
X1616455Y4971034D01*
X1476502Y5063997D02*
G01*
X1476502Y5013960D01*
X1521460Y5008879D01*
X1516379Y5013960D01*
X1511554Y5028945D01*
X1511554Y5043931D01*
X1516379Y5058918D01*
X1526539Y5069078D01*
X1541526Y5073904D01*
X1551431Y5073904D01*
X1566418Y5069078D01*
X1576578Y5058918D01*
X1581404Y5043931D01*
X1581404Y5028945D01*
X1576578Y5013960D01*
X1571497Y5008879D01*
X1561592Y5004054D01*
X1476502Y5106923D02*
G01*
X1581404Y5147055D01*
X1476502Y5186934D02*
G01*
X1581404Y5147055D01*
D12*
X9613976Y4915915D02*
G01*
X9613976Y4806950D01*
X9686620Y4915915D02*
G01*
X9686620Y4806950D01*
X9613976Y4864100D02*
G01*
X9686620Y4864100D01*
X9793808Y4900421D02*
G01*
X9783394Y4910836D01*
X9767646Y4915915D01*
X9747072Y4915915D01*
X9731324Y4910836D01*
X9720910Y4900421D01*
X9720910Y4890007D01*
X9726244Y4879594D01*
X9731324Y4874260D01*
X9741738Y4869179D01*
X9772980Y4858765D01*
X9783394Y4853686D01*
X9788474Y4848352D01*
X9793808Y4837937D01*
X9793808Y4822444D01*
X9783394Y4812029D01*
X9767646Y4806950D01*
X9747072Y4806950D01*
X9731324Y4812029D01*
X9720910Y4822444D01*
X2228341Y5741415D02*
G01*
X2217927Y5736336D01*
X2207513Y5725921D01*
X2202179Y5715507D01*
X2197100Y5699760D01*
X2197100Y5673852D01*
X2202179Y5658357D01*
X2207513Y5647944D01*
X2217927Y5637529D01*
X2228341Y5632450D01*
X2249170Y5632450D01*
X2259329Y5637529D01*
X2269743Y5647944D01*
X2275077Y5658357D01*
X2280158Y5673852D01*
X2280158Y5699760D01*
X2275077Y5715507D01*
X2269743Y5725921D01*
X2259329Y5736336D01*
X2249170Y5741415D01*
X2228341Y5741415D01*
X2243836Y5653023D02*
G01*
X2275077Y5622036D01*
X2314447Y5720587D02*
G01*
X2324861Y5725921D01*
X2340609Y5741415D01*
X2340609Y5632450D01*
X2926841Y5754115D02*
G01*
X2916427Y5749036D01*
X2906013Y5738621D01*
X2900679Y5728207D01*
X2895600Y5712460D01*
X2895600Y5686552D01*
X2900679Y5671057D01*
X2906013Y5660644D01*
X2916427Y5650229D01*
X2926841Y5645150D01*
X2947670Y5645150D01*
X2957829Y5650229D01*
X2968243Y5660644D01*
X2973577Y5671057D01*
X2978658Y5686552D01*
X2978658Y5712460D01*
X2973577Y5728207D01*
X2968243Y5738621D01*
X2957829Y5749036D01*
X2947670Y5754115D01*
X2926841Y5754115D01*
X2942336Y5665723D02*
G01*
X2973577Y5634736D01*
X3018281Y5728207D02*
G01*
X3018281Y5733287D01*
X3023361Y5743702D01*
X3028695Y5749036D01*
X3039109Y5754115D01*
X3059684Y5754115D01*
X3070097Y5749036D01*
X3075431Y5743702D01*
X3080511Y5733287D01*
X3080511Y5722873D01*
X3075431Y5712460D01*
X3065018Y5696965D01*
X3012947Y5645150D01*
X3085845Y5645150D01*
X3975087Y5220705D02*
G01*
X3975087Y5142727D01*
X3980167Y5127233D01*
X3990581Y5116819D01*
X4006329Y5111739D01*
X4016743Y5111739D01*
X4032237Y5116819D01*
X4042651Y5127233D01*
X4047731Y5142727D01*
X4047731Y5220705D01*
X4082021Y5199877D02*
G01*
X4092435Y5205211D01*
X4108183Y5220705D01*
X4108183Y5111739D01*
X2870200Y4369815D02*
G01*
X2870200Y4291837D01*
X2875279Y4276344D01*
X2885693Y4265929D01*
X2901441Y4260850D01*
X2911856Y4260850D01*
X2927350Y4265929D01*
X2937763Y4276344D01*
X2942843Y4291837D01*
X2942843Y4369815D01*
X2982468Y4343907D02*
G01*
X2982468Y4348987D01*
X2987547Y4359402D01*
X2992881Y4364736D01*
X3003295Y4369815D01*
X3023870Y4369815D01*
X3034284Y4364736D01*
X3039618Y4359402D01*
X3044697Y4348987D01*
X3044697Y4338573D01*
X3039618Y4328160D01*
X3029204Y4312665D01*
X2977134Y4260850D01*
X3050031Y4260850D01*
X1727200Y4065015D02*
G01*
X1727200Y3987037D01*
X1732279Y3971544D01*
X1742694Y3961129D01*
X1758442Y3956050D01*
X1768855Y3956050D01*
X1784350Y3961129D01*
X1794763Y3971544D01*
X1799844Y3987037D01*
X1799844Y4065015D01*
X1844547Y4065015D02*
G01*
X1901697Y4065015D01*
X1870710Y4023360D01*
X1886204Y4023360D01*
X1896618Y4018279D01*
X1901697Y4013200D01*
X1907031Y3997452D01*
X1907031Y3987037D01*
X1901697Y3971544D01*
X1891284Y3961129D01*
X1875789Y3956050D01*
X1860295Y3956050D01*
X1844547Y3961129D01*
X1839468Y3966210D01*
X1834134Y3976623D01*
X8267661Y5830341D02*
G01*
X8267661Y5752363D01*
X8272741Y5736869D01*
X8283155Y5726455D01*
X8298903Y5721375D01*
X8309317Y5721375D01*
X8324811Y5726455D01*
X8335225Y5736869D01*
X8340305Y5752363D01*
X8340305Y5830341D01*
X8437079Y5830341D02*
G01*
X8385009Y5830341D01*
X8379929Y5783605D01*
X8385009Y5788685D01*
X8400757Y5794019D01*
X8416251Y5794019D01*
X8431745Y5788685D01*
X8442159Y5778525D01*
X8447493Y5762777D01*
X8447493Y5752363D01*
X8442159Y5736869D01*
X8431745Y5726455D01*
X8416251Y5721375D01*
X8400757Y5721375D01*
X8385009Y5726455D01*
X8379929Y5731535D01*
X8374595Y5741949D01*
X4076700Y2452115D02*
G01*
X4076700Y2374137D01*
X4081779Y2358644D01*
X4092193Y2348229D01*
X4107941Y2343150D01*
X4118356Y2343150D01*
X4133850Y2348229D01*
X4144263Y2358644D01*
X4149343Y2374137D01*
X4149343Y2452115D01*
X4246118Y2436621D02*
G01*
X4240784Y2447036D01*
X4225290Y2452115D01*
X4214875Y2452115D01*
X4199381Y2447036D01*
X4188968Y2431287D01*
X4183634Y2405379D01*
X4183634Y2379471D01*
X4188968Y2358644D01*
X4199381Y2348229D01*
X4214875Y2343150D01*
X4220209Y2343150D01*
X4235704Y2348229D01*
X4246118Y2358644D01*
X4251197Y2374137D01*
X4251197Y2379471D01*
X4246118Y2394965D01*
X4235704Y2405379D01*
X4220209Y2410460D01*
X4214875Y2410460D01*
X4199381Y2405379D01*
X4188968Y2394965D01*
X4183634Y2379471D01*
X1461515Y3378200D02*
G01*
X1352550Y3378200D01*
X1461515Y3378200D02*
G01*
X1461515Y3331463D01*
X1456436Y3315970D01*
X1451102Y3310636D01*
X1440687Y3305555D01*
X1425194Y3305555D01*
X1414779Y3310636D01*
X1409700Y3315970D01*
X1404365Y3331463D01*
X1404365Y3378200D01*
X1461515Y3271265D02*
G01*
X1352550Y3245104D01*
X1461515Y3219195D02*
G01*
X1352550Y3245104D01*
X1461515Y3219195D02*
G01*
X1352550Y3193287D01*
X1461515Y3167379D02*
G01*
X1352550Y3193287D01*
X1461515Y3133089D02*
G01*
X1352550Y3133089D01*
X1461515Y3133089D02*
G01*
X1461515Y3086100D01*
X1456436Y3070605D01*
X1451102Y3065526D01*
X1440687Y3060192D01*
X1430273Y3060192D01*
X1419860Y3065526D01*
X1414779Y3070605D01*
X1409700Y3086100D01*
X1409700Y3133089D01*
X1409700Y3096513D02*
G01*
X1352550Y3060192D01*
G36*
X1882292Y5488279D02*
G01*
X1882292Y5408320D01*
X1912264Y5448300D01*
G37*
D13*
X1130300Y5727700D02*
G01*
X1257300Y5727700D01*
X1155694Y5689600D02*
G01*
X1231894Y5727700D01*
X1231894Y5727700D02*
G01*
X1231894Y5765800D01*
X1155694Y5765800D02*
G01*
X1231894Y5727700D01*
X1155694Y5727700D02*
G01*
X1155694Y5765800D01*
X1231894Y5727700D02*
G01*
X1231894Y5689600D01*
X1155694Y5727700D02*
G01*
X1155694Y5689600D01*
D15*
X1282694Y5867697D02*
G01*
X1282694Y5587700D01*
X1423796Y5587702D02*
G01*
X963792Y5587700D01*
X1423796Y5867697D02*
G01*
X963792Y5867699D01*
X1423796Y5587702D02*
G01*
X1423796Y5604586D01*
X1423796Y5850813D02*
G01*
X1423796Y5867697D01*
X963792Y5587700D02*
G01*
X963792Y5604586D01*
X963792Y5850813D02*
G01*
X963792Y5867699D01*
D12*
X8398019Y2528760D02*
G01*
X8257019Y2528760D01*
X8257019Y2348039D02*
G01*
X8398019Y2348039D01*
X8413259Y2363279D02*
G01*
X8413259Y2513520D01*
X8035780Y2528760D02*
G01*
X8176780Y2528760D01*
X8176780Y2348039D02*
G01*
X8035780Y2348039D01*
X8020540Y2363279D02*
G01*
X8020540Y2513520D01*
X5527819Y2541460D02*
G01*
X5386819Y2541460D01*
X5386819Y2360739D02*
G01*
X5527819Y2360739D01*
X5543059Y2375979D02*
G01*
X5543059Y2526220D01*
X5165580Y2541460D02*
G01*
X5306580Y2541460D01*
X5306580Y2360739D02*
G01*
X5165580Y2360739D01*
X5150340Y2375979D02*
G01*
X5150340Y2526220D01*
X6734319Y2528760D02*
G01*
X6593319Y2528760D01*
X6593319Y2348039D02*
G01*
X6734319Y2348039D01*
X6749559Y2363279D02*
G01*
X6749559Y2513520D01*
X6372080Y2528760D02*
G01*
X6513080Y2528760D01*
X6513080Y2348039D02*
G01*
X6372080Y2348039D01*
X6356840Y2363279D02*
G01*
X6356840Y2513520D01*
X7928119Y2528760D02*
G01*
X7787119Y2528760D01*
X7787119Y2348039D02*
G01*
X7928119Y2348039D01*
X7943359Y2363279D02*
G01*
X7943359Y2513520D01*
X7565880Y2528760D02*
G01*
X7706880Y2528760D01*
X7706880Y2348039D02*
G01*
X7565880Y2348039D01*
X7550640Y2363279D02*
G01*
X7550640Y2513520D01*
X5299080Y2149109D02*
G01*
X5170586Y2149109D01*
X5170586Y1965690D01*
X5299080Y1965690D01*
X5394319Y2149109D02*
G01*
X5522813Y2149109D01*
X5522813Y1965690D01*
X5394319Y1965690D01*
X6505580Y2149109D02*
G01*
X6377086Y2149109D01*
X6377086Y1965690D01*
X6505580Y1965690D01*
X6600819Y2149109D02*
G01*
X6729313Y2149109D01*
X6729313Y1965690D01*
X6600819Y1965690D01*
X7699380Y2161809D02*
G01*
X7570886Y2161809D01*
X7570886Y1978390D01*
X7699380Y1978390D01*
X7794619Y2161809D02*
G01*
X7923113Y2161809D01*
X7923113Y1978390D01*
X7794619Y1978390D01*
D13*
X8966327Y5537200D02*
G01*
X8966327Y5410200D01*
X8928227Y5511805D02*
G01*
X8966327Y5435605D01*
X8966327Y5435605D02*
G01*
X9004427Y5435605D01*
X9004427Y5511805D02*
G01*
X8966327Y5435605D01*
X8966327Y5511805D02*
G01*
X9004427Y5511805D01*
X8966327Y5435605D02*
G01*
X8928227Y5435605D01*
X8966327Y5511805D02*
G01*
X8928227Y5511805D01*
D15*
X9106324Y5384805D02*
G01*
X8826327Y5384805D01*
X8826329Y5243703D02*
G01*
X8826327Y5703707D01*
X9106324Y5243703D02*
G01*
X9106326Y5703707D01*
X8826329Y5243703D02*
G01*
X8843213Y5243703D01*
X9089440Y5243703D02*
G01*
X9106324Y5243703D01*
X8826327Y5703707D02*
G01*
X8843213Y5703707D01*
X9089440Y5703707D02*
G01*
X9106326Y5703707D01*
X2186940Y1595120D02*
G01*
X2186990Y2172106D01*
X3147009Y2172106D01*
X3147059Y1595120D01*
X1787001Y3494511D02*
G01*
X1787001Y1774515D01*
X1967001Y3674511D02*
G01*
X3366998Y3674511D01*
X1967001Y1594515D02*
G01*
X3366998Y1594515D01*
X3546998Y3494511D02*
G01*
X3546998Y1774515D01*
X2438400Y3421379D02*
G01*
X2133600Y3421379D01*
X2133600Y3649979D01*
X2438400Y3649979D01*
X2438400Y3421379D01*
X2800350Y3421379D02*
G01*
X2533650Y3421379D01*
X2533650Y3649979D01*
X2800350Y3649979D01*
X2800350Y3421379D01*
X3200400Y3421379D02*
G01*
X2889250Y3421379D01*
X2889250Y3649979D01*
X3200400Y3649979D01*
X3200400Y3421379D01*
X8001000Y3873512D02*
G01*
X8001000Y3797312D01*
X8051800Y3835412D02*
G01*
X7962900Y3835412D01*
X7442200Y1981187D02*
G01*
X7442200Y2565387D01*
X6832600Y1981187D02*
G01*
X6832600Y2565387D01*
X7010514Y1973275D02*
G01*
X6995520Y1973275D01*
X7010514Y2573276D02*
G01*
X7264285Y2573276D01*
X7010514Y1973275D02*
G01*
X7264285Y1973275D01*
X5054600Y1981187D02*
G01*
X5054600Y2565387D01*
X4445000Y1981187D02*
G01*
X4445000Y2565387D01*
X4622914Y1973275D02*
G01*
X4607920Y1973275D01*
X4622914Y2573276D02*
G01*
X4876685Y2573276D01*
X4622914Y1973275D02*
G01*
X4876685Y1973275D01*
X6248400Y1981187D02*
G01*
X6248400Y2565387D01*
X5638800Y1981187D02*
G01*
X5638800Y2565387D01*
X5816714Y1973275D02*
G01*
X5801720Y1973275D01*
X5816714Y2573276D02*
G01*
X6070485Y2573276D01*
X5816714Y1973275D02*
G01*
X6070485Y1973275D01*
X9816993Y5806419D02*
G01*
X9656965Y5806419D01*
X9657021Y5166372D02*
G01*
X9816993Y5166372D01*
X9816993Y5166329D02*
G01*
X9816993Y5806409D01*
X10417017Y5086370D02*
G01*
X9657011Y5086370D01*
X10416992Y5736396D02*
G01*
X10416992Y5236397D01*
X9657011Y5886371D02*
G01*
X10417017Y5886371D01*
X9657006Y5806417D02*
G01*
X9657006Y5886427D01*
X9657021Y5086370D02*
G01*
X9657021Y5166372D01*
X8445500Y7010400D02*
G01*
X8216900Y7010400D01*
X8331200Y6896100D02*
G01*
X8331200Y7124700D01*
X2882900Y7010400D02*
G01*
X2654300Y7010400D01*
X9404350Y8045450D02*
G01*
X9404350Y5975350D01*
X1695450Y5975350D01*
X1695450Y8045450D01*
X9404350Y8045450D01*
D12*
X4003819Y5652960D02*
G01*
X3862819Y5652960D01*
X3862819Y5472239D02*
G01*
X4003819Y5472239D01*
X4019059Y5487479D02*
G01*
X4019059Y5637720D01*
X3641580Y5652960D02*
G01*
X3782580Y5652960D01*
X3782580Y5472239D02*
G01*
X3641580Y5472239D01*
X3626340Y5487479D02*
G01*
X3626340Y5637720D01*
X3968442Y4825646D02*
G01*
X3827442Y4825646D01*
X3827442Y4644925D02*
G01*
X3968442Y4644925D01*
X3983682Y4660165D02*
G01*
X3983682Y4810406D01*
X3606203Y4825646D02*
G01*
X3747203Y4825646D01*
X3747203Y4644925D02*
G01*
X3606203Y4644925D01*
X3590963Y4660165D02*
G01*
X3590963Y4810406D01*
D15*
X4527804Y5746508D02*
G01*
X7257795Y5746508D01*
X7257795Y2966504D01*
X4527804Y2966504D01*
X4527804Y5746508D01*
X4557801Y5319509D02*
G01*
X7227798Y5319509D01*
X7227798Y3393503D01*
X4557801Y3393503D01*
X4557801Y5319509D01*
D16*
X1932299Y5548299D02*
G01*
X2092299Y5548299D01*
X2092299Y5348300D01*
X1932299Y5348300D01*
X1852300Y5348300D02*
G01*
X1692300Y5348300D01*
X1692300Y5548299D01*
X1852300Y5548299D01*
X2092299Y5548299D02*
G01*
X2092299Y5548299D01*
X2122299Y5518299D01*
X2122299Y5378300D01*
X2122299Y5378300D01*
X2092299Y5348300D01*
D15*
X9491502Y4098813D02*
G01*
X9491502Y3038612D01*
X9011693Y3038612D01*
X9011693Y4098813D01*
X9490994Y4098813D01*
X9491502Y4098813D01*
X9431586Y3038716D02*
G01*
X9431586Y4098709D01*
D12*
X1939919Y4937490D02*
G01*
X2068413Y4937490D01*
X2068413Y5120909D01*
X1939919Y5120909D01*
X1844680Y4937490D02*
G01*
X1716186Y4937490D01*
X1716186Y5120909D01*
X1844680Y5120909D01*
X1939919Y4696190D02*
G01*
X2068413Y4696190D01*
X2068413Y4879609D01*
X1939919Y4879609D01*
X1844680Y4696190D02*
G01*
X1716186Y4696190D01*
X1716186Y4879609D01*
X1844680Y4879609D01*
X2854319Y4937490D02*
G01*
X2982813Y4937490D01*
X2982813Y5120909D01*
X2854319Y5120909D01*
X2759080Y4937490D02*
G01*
X2630586Y4937490D01*
X2630586Y5120909D01*
X2759080Y5120909D01*
X2854319Y4696190D02*
G01*
X2982813Y4696190D01*
X2982813Y4879609D01*
X2854319Y4879609D01*
X2759080Y4696190D02*
G01*
X2630586Y4696190D01*
X2630586Y4879609D01*
X2759080Y4879609D01*
X2397119Y4696190D02*
G01*
X2525613Y4696190D01*
X2525613Y4879609D01*
X2397119Y4879609D01*
X2301880Y4696190D02*
G01*
X2173386Y4696190D01*
X2173386Y4879609D01*
X2301880Y4879609D01*
X2397119Y4937490D02*
G01*
X2525613Y4937490D01*
X2525613Y5120909D01*
X2397119Y5120909D01*
X2301880Y4937490D02*
G01*
X2173386Y4937490D01*
X2173386Y5120909D01*
X2301880Y5120909D01*
X4048119Y1762490D02*
G01*
X4176613Y1762490D01*
X4176613Y1945909D01*
X4048119Y1945909D01*
X3952880Y1762490D02*
G01*
X3824386Y1762490D01*
X3824386Y1945909D01*
X3952880Y1945909D01*
X8308980Y5170439D02*
G01*
X8180486Y5170439D01*
X8180486Y4987020D01*
X8308980Y4987020D01*
X8404219Y5170439D02*
G01*
X8532713Y5170439D01*
X8532713Y4987020D01*
X8404219Y4987020D01*
X8404219Y4721590D02*
G01*
X8532713Y4721590D01*
X8532713Y4905009D01*
X8404219Y4905009D01*
X8308980Y4721590D02*
G01*
X8180486Y4721590D01*
X8180486Y4905009D01*
X8308980Y4905009D01*
X8404219Y4480290D02*
G01*
X8532713Y4480290D01*
X8532713Y4663709D01*
X8404219Y4663709D01*
X8308980Y4480290D02*
G01*
X8180486Y4480290D01*
X8180486Y4663709D01*
X8308980Y4663709D01*
X7654919Y4721590D02*
G01*
X7783413Y4721590D01*
X7783413Y4905009D01*
X7654919Y4905009D01*
X7559680Y4721590D02*
G01*
X7431186Y4721590D01*
X7431186Y4905009D01*
X7559680Y4905009D01*
X7654919Y4988290D02*
G01*
X7783413Y4988290D01*
X7783413Y5171709D01*
X7654919Y5171709D01*
X7559680Y4988290D02*
G01*
X7431186Y4988290D01*
X7431186Y5171709D01*
X7559680Y5171709D01*
X3279780Y5616209D02*
G01*
X3151286Y5616209D01*
X3151286Y5432790D01*
X3279780Y5432790D01*
X3375019Y5616209D02*
G01*
X3503513Y5616209D01*
X3503513Y5432790D01*
X3375019Y5432790D01*
X3311519Y4975590D02*
G01*
X3440013Y4975590D01*
X3440013Y5159009D01*
X3311519Y5159009D01*
X3216280Y4975590D02*
G01*
X3087786Y4975590D01*
X3087786Y5159009D01*
X3216280Y5159009D01*
X3311519Y4696190D02*
G01*
X3440013Y4696190D01*
X3440013Y4879609D01*
X3311519Y4879609D01*
X3216280Y4696190D02*
G01*
X3087786Y4696190D01*
X3087786Y4879609D01*
X3216280Y4879609D01*
X8402241Y3318581D02*
G01*
X8402241Y3175086D01*
X8793558Y3175086D01*
X8793558Y3318581D01*
X8402241Y3818818D02*
G01*
X8402241Y3962313D01*
X8793558Y3962313D01*
X8793558Y3818818D01*
X3968445Y4544430D02*
G01*
X3827444Y4544430D01*
X3827444Y4363709D02*
G01*
X3968445Y4363709D01*
X3983685Y4378949D02*
G01*
X3983685Y4529190D01*
X3606205Y4544430D02*
G01*
X3747206Y4544430D01*
X3747206Y4363709D02*
G01*
X3606205Y4363709D01*
X3590965Y4378949D02*
G01*
X3590965Y4529190D01*
X2517919Y4484560D02*
G01*
X2376919Y4484560D01*
X2376919Y4303839D02*
G01*
X2517919Y4303839D01*
X2533159Y4319079D02*
G01*
X2533159Y4469320D01*
X2155680Y4484560D02*
G01*
X2296680Y4484560D01*
X2296680Y4303839D02*
G01*
X2155680Y4303839D01*
X2140440Y4319079D02*
G01*
X2140440Y4469320D01*
X2517919Y4192460D02*
G01*
X2376919Y4192460D01*
X2376919Y4011739D02*
G01*
X2517919Y4011739D01*
X2533159Y4026979D02*
G01*
X2533159Y4177220D01*
X2155680Y4192460D02*
G01*
X2296680Y4192460D01*
X2296680Y4011739D02*
G01*
X2155680Y4011739D01*
X2140440Y4026979D02*
G01*
X2140440Y4177220D01*
X2155680Y3757739D02*
G01*
X2296680Y3757739D01*
X2296680Y3938460D02*
G01*
X2155680Y3938460D01*
X2140440Y3923220D02*
G01*
X2140440Y3772979D01*
X2517919Y3757739D02*
G01*
X2376919Y3757739D01*
X2376919Y3938460D02*
G01*
X2517919Y3938460D01*
X2533159Y3923220D02*
G01*
X2533159Y3772979D01*
X7788419Y5424360D02*
G01*
X7647419Y5424360D01*
X7647419Y5243639D02*
G01*
X7788419Y5243639D01*
X7803659Y5258879D02*
G01*
X7803659Y5409120D01*
X7426180Y5424360D02*
G01*
X7567180Y5424360D01*
X7567180Y5243639D02*
G01*
X7426180Y5243639D01*
X7410940Y5258879D02*
G01*
X7410940Y5409120D01*
X7426180Y4456239D02*
G01*
X7567180Y4456239D01*
X7567180Y4636960D02*
G01*
X7426180Y4636960D01*
X7410940Y4621720D02*
G01*
X7410940Y4471479D01*
X7788419Y4456239D02*
G01*
X7647419Y4456239D01*
X7647419Y4636960D02*
G01*
X7788419Y4636960D01*
X7803659Y4621720D02*
G01*
X7803659Y4471479D01*
D15*
X3863340Y2674620D02*
G01*
X4074480Y2674620D01*
X4074480Y2532860D02*
G01*
X3863428Y2532860D01*
D17*
X1335102Y4556587D02*
G01*
X1335102Y4535423D01*
X1335102Y5243576D02*
G01*
X1335102Y5222412D01*
X1175103Y5339499D02*
G01*
X1179311Y5339499D01*
X1175103Y5339499D02*
G01*
X1030871Y5339499D01*
X1035103Y4439500D02*
G01*
X1180111Y4439500D01*
X794981Y5339575D02*
G01*
X797267Y5339575D01*
X655027Y5339575D01*
X655027Y4439399D01*
X794981Y4439399D01*
X1195103Y4929502D02*
G01*
X1215102Y4929502D01*
X1155103Y4789502D02*
G01*
X1195103Y4789502D01*
X1195103Y4849502D01*
X1215102Y4849502D01*
X1155103Y4989502D02*
G01*
X1195103Y4989502D01*
X1195103Y4929502D01*
X1155103Y4990503D02*
G01*
X1155103Y4788501D01*
D15*
X771779Y5171267D02*
G01*
X1021969Y5121483D01*
X1021969Y4991435D01*
X771779Y4941397D01*
X771779Y4990927D01*
X981837Y5030805D01*
X981837Y5083637D01*
X771779Y5123769D01*
X771779Y5171267D01*
X901827Y5141295D02*
G01*
X901827Y5101417D01*
X901857Y5011359D02*
G01*
X901857Y4971359D01*
X902365Y4683681D02*
G01*
X902365Y4643681D01*
X902335Y4813617D02*
G01*
X902335Y4773739D01*
X772287Y4843589D02*
G01*
X1022477Y4793805D01*
X1022477Y4663757D01*
X772287Y4613719D01*
X772287Y4663249D01*
X982345Y4703127D01*
X982345Y4755959D01*
X772287Y4796091D01*
X772287Y4843589D01*
D16*
X9920914Y4393067D02*
G01*
X9920914Y4318716D01*
X9920914Y4643716D02*
G01*
X9920914Y4544334D01*
X9920914Y2818714D02*
G01*
X10400903Y2818714D01*
X10400903Y2918713D01*
X9680910Y2918713D01*
X9680910Y3298715D01*
X10400903Y3298715D01*
X10400903Y3398715D01*
X9920914Y3398715D01*
X9920914Y3738719D01*
X10400903Y3738719D01*
X10400903Y3838719D01*
X9680910Y3838719D01*
X9680910Y4218716D01*
X10400903Y4218716D01*
X10400903Y4318716D01*
X9920914Y4318716D01*
X9920914Y2593065D02*
G01*
X9920914Y2493713D01*
X9920914Y2818714D02*
G01*
X9920914Y2744332D01*
X9520913Y4643716D02*
G01*
X9520913Y2493713D01*
X9520913Y2493713D02*
G01*
X8800901Y2493713D01*
X8800901Y2393711D01*
X10400903Y2393711D01*
X10400903Y2493713D01*
X9920914Y2493713D01*
X8800901Y4743716D02*
G01*
X8800901Y4643716D01*
X10400903Y4743716D02*
G01*
X8800901Y4743716D01*
X9920914Y4643716D02*
G01*
X10400903Y4643716D01*
X10400903Y4743716D01*
X8800901Y4643716D02*
G01*
X9520913Y4643716D01*
D12*
X2578320Y5439178D02*
G01*
X2578320Y5584421D01*
X2475158Y5584421D01*
X2273079Y5439178D02*
G01*
X2273079Y5584421D01*
X2376241Y5584421D01*
X2471239Y5439178D02*
G01*
X2380160Y5439178D01*
X2984720Y5421680D02*
G01*
X2984720Y5601919D01*
X2881558Y5601919D01*
X2679479Y5421680D02*
G01*
X2679479Y5601919D01*
X2782641Y5601919D01*
X2877639Y5421680D02*
G01*
X2786560Y5421680D01*
D15*
X3585601Y5232788D02*
G01*
X3585601Y5078788D01*
X3907398Y5236794D02*
G01*
X3907393Y5076791D01*
X3703200Y5252793D02*
G01*
X3791579Y5252793D01*
X3098800Y4375150D02*
G01*
X3098800Y4235450D01*
X3390900Y4347540D02*
G01*
X3390900Y4263062D01*
X3213100Y4394200D02*
G01*
X3289300Y4394200D01*
D12*
X1943320Y4207278D02*
G01*
X1943320Y4352521D01*
X1840158Y4352521D01*
X1638079Y4207278D02*
G01*
X1638079Y4352521D01*
X1741241Y4352521D01*
X1836239Y4207278D02*
G01*
X1745160Y4207278D01*
D15*
X8201593Y5589104D02*
G01*
X8201593Y5409102D01*
X8316592Y5589104D02*
G01*
X8396594Y5589104D01*
X8511595Y5589104D02*
G01*
X8511595Y5409102D01*
D13*
X4152900Y2235200D02*
G01*
X4152900Y2146300D01*
X4148609Y2146300D01*
X4053613Y2298700D02*
G01*
X4152900Y2298700D01*
X4152900Y2209800D01*
X3852390Y2146300D02*
G01*
X3848100Y2146300D01*
X3848100Y2298700D01*
X3947386Y2298700D01*
X4042382Y2146300D02*
G01*
X3958617Y2146300D01*
D15*
X849668Y2580800D02*
G01*
X710600Y2580800D01*
X1270599Y2580800D02*
G01*
X1131531Y2580800D01*
X849668Y3870799D02*
G01*
X710600Y3870799D01*
X1270599Y3870799D02*
G01*
X1131531Y3870799D01*
X210601Y3579931D02*
G01*
X710600Y3579931D01*
X210601Y3229932D02*
G01*
X210601Y3579931D01*
X710600Y3229932D02*
G01*
X210601Y3229932D01*
X710600Y2580800D02*
G01*
X710600Y3870799D01*
X1270599Y3870799D02*
G01*
X1270599Y2580800D01*
D12*
G75*
G01*
X8398020Y2348040D02*
G03*
X8413260Y2363280I0J15240D01*
G75*
G01*
X8413260Y2513520D02*
G03*
X8398020Y2528760I-15240J0D01*
G75*
G01*
X8035780Y2348040D02*
G02*
X8020540Y2363280I0J15240D01*
G75*
G01*
X8020540Y2513520D02*
G02*
X8035780Y2528760I15240J0D01*
G75*
G01*
X5527820Y2360740D02*
G03*
X5543060Y2375980I0J15240D01*
G75*
G01*
X5543060Y2526220D02*
G03*
X5527820Y2541460I-15240J0D01*
G75*
G01*
X5165580Y2360740D02*
G02*
X5150340Y2375980I0J15240D01*
G75*
G01*
X5150340Y2526220D02*
G02*
X5165580Y2541460I15240J0D01*
G75*
G01*
X6734320Y2348040D02*
G03*
X6749560Y2363280I0J15240D01*
G75*
G01*
X6749560Y2513520D02*
G03*
X6734320Y2528760I-15240J0D01*
G75*
G01*
X6372080Y2348040D02*
G02*
X6356840Y2363280I0J15240D01*
G75*
G01*
X6356840Y2513520D02*
G02*
X6372080Y2528760I15240J0D01*
G75*
G01*
X7928120Y2348040D02*
G03*
X7943360Y2363280I0J15240D01*
G75*
G01*
X7943360Y2513520D02*
G03*
X7928120Y2528760I-15240J0D01*
G75*
G01*
X7565880Y2348040D02*
G02*
X7550640Y2363280I0J15240D01*
G75*
G01*
X7550640Y2513520D02*
G02*
X7565880Y2528760I15240J0D01*
D15*
G75*
G01*
X3546998Y3494517D02*
G03*
X3367004Y3674511I-179999J-5D01*
G75*
G01*
X1787002Y1774510D02*
G03*
X1966996Y1594515I179999J5D01*
G75*
G01*
X1966996Y3674511D02*
G03*
X1787002Y3494517I5J-179999D01*
G75*
G01*
X3367004Y1594515D02*
G03*
X3546998Y1774510I-5J180000D01*
D12*
G75*
G01*
X4003820Y5472240D02*
G03*
X4019060Y5487480I0J15240D01*
G75*
G01*
X4019060Y5637720D02*
G03*
X4003820Y5652960I-15240J0D01*
G75*
G01*
X3641580Y5472240D02*
G02*
X3626340Y5487480I0J15240D01*
G75*
G01*
X3626340Y5637720D02*
G02*
X3641580Y5652960I15240J0D01*
G75*
G01*
X3968443Y4644926D02*
G03*
X3983683Y4660166I0J15240D01*
G75*
G01*
X3983683Y4810407D02*
G03*
X3968443Y4825647I-15240J0D01*
G75*
G01*
X3606203Y4644926D02*
G02*
X3590963Y4660166I0J15240D01*
G75*
G01*
X3590963Y4810407D02*
G02*
X3606203Y4825647I15240J0D01*
D18*
G75*
G01*
X8949096Y3845710D02*
G03*
X8949096Y3845456I-20000J-127D01*
D12*
G75*
G01*
X3968445Y4363710D02*
G03*
X3983685Y4378950I0J15240D01*
G75*
G01*
X3983685Y4529191D02*
G03*
X3968445Y4544431I-15240J0D01*
G75*
G01*
X3606206Y4363710D02*
G02*
X3590966Y4378950I0J15240D01*
G75*
G01*
X3590966Y4529191D02*
G02*
X3606206Y4544431I15240J0D01*
G75*
G01*
X2517920Y4303840D02*
G03*
X2533160Y4319080I0J15240D01*
G75*
G01*
X2533160Y4469320D02*
G03*
X2517920Y4484560I-15240J0D01*
G75*
G01*
X2155680Y4303840D02*
G02*
X2140440Y4319080I0J15240D01*
G75*
G01*
X2140440Y4469320D02*
G02*
X2155680Y4484560I15240J0D01*
G75*
G01*
X2517920Y4011740D02*
G03*
X2533160Y4026980I0J15240D01*
G75*
G01*
X2533160Y4177220D02*
G03*
X2517920Y4192460I-15240J0D01*
G75*
G01*
X2155680Y4011740D02*
G02*
X2140440Y4026980I0J15240D01*
G75*
G01*
X2140440Y4177220D02*
G02*
X2155680Y4192460I15240J0D01*
G75*
G01*
X2155680Y3938460D02*
G03*
X2140440Y3923220I0J-15240D01*
G75*
G01*
X2140440Y3772980D02*
G03*
X2155680Y3757740I15240J0D01*
G75*
G01*
X2517920Y3938460D02*
G02*
X2533160Y3923220I0J-15240D01*
G75*
G01*
X2533160Y3772980D02*
G02*
X2517920Y3757740I-15240J0D01*
G75*
G01*
X7788420Y5243640D02*
G03*
X7803660Y5258880I0J15240D01*
G75*
G01*
X7803660Y5409120D02*
G03*
X7788420Y5424360I-15240J0D01*
G75*
G01*
X7426180Y5243640D02*
G02*
X7410940Y5258880I0J15240D01*
G75*
G01*
X7410940Y5409120D02*
G02*
X7426180Y5424360I15240J0D01*
G75*
G01*
X7426180Y4636960D02*
G03*
X7410940Y4621720I0J-15240D01*
G75*
G01*
X7410940Y4471480D02*
G03*
X7426180Y4456240I15240J0D01*
G75*
G01*
X7788420Y4636960D02*
G02*
X7803660Y4621720I0J-15240D01*
G75*
G01*
X7803660Y4471480D02*
G02*
X7788420Y4456240I-15240J0D01*
D15*
G75*
G01*
X4094480Y2644140D02*
G03*
X4074480Y2674140I-24990J5007D01*
G75*
G01*
X3863340Y2674620D02*
G03*
X3843340Y2644620I4990J-24993D01*
G75*
G01*
X4094480Y2562860D02*
G02*
X4074480Y2532860I-24990J-5007D01*
G75*
G01*
X3863429Y2532619D02*
G02*
X3843429Y2562619I4981J24987D01*
D16*
G75*
G01*
X9670910Y3568713D02*
G03*
X9670910Y3569236I100000J261D01*
G75*
G01*
X9660910Y4468711D02*
G03*
X9660910Y4469130I80000J209D01*
D15*
G75*
G01
X2747010Y3535680D02*
G03X2747010Y3535680I-80010J0D01*
G75*
G01
X3098013Y3535680D02*
G03X3098013Y3535680I-50013J0D01*
G75*
G01
X2336013Y3535680D02*
G03X2336013Y3535680I-50013J0D01*
G75*
G01
X2679700Y3535680D02*
G03X2679700Y3535680I-12700J0D01*
D10*
G75*
G01
X2621280Y1770380D02*
G03X2621280Y1770380I-81280J0D01*
G75*
G01
X2875280Y1770380D02*
G03X2875280Y1770380I-81280J0D01*
G75*
G01
X2875280Y2024380D02*
G03X2875280Y2024380I-81280J0D01*
G75*
G01
X2621280Y2024380D02*
G03X2621280Y2024380I-81280J0D01*
G75*
G01
X2621280Y2278380D02*
G03X2621280Y2278380I-81280J0D01*
G75*
G01
X2875280Y2278380D02*
G03X2875280Y2278380I-81280J0D01*
D15*
G75*
G01
X8295894Y3568725D02*
G03X8295894Y3568725I-459994J0D01*
G75*
G01
X7910906Y3568725D02*
G03X7910906Y3568725I-75006J0D01*
G75*
G01
X7397394Y2476500D02*
G03X7397394Y2476500I-56794J0D01*
G75*
G01
X6997090Y2482596D02*
G03X6997090Y2482596I-56794J0D01*
G75*
G01
X7403490Y2076196D02*
G03X7403490Y2076196I-56794J0D01*
G75*
G01
X6990994Y2070100D02*
G03X6990994Y2070100I-56794J0D01*
G75*
G01
X7308266Y2273300D02*
G03X7308266Y2273300I-170866J0D01*
G75*
G01
X5009794Y2476500D02*
G03X5009794Y2476500I-56794J0D01*
G75*
G01
X4609490Y2482596D02*
G03X4609490Y2482596I-56794J0D01*
G75*
G01
X5015890Y2076196D02*
G03X5015890Y2076196I-56794J0D01*
G75*
G01
X4603394Y2070100D02*
G03X4603394Y2070100I-56794J0D01*
G75*
G01
X4920666Y2273300D02*
G03X4920666Y2273300I-170866J0D01*
G75*
G01
X6203594Y2476500D02*
G03X6203594Y2476500I-56794J0D01*
G75*
G01
X5803290Y2482596D02*
G03X5803290Y2482596I-56794J0D01*
G75*
G01
X6209690Y2076196D02*
G03X6209690Y2076196I-56794J0D01*
G75*
G01
X5797194Y2070100D02*
G03X5797194Y2070100I-56794J0D01*
G75*
G01
X6114466Y2273300D02*
G03X6114466Y2273300I-170866J0D01*
G75*
G01
X8491245Y7010400D02*
G03X8491245Y7010400I-160020J0D01*
G75*
G01
X2928645Y7010400D02*
G03X2928645Y7010400I-160020J0D01*
G75*
G01
X3593998Y5010582D02*
G03X3593998Y5010582I-6401J0D01*
G75*
G01
X8204225Y5346700D02*
G03X8204225Y5346700I-12700J0D01*
M02*
