G04 Layer: TopSolderMaskLayer*
G04 EasyEDA v6.5.47, 2024-10-14 09:34:27*
G04 ce67ab0569d04c388b7640da7ad94f30,699dadb93aee4be8b9b8ad6142c81684,10*
G04 Gerber Generator version 0.2*
G04 Scale: 100 percent, Rotated: No, Reflected: No *
G04 Dimensions in millimeters *
G04 leading zeros omitted , absolute positions ,4 integer and 5 decimal *
%FSLAX45Y45*%
%MOMM*%

%AMMACRO1*4,1,8,-1.0211,-1.0508,-1.0508,-1.021,-1.0508,1.0211,-1.0211,1.0508,1.021,1.0508,1.0508,1.0211,1.0508,-1.021,1.021,-1.0508,-1.0211,-1.0508,0*%
%AMMACRO2*4,1,8,-0.7261,-0.7258,-0.7558,-0.696,-0.7558,0.6961,-0.7261,0.7258,0.726,0.7258,0.7558,0.6961,0.7558,-0.696,0.726,-0.7258,-0.7261,-0.7258,0*%
%AMMACRO3*4,1,8,-0.5873,-0.7393,-0.6171,-0.7095,-0.6171,0.7095,-0.5873,0.7393,0.5873,0.7393,0.6171,0.7095,0.6171,-0.7095,0.5873,-0.7393,-0.5873,-0.7393,0*%
%AMMACRO4*4,1,8,-1.5211,-1.0508,-1.5508,-1.021,-1.5508,1.0211,-1.5211,1.0508,1.521,1.0508,1.5508,1.0211,1.5508,-1.021,1.521,-1.0508,-1.5211,-1.0508,0*%
%AMMACRO5*4,1,8,-1.771,-1.8007,-1.8007,-1.771,-1.8007,1.771,-1.771,1.8007,1.771,1.8007,1.8007,1.771,1.8007,-1.771,1.771,-1.8007,-1.771,-1.8007,0*%
%AMMACRO6*4,1,8,-1.0371,-0.8128,-1.0668,-0.783,-1.0668,0.7831,-1.0371,0.8128,1.037,0.8128,1.0668,0.7831,1.0668,-0.783,1.037,-0.8128,-1.0371,-0.8128,0*%
%AMMACRO7*4,1,8,-0.6211,-1.0508,-0.6508,-1.021,-0.6508,1.0211,-0.6211,1.0508,0.621,1.0508,0.6508,1.0211,0.6508,-1.021,0.621,-1.0508,-0.6211,-1.0508,0*%
%AMMACRO8*4,1,8,-0.8711,-0.5008,-0.9008,-0.471,-0.9008,0.4711,-0.8711,0.5008,0.871,0.5008,0.9008,0.4711,0.9008,-0.471,0.871,-0.5008,-0.8711,-0.5008,0*%
%AMMACRO9*4,1,8,-1.5211,-0.4508,-1.5508,-0.421,-1.5508,0.4211,-1.5211,0.4508,1.521,0.4508,1.5508,0.4211,1.5508,-0.421,1.521,-0.4508,-1.5211,-0.4508,0*%
%AMMACRO10*4,1,8,-2.5611,-3.8608,-2.5908,-3.831,-2.5908,3.8311,-2.5611,3.8608,2.561,3.8608,2.5908,3.8311,2.5908,-3.831,2.561,-3.8608,-2.5611,-3.8608,0*%
%AMMACRO11*4,1,8,-1.0421,-1.1016,-1.1016,-1.0421,-1.1016,1.0421,-1.0421,1.1016,1.0421,1.1016,1.1016,1.0421,1.1016,-1.0421,1.0421,-1.1016,-1.0421,-1.1016,0*%
%AMMACRO12*4,1,8,-0.5211,-0.7506,-0.5508,-0.7208,-0.5508,0.7208,-0.5211,0.7506,0.521,0.7506,0.5508,0.7208,0.5508,-0.7208,0.521,-0.7506,-0.5211,-0.7506,0*%
%AMMACRO13*4,1,8,-1.3211,-0.9508,-1.3508,-0.921,-1.3508,0.9211,-1.3211,0.9508,1.321,0.9508,1.3508,0.9211,1.3508,-0.921,1.321,-0.9508,-1.3211,-0.9508,0*%
%AMMACRO14*4,1,8,-1.749,-0.6921,-1.7788,-0.6623,-1.7788,0.6623,-1.749,0.6921,1.749,0.6921,1.7788,0.6623,1.7788,-0.6623,1.749,-0.6921,-1.749,-0.6921,0*%
%AMMACRO15*4,1,47,-0.1588,-0.4826,-0.1629,-0.4822,-0.167,-0.4812,-0.1709,-0.4795,-0.1744,-0.4772,-0.1775,-0.4744,-0.5966,-0.0172,-0.5989,-0.0142,-0.6008,-0.0109,-0.6021,-0.0074,-0.603,-0.0038,-0.6033,0,-0.603,0.0038,-0.6021,0.0074,-0.6008,0.0109,-0.5989,0.0142,-0.5966,0.0172,-0.1775,0.4744,-0.1744,0.4772,-0.1709,0.4795,-0.167,0.4812,-0.1629,0.4822,-0.1588,0.4826,0.5779,0.4826,0.5815,0.4823,0.585,0.4816,0.5884,0.4803,0.5916,0.4786,0.5945,0.4764,0.5971,0.4738,0.5992,0.4709,0.601,0.4677,0.6022,0.4644,0.603,0.4608,0.6033,0.4572,0.6033,-0.4572,0.603,-0.4608,0.6022,-0.4644,0.601,-0.4677,0.5992,-0.4709,0.5971,-0.4738,0.5945,-0.4764,0.5916,-0.4786,0.5884,-0.4803,0.585,-0.4816,0.5815,-0.4823,0.5779,-0.4826,-0.1588,-0.4826,0*%
%AMMACRO16*4,1,8,-0.6211,-0.4508,-0.6508,-0.421,-0.6508,0.4211,-0.6211,0.4508,0.621,0.4508,0.6508,0.4211,0.6508,-0.421,0.621,-0.4508,-0.6211,-0.4508,0*%
%AMMACRO17*4,1,8,-0.6211,-0.4008,-0.6508,-0.371,-0.6508,0.3711,-0.6211,0.4008,0.621,0.4008,0.6508,0.3711,0.6508,-0.371,0.621,-0.4008,-0.6211,-0.4008,0*%
%AMMACRO18*4,1,8,-0.3711,-0.6758,-0.4008,-0.646,-0.4008,0.646,-0.3711,0.6758,0.371,0.6758,0.4008,0.646,0.4008,-0.646,0.371,-0.6758,-0.3711,-0.6758,0*%
%AMMACRO19*4,1,8,-0.2871,-0.5733,-0.3168,-0.5435,-0.3168,0.5436,-0.2871,0.5733,0.287,0.5733,0.3168,0.5436,0.3168,-0.5435,0.287,-0.5733,-0.2871,-0.5733,0*%
%AMMACRO20*4,1,8,-0.287,-0.5733,-0.3168,-0.5435,-0.3168,0.5436,-0.287,0.5733,0.287,0.5733,0.3168,0.5436,0.3168,-0.5435,0.287,-0.5733,-0.287,-0.5733,0*%
%AMMACRO21*4,1,8,-0.3711,-0.6008,-0.4008,-0.571,-0.4008,0.5711,-0.3711,0.6008,0.371,0.6008,0.4008,0.5711,0.4008,-0.571,0.371,-0.6008,-0.3711,-0.6008,0*%
%AMMACRO22*4,1,8,-0.3207,-0.55,-0.35,-0.5207,-0.35,0.5207,-0.3207,0.55,0.3207,0.55,0.35,0.5207,0.35,-0.5207,0.3207,-0.55,-0.3207,-0.55,0*%
%AMMACRO23*4,1,8,-0.3211,-0.5508,-0.3508,-0.521,-0.3508,0.5211,-0.3211,0.5508,0.321,0.5508,0.3508,0.5211,0.3508,-0.521,0.321,-0.5508,-0.3211,-0.5508,0*%
%AMMACRO24*4,1,8,-0.3211,-0.5858,-0.3508,-0.556,-0.3508,0.5561,-0.3211,0.5858,0.321,0.5858,0.3508,0.5561,0.3508,-0.556,0.321,-0.5858,-0.3211,-0.5858,0*%
%ADD10MACRO1*%
%ADD11MACRO2*%
%ADD12MACRO3*%
%ADD13MACRO4*%
%ADD14MACRO5*%
%ADD15MACRO6*%
%ADD16C,1.9016*%
%ADD17MACRO7*%
%ADD18MACRO8*%
%ADD19MACRO9*%
%ADD20MACRO10*%
%ADD21MACRO11*%
%ADD22C,2.2032*%
%ADD23C,3.7032*%
%ADD24C,7.1016*%
%ADD25MACRO12*%
%ADD26O,2.7015948X1.9015964*%
%ADD27MACRO13*%
%ADD28MACRO14*%
%ADD29MACRO15*%
%ADD30MACRO16*%
%ADD31MACRO17*%
%ADD32O,2.0015962000000003X1.2015978000000003*%
%ADD33C,3.6000*%
%ADD34MACRO18*%
%ADD35MACRO19*%
%ADD36MACRO20*%
%ADD37MACRO21*%
%ADD38MACRO22*%
%ADD39MACRO23*%
%ADD40MACRO24*%
%ADD41C,2.0016*%
%ADD42O,2.5015952X1.5015972000000002*%
%ADD43C,1.6256*%
%ADD44C,0.0158*%

%LPD*%
D10*
G01*
X963795Y5727700D03*
G01*
X1423797Y5727700D03*
D11*
G01*
X8319899Y2438400D03*
G01*
X8113900Y2438400D03*
G01*
X5449699Y2451100D03*
G01*
X5243700Y2451100D03*
G01*
X6656199Y2438400D03*
G01*
X6450200Y2438400D03*
G01*
X7849999Y2438400D03*
G01*
X7644000Y2438400D03*
D12*
G01*
X5250073Y2057400D03*
G01*
X5443326Y2057400D03*
G01*
X6456573Y2057400D03*
G01*
X6649826Y2057400D03*
G01*
X7650373Y2070100D03*
G01*
X7843626Y2070100D03*
D10*
G01*
X8966327Y5703704D03*
G01*
X8966327Y5243702D03*
D13*
G01*
X3516985Y3390900D03*
G01*
X3516985Y3136900D03*
G01*
X3516985Y2882900D03*
G01*
X3516985Y2628900D03*
G01*
X3516985Y2374900D03*
G01*
X3516985Y2120900D03*
G01*
X3516985Y1866900D03*
G01*
X1817014Y3390900D03*
G01*
X1817014Y3136900D03*
G01*
X1817014Y2882900D03*
G01*
X1817014Y2628900D03*
G01*
X1817014Y2374900D03*
G01*
X1817014Y2120900D03*
G01*
X1817014Y1866900D03*
D14*
G01*
X2456992Y2688894D03*
D15*
G01*
X3116986Y2398902D03*
G01*
X3116986Y2588894D03*
D16*
G01*
X7835900Y3818686D03*
G01*
X7835900Y3318687D03*
D17*
G01*
X6912406Y1873300D03*
G01*
X7362393Y1873300D03*
G01*
X7362393Y2673299D03*
G01*
X6912406Y2673299D03*
G01*
X4524806Y1873300D03*
G01*
X4974793Y1873300D03*
G01*
X4974793Y2673299D03*
G01*
X4524806Y2673299D03*
G01*
X5718606Y1873300D03*
G01*
X6168593Y1873300D03*
G01*
X6168593Y2673299D03*
G01*
X5718606Y2673299D03*
D18*
G01*
X9651991Y5586395D03*
G01*
X9651991Y5386398D03*
D19*
G01*
X10287000Y5811393D03*
G01*
X10287000Y5161406D03*
D20*
G01*
X1418590Y7010400D03*
G01*
X9681210Y7010400D03*
D11*
G01*
X3922702Y5562600D03*
G01*
X3722697Y5562600D03*
G01*
X3887325Y4735286D03*
G01*
X3687320Y4735286D03*
D21*
G01*
X5511807Y5596501D03*
D22*
G01*
X5765800Y5596509D03*
G01*
X6019800Y5596509D03*
G01*
X6273800Y5596509D03*
D23*
G01*
X4727803Y5546521D03*
G01*
X7057796Y5546521D03*
G01*
X4727803Y3166516D03*
G01*
X7057796Y3166516D03*
D24*
G01*
X1066825Y7937500D03*
G01*
X10033025Y7950200D03*
G01*
X10033025Y1841500D03*
G01*
X1066825Y1828800D03*
D25*
G01*
X1787271Y5448300D03*
G01*
X1997329Y5448300D03*
D26*
G01*
X9182608Y3568725D03*
G01*
X9181617Y3314700D03*
D27*
G01*
X9182595Y3822712D03*
D12*
G01*
X1988926Y5029200D03*
G01*
X1795673Y5029200D03*
G01*
X1988926Y4787900D03*
G01*
X1795673Y4787900D03*
G01*
X2903326Y5029200D03*
G01*
X2710073Y5029200D03*
G01*
X2903326Y4787900D03*
G01*
X2710073Y4787900D03*
G01*
X2446126Y4787900D03*
G01*
X2252873Y4787900D03*
G01*
X2446126Y5029200D03*
G01*
X2252873Y5029200D03*
G01*
X4097126Y1854200D03*
G01*
X3903873Y1854200D03*
G01*
X8259973Y5078730D03*
G01*
X8453226Y5078730D03*
G01*
X8453226Y4813300D03*
G01*
X8259973Y4813300D03*
G01*
X8453226Y4572000D03*
G01*
X8259973Y4572000D03*
G01*
X7703926Y4813300D03*
G01*
X7510673Y4813300D03*
G01*
X7703926Y5080000D03*
G01*
X7510673Y5080000D03*
G01*
X3227395Y5524500D03*
G01*
X3427404Y5524500D03*
G01*
X3363904Y5067300D03*
G01*
X3163895Y5067300D03*
G01*
X3363904Y4787900D03*
G01*
X3163895Y4787900D03*
D28*
G01*
X8597900Y3262073D03*
G01*
X8597900Y3875326D03*
D11*
G01*
X3887327Y4454070D03*
G01*
X3687323Y4454070D03*
G01*
X2439799Y4394200D03*
G01*
X2233800Y4394200D03*
G01*
X2439799Y4102100D03*
G01*
X2233800Y4102100D03*
G01*
X2233800Y3848100D03*
G01*
X2439799Y3848100D03*
G01*
X7710299Y5334000D03*
G01*
X7504300Y5334000D03*
G01*
X7504300Y4546600D03*
G01*
X7710299Y4546600D03*
D29*
G01*
X4013834Y2603500D03*
G36*
X3863340Y2555239D02*
G01*
X3862979Y2555265D01*
X3862623Y2555344D01*
X3862285Y2555468D01*
X3861965Y2555643D01*
X3861676Y2555859D01*
X3861419Y2556116D01*
X3861203Y2556405D01*
X3861028Y2556725D01*
X3860904Y2557063D01*
X3860825Y2557419D01*
X3860800Y2557779D01*
X3860800Y2649220D01*
X3860825Y2649580D01*
X3860904Y2649936D01*
X3861028Y2650274D01*
X3861203Y2650594D01*
X3861419Y2650883D01*
X3861676Y2651140D01*
X3861965Y2651356D01*
X3862285Y2651531D01*
X3862623Y2651655D01*
X3862979Y2651734D01*
X3863340Y2651760D01*
X3973829Y2651760D01*
X3974175Y2651737D01*
X3974513Y2651666D01*
X3974838Y2651551D01*
X3975145Y2651394D01*
X3975427Y2651193D01*
X3975681Y2650959D01*
X3975900Y2650693D01*
X3976080Y2650398D01*
X3976220Y2650083D01*
X3976314Y2649750D01*
X3976362Y2649407D01*
X3976364Y2649062D01*
X3976321Y2648722D01*
X3976230Y2648386D01*
X3976095Y2648069D01*
X3975917Y2647772D01*
X3975701Y2647502D01*
X3935366Y2603500D01*
X3975701Y2559497D01*
X3975917Y2559227D01*
X3976095Y2558930D01*
X3976230Y2558613D01*
X3976321Y2558277D01*
X3976364Y2557937D01*
X3976362Y2557592D01*
X3976314Y2557249D01*
X3976220Y2556916D01*
X3976080Y2556601D01*
X3975900Y2556306D01*
X3975681Y2556040D01*
X3975427Y2555806D01*
X3975145Y2555605D01*
X3974838Y2555448D01*
X3974513Y2555333D01*
X3974175Y2555262D01*
X3973829Y2555239D01*
G37*
D30*
G01*
X1320111Y5159489D03*
D31*
G01*
X1320111Y5039498D03*
G01*
X1320111Y4939498D03*
G01*
X1320111Y4839498D03*
G01*
X1320111Y4739499D03*
D30*
G01*
X1320109Y4619510D03*
D32*
G01*
X915111Y4457496D03*
G01*
X915111Y5321477D03*
G01*
X1295120Y4457496D03*
G01*
X1295120Y5321477D03*
D33*
G01*
X9740900Y2668701D03*
G01*
X9740900Y4468698D03*
D34*
G01*
X2330703Y5411800D03*
G01*
X2520694Y5411800D03*
G01*
X2425698Y5611799D03*
D35*
G01*
X2737100Y5397050D03*
G01*
X2927099Y5397050D03*
D36*
G01*
X2832100Y5626549D03*
D37*
G01*
X3651392Y5026799D03*
G01*
X3746388Y5026799D03*
G01*
X3841587Y5026799D03*
G01*
X3841587Y5285600D03*
G01*
X3651595Y5285600D03*
D38*
G01*
X3156198Y4415302D03*
G01*
X3346201Y4415302D03*
G01*
X3156209Y4195290D03*
G01*
X3346190Y4195284D03*
G01*
X3251200Y4195287D03*
D34*
G01*
X1695703Y4179900D03*
G01*
X1885694Y4179900D03*
G01*
X1790698Y4379899D03*
D39*
G01*
X8261603Y5629109D03*
G01*
X8451596Y5629109D03*
G01*
X8451596Y5369090D03*
G01*
X8356600Y5369090D03*
G01*
X8261603Y5369090D03*
D40*
G01*
X4000500Y2325999D03*
G01*
X4095496Y2119000D03*
G01*
X3905503Y2119000D03*
D41*
G01*
X990600Y3225800D03*
G01*
X990600Y2925800D03*
G01*
X990600Y3525799D03*
D42*
G01*
X990600Y2600807D03*
G01*
X990600Y3850792D03*
D43*
G01*
X8255000Y4368800D03*
M02*
